<?xml version="1.0" ?><!DOCTYPE svg  PUBLIC '-//W3C//DTD SVG 1.1//EN'  'http://www.w3.org/Graphics/SVG/1.1/DTD/svg11.dtd'><svg enable-background="new 0 0 128 128" height="128px" id="Layer_1" version="1.1" viewBox="0 0 128 128" width="128px" xml:space="preserve" xmlns="http://www.w3.org/2000/svg" xmlns:xlink="http://www.w3.org/1999/xlink"><circle cx="64" cy="64" fill="#29D682" r="64"/><path d="M32.67,45.962c-0.55,0-1.272,0.358-1.604,0.797l-1.823,2.407c-0.332,0.438-1.054,0.796-1.604,0.796H21.67  c-0.55,0-1,0.45-1,1v5c0,0.55,0.45,1,1,1h6c0.55,0,1.27-0.359,1.6-0.8l1.8-2.4c0.33-0.44,1.05-0.8,1.6-0.8h5c0.55,0,1-0.45,1-1v-5  c0-0.55-0.45-1-1-1H32.67z" fill="#FFFFFF"/><g><g><path d="M52.67,25c0-0.55-0.45-1-1-1h-5c-0.55,0-1,0.45-1,1v13c0,0.55,0.45,1,1,1h5c0.55,0,1-0.45,1-1V25z" fill="#FFFFFF"/></g><g><path d="M66.669,25c0-0.55-0.45-1-1-1h-5c-0.55,0-1,0.45-1,1v13c0,0.55,0.45,1,1,1h5c0.55,0,1-0.45,1-1V25z" fill="#FFFFFF"/></g><g><path d="M80.669,25c0-0.55-0.449-1-1-1h-5c-0.549,0-1,0.45-1,1v13c0,0.55,0.451,1,1,1h5c0.551,0,1-0.45,1-1V25z" fill="#FFFFFF"/></g></g><path d="M32.67,59.837c-0.55,0-1.272,0.358-1.604,0.797l-1.823,2.406c-0.332,0.438-1.054,0.797-1.604,0.797H21.67  c-0.55,0-1,0.449-1,1v5c0,0.549,0.45,1,1,1h6c0.55,0,1.27-0.359,1.6-0.801l1.8-2.4c0.33-0.439,1.05-0.799,1.6-0.799h5  c0.55,0,1-0.451,1-1v-5c0-0.55-0.45-1-1-1H32.67z" fill="#FFFFFF"/><path d="M32.67,73.9c-0.55,0-1.272,0.357-1.604,0.797l-1.823,2.406c-0.332,0.438-1.054,0.797-1.604,0.797H21.67  c-0.55,0-1,0.449-1,1v5c0,0.549,0.45,1,1,1h6c0.55,0,1.27-0.359,1.6-0.801l1.8-2.4c0.33-0.439,1.05-0.799,1.6-0.799h5  c0.55,0,1-0.451,1-1v-5c0-0.551-0.45-1-1-1H32.67z" fill="#FFFFFF"/><g><g><g><path d="M52.67,89c0-0.549-0.45-1-1-1h-5c-0.55,0-1,0.451-1,1v14c0,0.551,0.45,1,1,1h5c0.55,0,1-0.449,1-1V89z" fill="#FFFFFF"/></g><g><path d="M66.669,89c0-0.549-0.45-1-1-1h-5c-0.55,0-1,0.451-1,1v14c0,0.551,0.45,1,1,1h5c0.55,0,1-0.449,1-1V89z" fill="#FFFFFF"/></g><g><path d="M80.669,89c0-0.549-0.449-1-1-1h-5c-0.549,0-1,0.451-1,1v14c0,0.551,0.451,1,1,1h5c0.551,0,1-0.449,1-1     V89z" fill="#FFFFFF"/></g></g><path d="M94.669,45.962c0.551,0,1.272,0.358,1.604,0.797l1.823,2.407c0.332,0.438,1.055,0.796,1.604,0.796h5.969   c0.551,0,1,0.45,1,1v5c0,0.55-0.449,1-1,1h-6c-0.549,0-1.27-0.36-1.6-0.8l-1.8-2.4c-0.33-0.439-1.05-0.8-1.601-0.8h-5   c-0.549,0-1-0.45-1-1v-5c0-0.55,0.451-1,1-1H94.669z" fill="#FFFFFF"/><path d="M94.669,59.837c0.551,0,1.272,0.358,1.604,0.797l1.823,2.406c0.332,0.438,1.055,0.797,1.604,0.797h5.969   c0.551,0,1,0.449,1,1v5c0,0.549-0.449,1-1,1h-6c-0.549,0-1.27-0.361-1.6-0.801l-1.8-2.4c-0.33-0.439-1.05-0.799-1.601-0.799h-5   c-0.549,0-1-0.451-1-1v-5c0-0.55,0.451-1,1-1H94.669z" fill="#FFFFFF"/><path d="M94.669,73.9c0.551,0,1.272,0.357,1.604,0.797l1.823,2.406c0.332,0.438,1.055,0.797,1.604,0.797h5.969   c0.551,0,1,0.449,1,1v5c0,0.549-0.449,1-1,1h-6c-0.549,0-1.27-0.361-1.6-0.801l-1.8-2.4c-0.33-0.439-1.05-0.799-1.601-0.799h-5   c-0.549,0-1-0.451-1-1v-5c0-0.551,0.451-1,1-1H94.669z" fill="#FFFFFF"/></g><path d="M90.669,41v46c0,2.201-1.799,4-4,4h-46c-2.2,0-4-1.799-4-4V41c0-2.2,1.8-4,4-4h46  C88.871,37,90.669,38.8,90.669,41z" fill="#686868"/><path d="M82.892,48.444c0,0.55-0.451,1-1,1H66.765c-0.549,0-1-0.45-1-1v-3.137c0-0.55,0.45-1,1-1h15.127  c0.549,0,1,0.45,1,1V48.444z" fill="#828282"/></svg>