<?xml version="1.0" encoding="UTF-8" standalone="no"?>
<!-- Created with Inkscape (http://www.inkscape.org/) -->

<svg
   xmlns:dc="http://purl.org/dc/elements/1.1/"
   xmlns:cc="http://creativecommons.org/ns#"
   xmlns:rdf="http://www.w3.org/1999/02/22-rdf-syntax-ns#"
   xmlns:svg="http://www.w3.org/2000/svg"
   xmlns="http://www.w3.org/2000/svg"
   xmlns:xlink="http://www.w3.org/1999/xlink"
   xmlns:sodipodi="http://sodipodi.sourceforge.net/DTD/sodipodi-0.dtd"
   xmlns:inkscape="http://www.inkscape.org/namespaces/inkscape"
   height="128"
   id="svg2606"
   inkscape:output_extension="org.inkscape.output.svg.inkscape"
   inkscape:version="0.91 r13725"
   sodipodi:docname="org.librepcb.LibrePCB-file.svg"
   sodipodi:version="0.32"
   version="1.0"
   width="128">
  <metadata
     id="metadata58">
    <rdf:RDF>
      <cc:Work
         rdf:about="">
        <dc:title />
        <dc:description />
        <dc:subject>
          <rdf:Bag>
            <rdf:li>unsorted</rdf:li>
          </rdf:Bag>
        </dc:subject>
        <dc:publisher>
          <cc:Agent
             rdf:about="http://www.openclipart.org/">
            <dc:title>Open Clip Art Library, Source: Oxygen Icons, Source: Oxygen Icons, Source: Oxygen Icons, Source: Oxygen Icons</dc:title>
          </cc:Agent>
        </dc:publisher>
        <dc:creator>
          <cc:Agent>
            <dc:title />
          </cc:Agent>
        </dc:creator>
        <dc:rights>
          <cc:Agent>
            <dc:title />
          </cc:Agent>
        </dc:rights>
        <dc:date />
        <dc:format>image/svg+xml</dc:format>
        <dc:type
           rdf:resource="http://purl.org/dc/dcmitype/StillImage" />
        <cc:license
           rdf:resource="http://creativecommons.org/licenses/by-sa/3.0/ or http://creativecommons.org/licenses/LGPL/2.1/" />
        <dc:language>en</dc:language>
      </cc:Work>
    </rdf:RDF>
  </metadata>
  <defs
     id="defs2608">
    <linearGradient
       id="linearGradient10207">
      <stop
         id="stop10209"
         offset="0"
         style="stop-color:#a2a2a2;stop-opacity:1;" />
      <stop
         id="stop10211"
         offset="1"
         style="stop-color:#ffffff;stop-opacity:1;" />
    </linearGradient>
    <linearGradient
       gradientUnits="userSpaceOnUse"
       id="XMLID_12_"
       x1="96"
       x2="88.000198"
       y1="104"
       y2="96.000198">
      <stop
         id="stop83"
         offset="0"
         style="stop-color:#888A85" />
      <stop
         id="stop85"
         offset="0.0072"
         style="stop-color:#8C8E89" />
      <stop
         id="stop87"
         offset="0.0673"
         style="stop-color:#ABACA9" />
      <stop
         id="stop89"
         offset="0.1347"
         style="stop-color:#C5C6C4" />
      <stop
         id="stop91"
         offset="0.2652576"
         style="stop-color:#DBDBDA" />
      <stop
         id="stop93"
         offset="0.37646064"
         style="stop-color:#EBEBEB" />
      <stop
         id="stop95"
         offset="0.48740286"
         style="stop-color:#F7F7F6" />
      <stop
         id="stop97"
         offset="0.6324091"
         style="stop-color:#FDFDFD" />
      <stop
         id="stop99"
         offset="1"
         style="stop-color:#FFFFFF" />
    </linearGradient>
    <radialGradient
       cx="102"
       cy="112.3047"
       gradientUnits="userSpaceOnUse"
       id="XMLID_8_"
       r="139.55859">
      <stop
         id="stop41"
         offset="0"
         style="stop-color:#b7b8b9;stop-opacity:1;" />
      <stop
         id="stop47"
         offset="0.18851049"
         style="stop-color:#ECECEC" />
      <stop
         id="stop49"
         offset="0.25718147"
         style="stop-color:#FAFAFA" />
      <stop
         id="stop51"
         offset="0.30111277"
         style="stop-color:#FFFFFF" />
      <stop
         id="stop53"
         offset="0.5313"
         style="stop-color:#FAFAFA" />
      <stop
         id="stop55"
         offset="0.8449"
         style="stop-color:#EBECEC" />
      <stop
         id="stop57"
         offset="1"
         style="stop-color:#E1E2E3" />
    </radialGradient>
    <filter
       height="1.3839999"
       id="filter6697"
       inkscape:collect="always"
       width="1.3839999"
       x="-0.19200002"
       y="-0.19199999">
      <feGaussianBlur
         id="feGaussianBlur6699"
         inkscape:collect="always"
         stdDeviation="1.9447689" />
    </filter>
    <clipPath
       clipPathUnits="userSpaceOnUse"
       id="clipPath7084">
      <path
         d="M 72,88 L 40,120 L 32,120 L 32,80 L 72,80 L 72,88 z"
         id="path7086"
         style="fill:#000000;fill-opacity:1;fill-rule:evenodd;stroke:none;stroke-width:1px;stroke-linecap:butt;stroke-linejoin:miter;stroke-opacity:1" />
    </clipPath>
    <radialGradient
       cx="102"
       cy="112.3047"
       gradientTransform="matrix(1,0,0,0.9996653,2e-6,3.0160848e-3)"
       gradientUnits="userSpaceOnUse"
       id="radialGradient9437"
       inkscape:collect="always"
       r="139.55859"
       xlink:href="#XMLID_8_" />
    <linearGradient
       gradientUnits="userSpaceOnUse"
       id="linearGradient10213"
       inkscape:collect="always"
       x1="98.617439"
       x2="91.228737"
       xlink:href="#linearGradient10207"
       y1="106.41443"
       y2="99.254974" />
    <filter
       id="filter2770"
       inkscape:collect="always">
      <feGaussianBlur
         id="feGaussianBlur2772"
         inkscape:collect="always"
         stdDeviation="2.0786429" />
    </filter>
  </defs>
  <sodipodi:namedview
     bordercolor="#666666"
     borderopacity="1.0"
     height="128px"
     id="base"
     inkscape:current-layer="layer1"
     inkscape:cx="149.18526"
     inkscape:cy="-21.844441"
     inkscape:document-units="px"
     inkscape:grid-points="true"
     inkscape:guide-bbox="true"
     inkscape:pageopacity="0.0"
     inkscape:pageshadow="2"
     inkscape:window-height="1146"
     inkscape:window-width="1920"
     inkscape:window-x="0"
     inkscape:window-y="0"
     inkscape:zoom="1"
     pagecolor="#ffffff"
     showgrid="true"
     showguides="true"
     width="128px"
     inkscape:window-maximized="1">
    <inkscape:grid
       id="GridFromPre046Settings"
       type="xygrid"
       originx="0px"
       originy="0px"
       spacingx="4px"
       spacingy="4px"
       color="#3f3fff"
       empcolor="#3f3fff"
       opacity="0.15"
       empopacity="0.38"
       empspacing="2" />
  </sodipodi:namedview>
  <g
     id="layer1"
     inkscape:groupmode="layer"
     inkscape:label="Livello 1">
    <path
       d="M 16,8 L 16,120 C 16,120 79.15625,120 79.15625,120 L 79.1875,120 C 79.187503,120 91.09375,110.09375 96.59375,104.59375 C 102.09375,99.09375 112,87.1875 112,87.1875 L 112,87.15625 L 112,8 L 16,8 z"
       id="path7865"
       sodipodi:nodetypes="csccscccc"
       style="opacity:0.5;fill:#000000;fill-opacity:1;filter:url(#filter2770)"
       transform="matrix(1.0416667,0,0,1.0267857,-2.6666667,-1.2142891)" />
    <path
       d="M 16.000001,8 L 16,120 C 16,120 79.146418,120 79.146418,120 L 112,87.14642 L 112,8 L 16.000001,8 z"
       id="path34"
       sodipodi:nodetypes="cccccc"
       style="fill:#ffffff;fill-opacity:1" />
    <path
       d="M 18.000002,9.0000034 C 17.449002,9.0000034 17.000002,9.4488534 17.000002,9.9996684 L 17.000002,117.96352 C 17.000002,118.51533 17.449002,118.96318 18.000002,118.96318 L 77.171999,118.96318 C 77.434999,118.96318 79.934679,119.08131 80.12068,118.89438 L 110.707,88.094202 C 110.894,87.907264 111,85.40942 111,85.146508 L 111,9.9996684 C 111,9.4488534 110.552,9.0000034 110,9.0000034 L 18.000002,9.0000034 z"
       id="path59"
       sodipodi:nodetypes="ccccccccccc"
       style="fill:url(#radialGradient9437);fill-opacity:1" />
    <path
       clip-path="url(#clipPath7084)"
       d="M 41.879531,115.98249 C 41.879531,115.98249 66.18914,91.672876 66.18914,91.672876 C 66.18914,91.672876 56.836,94.586 46.586,94.586 C 46.586,104.836 41.879531,115.98249 41.879531,115.98249 z"
       id="path5540"
       sodipodi:nodetypes="cccc"
       style="opacity:0.4;fill:#000000;fill-opacity:1;filter:url(#filter6697)"
       transform="translate(40,0)" />
    <path
       d="M 79.172,120 C 79.172,120 91.086,110.086 96.586,104.586 C 102.086,99.086 112,87.172 112,87.172 C 112,87.172 98.25,96 88,96 C 88,106.25 79.172,120 79.172,120 z"
       id="path14523"
       sodipodi:nodetypes="csccc"
       style="fill:url(#linearGradient10213);fill-opacity:1" />
    <g
       id="New_Symbol-3"
       transform="matrix(0.14306641,0,0,0.14306641,27.75,24.75)">
      <g
         id="_Group_2_2_">
        <g
           id="g3593">
          <g
             id="_Group_3_2_">
            <g
               id="_Group_4_2_">
              <path
                 id="path3597"
                 d="m 0.8,255.9 0,0 c 0,140.8 114.2,255 255,255 l 0,0 c 140.8,0 255,-114.2 255,-255 l 0,0 c 0,-140.8 -114.2,-255 -255,-255 l 0,0 C 115,0.9 0.8,115.1 0.8,255.9 Z"
                 class="st0"
                 inkscape:connector-curvature="0"
                 style="fill:#29d682" />
            </g>
          </g>
        </g>
      </g>
      <rect
         id="rect3599"
         height="72.099998"
         width="28.5"
         class="st1"
         y="340"
         x="291.5"
         style="fill:#ffffff" />
      <rect
         id="rect3601"
         height="72.099998"
         width="28.5"
         class="st1"
         y="340"
         x="241.60001"
         style="fill:#ffffff" />
      <rect
         id="rect3603"
         height="72.099998"
         width="28.5"
         class="st1"
         y="340"
         x="191.7"
         style="fill:#ffffff" />
      <rect
         id="rect3605"
         height="72.099998"
         width="28.5"
         class="st1"
         y="99.699997"
         x="291.5"
         style="fill:#ffffff" />
      <rect
         id="rect3607"
         height="72.099998"
         width="28.5"
         class="st1"
         y="99.699997"
         x="241.60001"
         style="fill:#ffffff" />
      <rect
         id="rect3609"
         height="72.099998"
         width="28.5"
         class="st1"
         y="99.699997"
         x="191.7"
         style="fill:#ffffff" />
      <rect
         id="rect3611"
         height="28.5"
         width="72"
         class="st1"
         y="291.5"
         x="99.599998"
         style="fill:#ffffff" />
      <rect
         id="rect3613"
         height="28.5"
         width="72"
         class="st1"
         y="241.60001"
         x="99.599998"
         style="fill:#ffffff" />
      <rect
         id="rect3615"
         height="28.5"
         width="72"
         class="st1"
         y="191.7"
         x="99.599998"
         style="fill:#ffffff" />
      <rect
         id="rect3617"
         height="28.5"
         width="72"
         class="st1"
         y="291.5"
         x="340"
         style="fill:#ffffff" />
      <rect
         id="rect3619"
         height="28.5"
         width="72"
         class="st1"
         y="241.60001"
         x="340"
         style="fill:#ffffff" />
      <rect
         id="rect3621"
         height="28.5"
         width="72"
         class="st1"
         y="191.7"
         x="340"
         style="fill:#ffffff" />
      <path
         id="path3623"
         d="m 327.8,158.9 c 13.9,0 25.1,11.3 25,25.1 l 0,143.8 c 0,13.9 -11.2,25.1 -25.1,25.1 l -143.8,0 c -13.9,0 -25.1,-11.2 -25.1,-25.1 l 0,-143.8 c 0,0 0,0 0,-0.1 0,-13.9 11.2,-25.1 25.1,-25.1 l 143.9,0.1 c 0,0 0,0 0,0 z"
         class="st2"
         inkscape:connector-curvature="0"
         style="fill:#4d4d4d" />
      <path
         id="path3625"
         d="m 197.8,221.6 c 10.4,0 18.8,-8.4 18.8,-18.8 0,-10.4 -8.4,-18.8 -18.8,-18.8 -10.4,0 -18.8,8.4 -18.8,18.8 0,10.4 8.4,18.8 18.8,18.8 0,0 0,0 0,0 z"
         class="st1"
         inkscape:connector-curvature="0"
         style="fill:#ffffff" />
      <rect
         id="rect3627"
         height="512"
         width="512"
         class="st3"
         x="0"
         y="0"
         style="fill:none" />
    </g>
  </g>
  <style
     id="style3589"
     type="text/css">
	.st0{fill:#29D682;}
	.st1{fill:#FFFFFF;}
	.st2{fill:#4D4D4D;}
	.st3{fill:none;}
</style>
</svg>
