999
dxfrw 0.5.10
0
SECTION
2
HEADER
9
$ACADVER
1
AC1021
9
$HANDSEED
5
20000
9
$DWGCODEPAGE
3
ANSI_1252
9
$INSBASE
10
0
20
0
30
0
9
$EXTMIN
10
-23.631089172
20
-602.5
30
0
9
$EXTMAX
10
770.865995302
20
218.339532746
30
0
9
$LIMMIN
10
0
20
0
9
$LIMMAX
10
420
20
297
9
$ORTHOMODE
70
0
9
$LTSCALE
40
1
9
$TEXTSTYLE
7
STANDARD
9
$CLAYER
8
text
9
$DIMASZ
40
2.5
9
$DIMLFAC
40
1
9
$DIMSCALE
40
1
9
$DIMEXO
40
0.625
9
$DIMEXE
40
1.25
9
$DIMTXT
40
2.5
9
$DIMTSZ
40
0
9
$DIMAUNIT
70
0
9
$DIMADEC
70
2
9
$DIMLUNIT
70
2
9
$DIMSTYLE
2
STANDARD
9
$DIMGAP
40
0.625
9
$DIMTIH
70
0
9
$LUNITS
70
2
9
$LUPREC
70
4
9
$AUNITS
70
0
9
$AUPREC
70
2
9
$SPLINESEGS
70
8
9
$GRIDMODE
70
1
9
$SNAPSTYLE
70
0
9
$GRIDUNIT
10
0
20
0
9
$PINSBASE
10
59.0017406465
20
157.845517582
30
0
9
$PLIMMIN
10
0
20
0
9
$PLIMMAX
10
297
20
210
9
$INSUNITS
70
4
9
$PSVPSCALE
40
0.24123737358
0
ENDSEC
0
SECTION
2
CLASSES
0
ENDSEC
0
SECTION
2
TABLES
0
TABLE
2
VPORT
5
8
330
0
100
AcDbSymbolTable
70
1
0
VPORT
5
31
330
2
100
AcDbSymbolTableRecord
100
AcDbViewportTableRecord
2
*ACTIVE
70
0
10
0
20
0
11
1
21
1
12
533.783056183
22
208.643287614
13
0
23
0
14
10
24
10
15
10
25
10
16
0
26
0
36
1
17
0
27
0
37
0
40
845.076931524
41
1.77401129944
42
50
43
0
44
0
50
0
51
0
71
0
72
100
73
1
74
3
75
0
76
1
77
0
78
0
281
0
65
1
110
0
120
0
130
0
111
1
121
0
131
0
112
0
122
1
132
0
79
0
146
0
348
10020
60
7
61
5
292
1
282
1
141
0
142
0
63
250
421
3358443
0
ENDTAB
0
TABLE
2
LTYPE
5
5
330
0
100
AcDbSymbolTable
70
4
0
LTYPE
5
14
330
5
100
AcDbSymbolTableRecord
100
AcDbLinetypeTableRecord
2
ByBlock
70
0
3

72
65
73
0
40
0
0
LTYPE
5
15
330
5
100
AcDbSymbolTableRecord
100
AcDbLinetypeTableRecord
2
ByLayer
70
0
3

72
65
73
0
40
0
0
LTYPE
5
16
330
5
100
AcDbSymbolTableRecord
100
AcDbLinetypeTableRecord
2
Continuous
70
0
3
Solid line
72
65
73
0
40
0
0
LTYPE
5
32
330
5
100
AcDbSymbolTableRecord
100
AcDbLinetypeTableRecord
2
DOT
70
0
3
Dot . . . . . . . . . . . . . . . . . . . . . .
72
65
73
2
40
6.35
49
0
74
0
49
-6.35
74
0
0
LTYPE
5
33
330
5
100
AcDbSymbolTableRecord
100
AcDbLinetypeTableRecord
2
DOT2
70
0
3
Dot (.5x) .....................................
72
65
73
2
40
3.175
49
0
74
0
49
-3.175
74
0
0
LTYPE
5
34
330
5
100
AcDbSymbolTableRecord
100
AcDbLinetypeTableRecord
2
DOTX2
70
0
3
Dot (2x) .  .  .  .  .  .  .  .  .  .  .  .  .
72
65
73
2
40
12.7
49
0
74
0
49
-12.7
74
0
0
LTYPE
5
35
330
5
100
AcDbSymbolTableRecord
100
AcDbLinetypeTableRecord
2
DASHED
70
0
3
Dot . . . . . . . . . . . . . . . . . . . . . .
72
65
73
2
40
19.05
49
12.7
74
0
49
-6.35
74
0
0
LTYPE
5
36
330
5
100
AcDbSymbolTableRecord
100
AcDbLinetypeTableRecord
2
DASHED2
70
0
3
Dashed (.5x) _ _ _ _ _ _ _ _ _ _ _ _ _ _ _ _ _
72
65
73
2
40
9.525
49
6.35
74
0
49
-3.175
74
0
0
LTYPE
5
37
330
5
100
AcDbSymbolTableRecord
100
AcDbLinetypeTableRecord
2
DASHEDX2
70
0
3
Dashed (2x) ____  ____  ____  ____  ____  ___
72
65
73
2
40
38.1
49
25.4
74
0
49
-12.7
74
0
0
LTYPE
5
38
330
5
100
AcDbSymbolTableRecord
100
AcDbLinetypeTableRecord
2
DASHDOT
70
0
3
Dash dot __ . __ . __ . __ . __ . __ . __ . __
72
65
73
4
40
25.4
49
12.7
74
0
49
-6.35
74
0
49
0
74
0
49
-6.35
74
0
0
LTYPE
5
39
330
5
100
AcDbSymbolTableRecord
100
AcDbLinetypeTableRecord
2
DASHDOT2
70
0
3
Dash dot (.5x) _._._._._._._._._._._._._._._.
72
65
73
4
40
12.7
49
6.35
74
0
49
-3.175
74
0
49
0
74
0
49
-3.175
74
0
0
LTYPE
5
3A
330
5
100
AcDbSymbolTableRecord
100
AcDbLinetypeTableRecord
2
DASHDOTX2
70
0
3
Dash dot (2x) ____  .  ____  .  ____  .  ___
72
65
73
4
40
50.8
49
25.4
74
0
49
-12.7
74
0
49
0
74
0
49
-12.7
74
0
0
LTYPE
5
3B
330
5
100
AcDbSymbolTableRecord
100
AcDbLinetypeTableRecord
2
DIVIDE
70
0
3
Divide ____ . . ____ . . ____ . . ____ . . ____
72
65
73
6
40
31.75
49
12.7
74
0
49
-6.35
74
0
49
0
74
0
49
-6.35
74
0
49
0
74
0
49
-6.35
74
0
0
LTYPE
5
3C
330
5
100
AcDbSymbolTableRecord
100
AcDbLinetypeTableRecord
2
DIVIDE2
70
0
3
Divide (.5x) __..__..__..__..__..__..__..__.._
72
65
73
6
40
15.875
49
6.35
74
0
49
-3.175
74
0
49
0
74
0
49
-3.175
74
0
49
0
74
0
49
-3.175
74
0
0
LTYPE
5
3D
330
5
100
AcDbSymbolTableRecord
100
AcDbLinetypeTableRecord
2
DIVIDEX2
70
0
3
Divide (2x) ________  .  .  ________  .  .  _
72
65
73
6
40
63.5
49
25.4
74
0
49
-12.7
74
0
49
0
74
0
49
-12.7
74
0
49
0
74
0
49
-12.7
74
0
0
LTYPE
5
3E
330
5
100
AcDbSymbolTableRecord
100
AcDbLinetypeTableRecord
2
BORDER
70
0
3
Border __ __ . __ __ . __ __ . __ __ . __ __ .
72
65
73
6
40
44.45
49
12.7
74
0
49
-6.35
74
0
49
12.7
74
0
49
-6.35
74
0
49
0
74
0
49
-6.35
74
0
0
LTYPE
5
3F
330
5
100
AcDbSymbolTableRecord
100
AcDbLinetypeTableRecord
2
BORDER2
70
0
3
Border (.5x) __.__.__.__.__.__.__.__.__.__.__.
72
65
73
6
40
22.225
49
6.35
74
0
49
-3.175
74
0
49
6.35
74
0
49
-3.175
74
0
49
0
74
0
49
-3.175
74
0
0
LTYPE
5
40
330
5
100
AcDbSymbolTableRecord
100
AcDbLinetypeTableRecord
2
BORDERX2
70
0
3
Border (2x) ____  ____  .  ____  ____  .  ___
72
65
73
6
40
88.9
49
25.4
74
0
49
-12.7
74
0
49
25.4
74
0
49
-12.7
74
0
49
0
74
0
49
-12.7
74
0
0
LTYPE
5
41
330
5
100
AcDbSymbolTableRecord
100
AcDbLinetypeTableRecord
2
CENTER
70
0
3
Center ____ _ ____ _ ____ _ ____ _ ____ _ ____
72
65
73
4
40
50.8
49
31.75
74
0
49
-6.35
74
0
49
6.35
74
0
49
-6.35
74
0
0
LTYPE
5
42
330
5
100
AcDbSymbolTableRecord
100
AcDbLinetypeTableRecord
2
CENTER2
70
0
3
Center (.5x) ___ _ ___ _ ___ _ ___ _ ___ _ ___
72
65
73
4
40
28.575
49
19.05
74
0
49
-3.175
74
0
49
3.175
74
0
49
-3.175
74
0
0
LTYPE
5
43
330
5
100
AcDbSymbolTableRecord
100
AcDbLinetypeTableRecord
2
CENTERX2
70
0
3
Center (2x) ________  __  ________  __  _____
72
65
73
4
40
101.6
49
63.5
74
0
49
-12.7
74
0
49
12.7
74
0
49
-12.7
74
0
0
ENDTAB
0
TABLE
2
LAYER
5
2
330
0
100
AcDbSymbolTable
70
1
0
LAYER
5
10
330
2
100
AcDbSymbolTableRecord
100
AcDbLayerTableRecord
2
0
70
0
62
7
6
CONTINUOUS
370
13
390
F
0
LAYER
5
44
330
2
100
AcDbSymbolTableRecord
100
AcDbLayerTableRecord
2
axis
70
0
62
6
6
CONTINUOUS
370
30
390
F
0
LAYER
5
45
330
2
100
AcDbSymbolTableRecord
100
AcDbLayerTableRecord
2
text
70
0
62
2
6
CONTINUOUS
370
15
390
F
0
LAYER
5
46
330
2
100
AcDbSymbolTableRecord
100
AcDbLayerTableRecord
2
symbol_outline
70
0
62
4
6
CONTINUOUS
370
50
390
F
0
LAYER
5
47
330
2
100
AcDbSymbolTableRecord
100
AcDbLayerTableRecord
2
pin_circle
70
0
62
3
6
CONTINUOUS
370
50
390
F
0
LAYER
5
48
330
2
100
AcDbSymbolTableRecord
100
AcDbLayerTableRecord
2
dimensioning
70
0
62
1
6
CONTINUOUS
370
13
390
F
0
LAYER
5
49
330
2
100
AcDbSymbolTableRecord
100
AcDbLayerTableRecord
2
crosses
70
0
62
5
6
CONTINUOUS
370
13
390
F
0
ENDTAB
0
TABLE
2
STYLE
5
3
330
0
100
AcDbSymbolTable
70
3
0
STYLE
5
4A
330
2
100
AcDbSymbolTableRecord
100
AcDbTextStyleTableRecord
2
standard
70
0
40
0
41
1
50
0
71
0
42
1
3
standard
4

0
ENDTAB
0
TABLE
2
VIEW
5
6
330
0
100
AcDbSymbolTable
70
0
0
ENDTAB
0
TABLE
2
UCS
5
7
330
0
100
AcDbSymbolTable
70
0
0
ENDTAB
0
TABLE
2
APPID
5
9
330
0
100
AcDbSymbolTable
70
1
0
APPID
5
12
330
9
100
AcDbSymbolTableRecord
100
AcDbRegAppTableRecord
2
ACAD
70
0
0
ENDTAB
0
TABLE
2
DIMSTYLE
5
A
330
0
100
AcDbSymbolTable
70
1
100
AcDbDimStyleTable
71
1
0
DIMSTYLE
105
4B
330
A
100
AcDbSymbolTableRecord
100
AcDbDimStyleTableRecord
2
Standard
70
0
40
1
41
2.5
42
0.625
43
0.38
44
1.25
45
0
46
0
47
0
48
0
140
2.5
141
0.09
142
0
143
25.4
144
1
145
0
146
1
147
0.625
148
0
71
0
72
0
73
0
74
1
75
0
76
0
77
0
78
0
79
0
170
0
171
2
172
0
173
0
174
0
175
0
176
0
177
0
178
0
179
0
271
4
272
4
273
2
274
2
275
0
276
0
277
2
278
46
279
0
280
0
281
0
282
0
283
1
284
0
285
0
286
0
288
0
289
3
340
Standard
341

371
-2
372
-2
0
ENDTAB
0
TABLE
2
BLOCK_RECORD
5
1
330
0
100
AcDbSymbolTable
70
2
0
BLOCK_RECORD
5
1F
330
1
100
AcDbSymbolTableRecord
100
AcDbBlockTableRecord
2
*Model_Space
70
0
280
1
281
0
0
BLOCK_RECORD
5
1E
330
1
100
AcDbSymbolTableRecord
100
AcDbBlockTableRecord
2
*Paper_Space
70
0
280
1
281
0
0
BLOCK_RECORD
5
4C
330
1
100
AcDbSymbolTableRecord
100
AcDbBlockTableRecord
2
*D16
70
0
280
1
281
0
0
BLOCK_RECORD
5
4F
330
1
100
AcDbSymbolTableRecord
100
AcDbBlockTableRecord
2
*D18
70
0
280
1
281
0
0
BLOCK_RECORD
5
52
330
1
100
AcDbSymbolTableRecord
100
AcDbBlockTableRecord
2
*D26
70
0
280
1
281
0
0
BLOCK_RECORD
5
55
330
1
100
AcDbSymbolTableRecord
100
AcDbBlockTableRecord
2
*D14
70
0
280
1
281
0
0
BLOCK_RECORD
5
58
330
1
100
AcDbSymbolTableRecord
100
AcDbBlockTableRecord
2
*D39
70
0
280
1
281
0
0
BLOCK_RECORD
5
5B
330
1
100
AcDbSymbolTableRecord
100
AcDbBlockTableRecord
2
*D36
70
0
280
1
281
0
0
BLOCK_RECORD
5
5E
330
1
100
AcDbSymbolTableRecord
100
AcDbBlockTableRecord
2
*D12
70
0
280
1
281
0
0
BLOCK_RECORD
5
61
330
1
100
AcDbSymbolTableRecord
100
AcDbBlockTableRecord
2
*D10
70
0
280
1
281
0
0
BLOCK_RECORD
5
64
330
1
100
AcDbSymbolTableRecord
100
AcDbBlockTableRecord
2
*D17
70
0
280
1
281
0
0
BLOCK_RECORD
5
67
330
1
100
AcDbSymbolTableRecord
100
AcDbBlockTableRecord
2
*D38
70
0
280
1
281
0
0
BLOCK_RECORD
5
6A
330
1
100
AcDbSymbolTableRecord
100
AcDbBlockTableRecord
2
*D22
70
0
280
1
281
0
0
BLOCK_RECORD
5
6D
330
1
100
AcDbSymbolTableRecord
100
AcDbBlockTableRecord
2
*D30
70
0
280
1
281
0
0
BLOCK_RECORD
5
70
330
1
100
AcDbSymbolTableRecord
100
AcDbBlockTableRecord
2
*D40
70
0
280
1
281
0
0
BLOCK_RECORD
5
73
330
1
100
AcDbSymbolTableRecord
100
AcDbBlockTableRecord
2
*D25
70
0
280
1
281
0
0
BLOCK_RECORD
5
76
330
1
100
AcDbSymbolTableRecord
100
AcDbBlockTableRecord
2
*D2
70
0
280
1
281
0
0
BLOCK_RECORD
5
79
330
1
100
AcDbSymbolTableRecord
100
AcDbBlockTableRecord
2
*D32
70
0
280
1
281
0
0
BLOCK_RECORD
5
7C
330
1
100
AcDbSymbolTableRecord
100
AcDbBlockTableRecord
2
*D41
70
0
280
1
281
0
0
BLOCK_RECORD
5
7F
330
1
100
AcDbSymbolTableRecord
100
AcDbBlockTableRecord
2
*D31
70
0
280
1
281
0
0
BLOCK_RECORD
5
82
330
1
100
AcDbSymbolTableRecord
100
AcDbBlockTableRecord
2
*D33
70
0
280
1
281
0
0
BLOCK_RECORD
5
85
330
1
100
AcDbSymbolTableRecord
100
AcDbBlockTableRecord
2
*D28
70
0
280
1
281
0
0
BLOCK_RECORD
5
88
330
1
100
AcDbSymbolTableRecord
100
AcDbBlockTableRecord
2
*D9
70
0
280
1
281
0
0
BLOCK_RECORD
5
8B
330
1
100
AcDbSymbolTableRecord
100
AcDbBlockTableRecord
2
*D20
70
0
280
1
281
0
0
BLOCK_RECORD
5
8E
330
1
100
AcDbSymbolTableRecord
100
AcDbBlockTableRecord
2
*D35
70
0
280
1
281
0
0
BLOCK_RECORD
5
91
330
1
100
AcDbSymbolTableRecord
100
AcDbBlockTableRecord
2
*D11
70
0
280
1
281
0
0
BLOCK_RECORD
5
94
330
1
100
AcDbSymbolTableRecord
100
AcDbBlockTableRecord
2
*D13
70
0
280
1
281
0
0
BLOCK_RECORD
5
97
330
1
100
AcDbSymbolTableRecord
100
AcDbBlockTableRecord
2
*D37
70
0
280
1
281
0
0
BLOCK_RECORD
5
9A
330
1
100
AcDbSymbolTableRecord
100
AcDbBlockTableRecord
2
*D29
70
0
280
1
281
0
0
BLOCK_RECORD
5
9D
330
1
100
AcDbSymbolTableRecord
100
AcDbBlockTableRecord
2
*D4
70
0
280
1
281
0
0
BLOCK_RECORD
5
A0
330
1
100
AcDbSymbolTableRecord
100
AcDbBlockTableRecord
2
*D8
70
0
280
1
281
0
0
BLOCK_RECORD
5
A3
330
1
100
AcDbSymbolTableRecord
100
AcDbBlockTableRecord
2
*D7
70
0
280
1
281
0
0
BLOCK_RECORD
5
A6
330
1
100
AcDbSymbolTableRecord
100
AcDbBlockTableRecord
2
*D1
70
0
280
1
281
0
0
BLOCK_RECORD
5
A9
330
1
100
AcDbSymbolTableRecord
100
AcDbBlockTableRecord
2
*D3
70
0
280
1
281
0
0
BLOCK_RECORD
5
AC
330
1
100
AcDbSymbolTableRecord
100
AcDbBlockTableRecord
2
*D21
70
0
280
1
281
0
0
BLOCK_RECORD
5
AF
330
1
100
AcDbSymbolTableRecord
100
AcDbBlockTableRecord
2
*D15
70
0
280
1
281
0
0
BLOCK_RECORD
5
B2
330
1
100
AcDbSymbolTableRecord
100
AcDbBlockTableRecord
2
*D24
70
0
280
1
281
0
0
BLOCK_RECORD
5
B5
330
1
100
AcDbSymbolTableRecord
100
AcDbBlockTableRecord
2
*D23
70
0
280
1
281
0
0
BLOCK_RECORD
5
B8
330
1
100
AcDbSymbolTableRecord
100
AcDbBlockTableRecord
2
*D34
70
0
280
1
281
0
0
BLOCK_RECORD
5
BB
330
1
100
AcDbSymbolTableRecord
100
AcDbBlockTableRecord
2
*D6
70
0
280
1
281
0
0
BLOCK_RECORD
5
BE
330
1
100
AcDbSymbolTableRecord
100
AcDbBlockTableRecord
2
*D27
70
0
280
1
281
0
0
BLOCK_RECORD
5
C1
330
1
100
AcDbSymbolTableRecord
100
AcDbBlockTableRecord
2
*D5
70
0
280
1
281
0
0
BLOCK_RECORD
5
C4
330
1
100
AcDbSymbolTableRecord
100
AcDbBlockTableRecord
2
*D19
70
0
280
1
281
0
0
ENDTAB
0
ENDSEC
0
SECTION
2
BLOCKS
0
BLOCK
5
20
330
1F
100
AcDbEntity
8
0
100
AcDbBlockBegin
2
*Model_Space
70
0
10
0
20
0
30
0
3
*Model_Space
1

0
ENDBLK
5
21
330
1F
100
AcDbEntity
8
0
100
AcDbBlockEnd
0
BLOCK
5
1C
330
1B
100
AcDbEntity
8
0
100
AcDbBlockBegin
2
*Paper_Space
70
0
10
0
20
0
30
0
3
*Paper_Space
1

0
ENDBLK
5
1D
330
1F
100
AcDbEntity
8
0
100
AcDbBlockEnd
0
BLOCK
5
4D
330
4C
100
AcDbEntity
8
0
100
AcDbBlockBegin
2
*D16
70
1
10
0
20
0
3
*D16
1

0
LINE
5
C7
100
AcDbEntity
8
dimensioning
6
CONTINUOUS
62
7
370
0
100
AcDbLine
10
579.493910828
20
80
11
579.493910828
21
0
0
SOLID
5
C8
100
AcDbEntity
8
dimensioning
6
CONTINUOUS
62
7
370
0
100
AcDbTrace
10
579.493910828
20
80
30
0
11
579.910195486
21
77.5
31
0
12
579.07762617
22
77.5
32
0
13
579.07762617
23
77.5
33
0
0
SOLID
5
C9
100
AcDbEntity
8
dimensioning
6
CONTINUOUS
62
7
370
0
100
AcDbTrace
10
579.493910828
20
0
30
0
11
579.07762617
21
2.5
31
0
12
579.910195486
22
2.5
32
0
13
579.910195486
23
2.5
33
0
0
MTEXT
5
CA
100
AcDbEntity
8
dimensioning
6
CONTINUOUS
62
7
370
0
100
AcDbMText
10
577.618910828
20
40
30
0
40
2.5
41
10.8333333333
71
5
72
1
1
end_y
7
standard
210
0
220
0
230
1
50
90
73
2
44
1
0
LINE
5
CB
100
AcDbEntity
8
dimensioning
6
CONTINUOUS
62
7
370
0
100
AcDbLine
10
639.375
20
80
11
578.243910828
21
80
0
LINE
5
CC
100
AcDbEntity
8
dimensioning
6
CONTINUOUS
62
7
370
0
100
AcDbLine
10
599.375
20
7.65404249467e-17
11
578.243910828
21
1.53080849893e-16
0
ENDBLK
5
4E
330
4C
100
AcDbEntity
8
0
100
AcDbBlockEnd
0
BLOCK
5
50
330
4F
100
AcDbEntity
8
0
100
AcDbBlockBegin
2
*D18
70
1
10
0
20
0
3
*D18
1

0
LINE
5
CD
100
AcDbEntity
8
dimensioning
6
CONTINUOUS
62
7
370
0
100
AcDbLine
10
0
20
-218.263235669
11
70
21
-218.263235669
0
SOLID
5
CE
100
AcDbEntity
8
dimensioning
6
CONTINUOUS
62
7
370
0
100
AcDbTrace
10
0
20
-218.263235669
30
0
11
2.5
21
-217.846951011
31
0
12
2.5
22
-218.679520327
32
0
13
2.5
23
-218.679520327
33
0
0
SOLID
5
CF
100
AcDbEntity
8
dimensioning
6
CONTINUOUS
62
7
370
0
100
AcDbTrace
10
70
20
-218.263235669
30
0
11
67.5
21
-218.679520327
31
0
12
67.5
22
-217.846951011
32
0
13
67.5
23
-217.846951011
33
0
0
MTEXT
5
D0
100
AcDbEntity
8
dimensioning
6
CONTINUOUS
62
7
370
0
100
AcDbMText
10
35
20
-216.388235669
30
0
40
2.5
41
10.8333333333
71
5
72
1
1
end_x
7
standard
210
0
220
0
230
1
50
0
73
2
44
1
0
LINE
5
D1
100
AcDbEntity
8
dimensioning
6
CONTINUOUS
62
7
370
0
100
AcDbLine
10
-1.1481063742e-16
20
-200.625
11
-2.2962127484e-16
21
-219.513235669
0
LINE
5
D2
100
AcDbEntity
8
dimensioning
6
CONTINUOUS
62
7
370
0
100
AcDbLine
10
70
20
-180.625
11
70
21
-219.513235669
0
ENDBLK
5
51
330
4F
100
AcDbEntity
8
0
100
AcDbBlockEnd
0
BLOCK
5
53
330
52
100
AcDbEntity
8
0
100
AcDbBlockBegin
2
*D26
70
1
10
0
20
0
3
*D26
1

0
LINE
5
D3
100
AcDbEntity
8
dimensioning
6
CONTINUOUS
62
7
370
0
100
AcDbLine
10
440
20
-212.175490446
11
400
21
-212.175490446
0
SOLID
5
D4
100
AcDbEntity
8
dimensioning
6
CONTINUOUS
62
7
370
0
100
AcDbTrace
10
440
20
-212.175490446
30
0
11
437.5
21
-212.591775104
31
0
12
437.5
22
-211.759205788
32
0
13
437.5
23
-211.759205788
33
0
0
SOLID
5
D5
100
AcDbEntity
8
dimensioning
6
CONTINUOUS
62
7
370
0
100
AcDbTrace
10
400
20
-212.175490446
30
0
11
402.5
21
-211.759205788
31
0
12
402.5
22
-212.591775104
32
0
13
402.5
23
-212.591775104
33
0
0
MTEXT
5
D6
100
AcDbEntity
8
dimensioning
6
CONTINUOUS
62
7
370
0
100
AcDbMText
10
420
20
-210.300490446
30
0
40
2.5
41
13.889841319
71
5
72
1
1
start_x
7
standard
210
0
220
0
230
1
50
360
73
2
44
1
0
LINE
5
D7
100
AcDbEntity
8
dimensioning
6
CONTINUOUS
62
7
370
0
100
AcDbLine
10
440
20
-120.625
11
440
21
-213.425490446
0
LINE
5
D8
100
AcDbEntity
8
dimensioning
6
CONTINUOUS
62
7
370
0
100
AcDbLine
10
400
20
-200.625
11
400
21
-213.425490446
0
ENDBLK
5
54
330
52
100
AcDbEntity
8
0
100
AcDbBlockEnd
0
BLOCK
5
56
330
55
100
AcDbEntity
8
0
100
AcDbBlockBegin
2
*D14
70
1
10
0
20
0
3
*D14
1

0
LINE
5
D9
100
AcDbEntity
8
dimensioning
6
CONTINUOUS
62
7
370
0
100
AcDbLine
10
640
20
-12.1754904459
11
600
21
-12.1754904459
0
SOLID
5
DA
100
AcDbEntity
8
dimensioning
6
CONTINUOUS
62
7
370
0
100
AcDbTrace
10
640
20
-12.1754904459
30
0
11
637.5
21
-12.5917751037
31
0
12
637.5
22
-11.7592057881
32
0
13
637.5
23
-11.7592057881
33
0
0
SOLID
5
DB
100
AcDbEntity
8
dimensioning
6
CONTINUOUS
62
7
370
0
100
AcDbTrace
10
600
20
-12.1754904459
30
0
11
602.5
21
-11.7592057881
31
0
12
602.5
22
-12.5917751037
32
0
13
602.5
23
-12.5917751037
33
0
0
MTEXT
5
DC
100
AcDbEntity
8
dimensioning
6
CONTINUOUS
62
7
370
0
100
AcDbMText
10
620
20
-10.3004904459
30
0
40
2.5
41
10.8333333333
71
5
72
1
1
end_x
7
standard
210
0
220
0
230
1
50
360
73
2
44
1
0
LINE
5
DD
100
AcDbEntity
8
dimensioning
6
CONTINUOUS
62
7
370
0
100
AcDbLine
10
640
20
79.375
11
640
21
-13.4254904459
0
LINE
5
DE
100
AcDbEntity
8
dimensioning
6
CONTINUOUS
62
7
370
0
100
AcDbLine
10
600
20
-0.625
11
600
21
-13.4254904459
0
ENDBLK
5
57
330
55
100
AcDbEntity
8
0
100
AcDbBlockEnd
0
BLOCK
5
59
330
58
100
AcDbEntity
8
0
100
AcDbBlockBegin
2
*D39
70
1
10
0
20
0
3
*D39
1

0
LINE
5
DF
100
AcDbEntity
8
dimensioning
6
CONTINUOUS
62
7
370
0
100
AcDbLine
10
245.172723926
20
-169.34150004
11
244.072785784
21
-171.480032486
0
SOLID
5
E0
100
AcDbEntity
8
dimensioning
6
CONTINUOUS
62
7
370
0
100
AcDbTrace
10
245.172723926
20
-169.34150004
30
0
11
244.39944236
21
-171.755071778
31
0
12
243.659065726
22
-171.374264603
32
0
13
243.659065726
23
-171.374264603
33
0
0
ENDBLK
5
5A
330
58
100
AcDbEntity
8
0
100
AcDbBlockEnd
0
BLOCK
5
5C
330
5B
100
AcDbEntity
8
0
100
AcDbBlockBegin
2
*D36
70
1
10
0
20
0
3
*D36
1

0
LINE
5
E1
100
AcDbEntity
8
dimensioning
6
CONTINUOUS
62
7
370
0
100
AcDbLine
10
664.827276074
20
69.3415000398
11
665.927214216
21
71.4800324858
0
SOLID
5
E2
100
AcDbEntity
8
dimensioning
6
CONTINUOUS
62
7
370
0
100
AcDbTrace
10
664.827276074
20
69.3415000398
30
0
11
665.60055764
21
71.7550717782
31
0
12
666.340934274
22
71.3742646032
32
0
13
666.340934274
23
71.3742646032
33
0
0
ENDBLK
5
5D
330
5B
100
AcDbEntity
8
0
100
AcDbBlockEnd
0
BLOCK
5
5F
330
5E
100
AcDbEntity
8
0
100
AcDbBlockBegin
2
*D12
70
1
10
0
20
0
3
*D12
1

0
LINE
5
E3
100
AcDbEntity
8
dimensioning
6
CONTINUOUS
62
7
370
0
100
AcDbLine
10
379.493910828
20
80
11
379.493910828
21
0
0
SOLID
5
E4
100
AcDbEntity
8
dimensioning
6
CONTINUOUS
62
7
370
0
100
AcDbTrace
10
379.493910828
20
80
30
0
11
379.910195486
21
77.5
31
0
12
379.07762617
22
77.5
32
0
13
379.07762617
23
77.5
33
0
0
SOLID
5
E5
100
AcDbEntity
8
dimensioning
6
CONTINUOUS
62
7
370
0
100
AcDbTrace
10
379.493910828
20
0
30
0
11
379.07762617
21
2.5
31
0
12
379.910195486
22
2.5
32
0
13
379.910195486
23
2.5
33
0
0
MTEXT
5
E6
100
AcDbEntity
8
dimensioning
6
CONTINUOUS
62
7
370
0
100
AcDbMText
10
377.618910828
20
40
30
0
40
2.5
41
10.8333333333
71
5
72
1
1
end_y
7
standard
210
0
220
0
230
1
50
90
73
2
44
1
0
LINE
5
E7
100
AcDbEntity
8
dimensioning
6
CONTINUOUS
62
7
370
0
100
AcDbLine
10
439.375
20
80
11
378.243910828
21
80
0
LINE
5
E8
100
AcDbEntity
8
dimensioning
6
CONTINUOUS
62
7
370
0
100
AcDbLine
10
399.375
20
7.65404249467e-17
11
378.243910828
21
1.53080849893e-16
0
ENDBLK
5
60
330
5E
100
AcDbEntity
8
0
100
AcDbBlockEnd
0
BLOCK
5
62
330
61
100
AcDbEntity
8
0
100
AcDbBlockBegin
2
*D10
70
1
10
0
20
0
3
*D10
1

0
LINE
5
E9
100
AcDbEntity
8
dimensioning
6
CONTINUOUS
62
7
370
0
100
AcDbLine
10
440
20
-12.1754904459
11
400
21
-12.1754904459
0
SOLID
5
EA
100
AcDbEntity
8
dimensioning
6
CONTINUOUS
62
7
370
0
100
AcDbTrace
10
440
20
-12.1754904459
30
0
11
437.5
21
-12.5917751037
31
0
12
437.5
22
-11.7592057881
32
0
13
437.5
23
-11.7592057881
33
0
0
SOLID
5
EB
100
AcDbEntity
8
dimensioning
6
CONTINUOUS
62
7
370
0
100
AcDbTrace
10
400
20
-12.1754904459
30
0
11
402.5
21
-11.7592057881
31
0
12
402.5
22
-12.5917751037
32
0
13
402.5
23
-12.5917751037
33
0
0
MTEXT
5
EC
100
AcDbEntity
8
dimensioning
6
CONTINUOUS
62
7
370
0
100
AcDbMText
10
420
20
-10.3004904459
30
0
40
2.5
41
10.8333333333
71
5
72
1
1
end_x
7
standard
210
0
220
0
230
1
50
360
73
2
44
1
0
LINE
5
ED
100
AcDbEntity
8
dimensioning
6
CONTINUOUS
62
7
370
0
100
AcDbLine
10
440
20
79.375
11
440
21
-13.4254904459
0
LINE
5
EE
100
AcDbEntity
8
dimensioning
6
CONTINUOUS
62
7
370
0
100
AcDbLine
10
400
20
-0.625
11
400
21
-13.4254904459
0
ENDBLK
5
63
330
61
100
AcDbEntity
8
0
100
AcDbBlockEnd
0
BLOCK
5
65
330
64
100
AcDbEntity
8
0
100
AcDbBlockBegin
2
*D17
70
1
10
0
20
0
3
*D17
1

0
LINE
5
EF
100
AcDbEntity
8
dimensioning
6
CONTINUOUS
62
7
370
0
100
AcDbLine
10
40
20
-212.175490446
11
0
21
-212.175490446
0
SOLID
5
F0
100
AcDbEntity
8
dimensioning
6
CONTINUOUS
62
7
370
0
100
AcDbTrace
10
40
20
-212.175490446
30
0
11
37.5
21
-212.591775104
31
0
12
37.5
22
-211.759205788
32
0
13
37.5
23
-211.759205788
33
0
0
SOLID
5
F1
100
AcDbEntity
8
dimensioning
6
CONTINUOUS
62
7
370
0
100
AcDbTrace
10
0
20
-212.175490446
30
0
11
2.5
21
-211.759205788
31
0
12
2.5
22
-212.591775104
32
0
13
2.5
23
-212.591775104
33
0
0
MTEXT
5
F2
100
AcDbEntity
8
dimensioning
6
CONTINUOUS
62
7
370
0
100
AcDbMText
10
20
20
-210.300490446
30
0
40
2.5
41
13.889841319
71
5
72
1
1
start_x
7
standard
210
0
220
0
230
1
50
360
73
2
44
1
0
LINE
5
F3
100
AcDbEntity
8
dimensioning
6
CONTINUOUS
62
7
370
0
100
AcDbLine
10
40
20
-120.625
11
40
21
-213.425490446
0
LINE
5
F4
100
AcDbEntity
8
dimensioning
6
CONTINUOUS
62
7
370
0
100
AcDbLine
10
-1.1481063742e-16
20
-200.625
11
-2.2962127484e-16
21
-213.425490446
0
ENDBLK
5
66
330
64
100
AcDbEntity
8
0
100
AcDbBlockEnd
0
BLOCK
5
68
330
67
100
AcDbEntity
8
0
100
AcDbBlockBegin
2
*D38
70
1
10
0
20
0
3
*D38
1

0
LINE
5
F5
100
AcDbEntity
8
dimensioning
6
CONTINUOUS
62
7
370
0
100
AcDbLine
10
676.369256566
20
-153.74303372
11
674.030822507
21
-152.981358008
0
SOLID
5
F6
100
AcDbEntity
8
dimensioning
6
CONTINUOUS
62
7
370
0
100
AcDbTrace
10
676.369256566
20
-153.74303372
30
0
11
673.863249613
21
-153.364586806
31
0
12
674.121100959
22
-152.572952832
32
0
13
674.121100959
23
-152.572952832
33
0
0
ENDBLK
5
69
330
67
100
AcDbEntity
8
0
100
AcDbBlockEnd
0
BLOCK
5
6B
330
6A
100
AcDbEntity
8
0
100
AcDbBlockBegin
2
*D22
70
1
10
0
20
0
3
*D22
1

0
LINE
5
F7
100
AcDbEntity
8
dimensioning
6
CONTINUOUS
62
7
370
0
100
AcDbLine
10
240
20
-212.175490446
11
200
21
-212.175490446
0
SOLID
5
F8
100
AcDbEntity
8
dimensioning
6
CONTINUOUS
62
7
370
0
100
AcDbTrace
10
240
20
-212.175490446
30
0
11
237.5
21
-212.591775104
31
0
12
237.5
22
-211.759205788
32
0
13
237.5
23
-211.759205788
33
0
0
SOLID
5
F9
100
AcDbEntity
8
dimensioning
6
CONTINUOUS
62
7
370
0
100
AcDbTrace
10
200
20
-212.175490446
30
0
11
202.5
21
-211.759205788
31
0
12
202.5
22
-212.591775104
32
0
13
202.5
23
-212.591775104
33
0
0
MTEXT
5
FA
100
AcDbEntity
8
dimensioning
6
CONTINUOUS
62
7
370
0
100
AcDbMText
10
220
20
-210.300490446
30
0
40
2.5
41
13.889841319
71
5
72
1
1
start_x
7
standard
210
0
220
0
230
1
50
360
73
2
44
1
0
LINE
5
FB
100
AcDbEntity
8
dimensioning
6
CONTINUOUS
62
7
370
0
100
AcDbLine
10
240
20
-120.625
11
240
21
-213.425490446
0
LINE
5
FC
100
AcDbEntity
8
dimensioning
6
CONTINUOUS
62
7
370
0
100
AcDbLine
10
200
20
-200.625
11
200
21
-213.425490446
0
ENDBLK
5
6C
330
6A
100
AcDbEntity
8
0
100
AcDbBlockEnd
0
BLOCK
5
6E
330
6D
100
AcDbEntity
8
0
100
AcDbBlockBegin
2
*D30
70
1
10
0
20
0
3
*D30
1

0
LINE
5
FD
100
AcDbEntity
8
dimensioning
6
CONTINUOUS
62
7
370
0
100
AcDbLine
10
640
20
-212.175490446
11
600
21
-212.175490446
0
SOLID
5
FE
100
AcDbEntity
8
dimensioning
6
CONTINUOUS
62
7
370
0
100
AcDbTrace
10
640
20
-212.175490446
30
0
11
637.5
21
-212.591775104
31
0
12
637.5
22
-211.759205788
32
0
13
637.5
23
-211.759205788
33
0
0
SOLID
5
FF
100
AcDbEntity
8
dimensioning
6
CONTINUOUS
62
7
370
0
100
AcDbTrace
10
600
20
-212.175490446
30
0
11
602.5
21
-211.759205788
31
0
12
602.5
22
-212.591775104
32
0
13
602.5
23
-212.591775104
33
0
0
MTEXT
5
100
100
AcDbEntity
8
dimensioning
6
CONTINUOUS
62
7
370
0
100
AcDbMText
10
620
20
-210.300490446
30
0
40
2.5
41
13.889841319
71
5
72
1
1
start_x
7
standard
210
0
220
0
230
1
50
360
73
2
44
1
0
LINE
5
101
100
AcDbEntity
8
dimensioning
6
CONTINUOUS
62
7
370
0
100
AcDbLine
10
640
20
-120.625
11
640
21
-213.425490446
0
LINE
5
102
100
AcDbEntity
8
dimensioning
6
CONTINUOUS
62
7
370
0
100
AcDbLine
10
600
20
-200.625
11
600
21
-213.425490446
0
ENDBLK
5
6F
330
6D
100
AcDbEntity
8
0
100
AcDbBlockEnd
0
BLOCK
5
71
330
70
100
AcDbEntity
8
0
100
AcDbBlockBegin
2
*D40
70
1
10
0
20
0
3
*D40
1

0
LINE
5
103
100
AcDbEntity
8
dimensioning
6
CONTINUOUS
62
7
370
0
100
AcDbLine
10
45.1727239256
20
-169.34150004
11
44.0727857836
21
-171.480032486
0
SOLID
5
104
100
AcDbEntity
8
dimensioning
6
CONTINUOUS
62
7
370
0
100
AcDbTrace
10
45.1727239256
20
-169.34150004
30
0
11
44.39944236
21
-171.755071778
31
0
12
43.6590657257
22
-171.374264603
32
0
13
43.6590657257
23
-171.374264603
33
0
0
ENDBLK
5
72
330
70
100
AcDbEntity
8
0
100
AcDbBlockEnd
0
BLOCK
5
74
330
73
100
AcDbEntity
8
0
100
AcDbBlockBegin
2
*D25
70
1
10
0
20
0
3
*D25
1

0
LINE
5
105
100
AcDbEntity
8
dimensioning
6
CONTINUOUS
62
7
370
0
100
AcDbLine
10
400
20
-218.263235669
11
470
21
-218.263235669
0
SOLID
5
106
100
AcDbEntity
8
dimensioning
6
CONTINUOUS
62
7
370
0
100
AcDbTrace
10
400
20
-218.263235669
30
0
11
402.5
21
-217.846951011
31
0
12
402.5
22
-218.679520327
32
0
13
402.5
23
-218.679520327
33
0
0
SOLID
5
107
100
AcDbEntity
8
dimensioning
6
CONTINUOUS
62
7
370
0
100
AcDbTrace
10
470
20
-218.263235669
30
0
11
467.5
21
-218.679520327
31
0
12
467.5
22
-217.846951011
32
0
13
467.5
23
-217.846951011
33
0
0
MTEXT
5
108
100
AcDbEntity
8
dimensioning
6
CONTINUOUS
62
7
370
0
100
AcDbMText
10
435
20
-216.388235669
30
0
40
2.5
41
10.8333333333
71
5
72
1
1
end_x
7
standard
210
0
220
0
230
1
50
0
73
2
44
1
0
LINE
5
109
100
AcDbEntity
8
dimensioning
6
CONTINUOUS
62
7
370
0
100
AcDbLine
10
400
20
-200.625
11
400
21
-219.513235669
0
LINE
5
10A
100
AcDbEntity
8
dimensioning
6
CONTINUOUS
62
7
370
0
100
AcDbLine
10
470
20
-180.625
11
470
21
-219.513235669
0
ENDBLK
5
75
330
73
100
AcDbEntity
8
0
100
AcDbBlockEnd
0
BLOCK
5
77
330
76
100
AcDbEntity
8
0
100
AcDbBlockBegin
2
*D2
70
1
10
0
20
0
3
*D2
1

0
LINE
5
10B
100
AcDbEntity
8
dimensioning
6
CONTINUOUS
62
7
370
0
100
AcDbLine
10
40
20
-12.1754904459
11
0
21
-12.1754904459
0
SOLID
5
10C
100
AcDbEntity
8
dimensioning
6
CONTINUOUS
62
7
370
0
100
AcDbTrace
10
40
20
-12.1754904459
30
0
11
37.5
21
-12.5917751037
31
0
12
37.5
22
-11.7592057881
32
0
13
37.5
23
-11.7592057881
33
0
0
SOLID
5
10D
100
AcDbEntity
8
dimensioning
6
CONTINUOUS
62
7
370
0
100
AcDbTrace
10
0
20
-12.1754904459
30
0
11
2.5
21
-11.7592057881
31
0
12
2.5
22
-12.5917751037
32
0
13
2.5
23
-12.5917751037
33
0
0
MTEXT
5
10E
100
AcDbEntity
8
dimensioning
6
CONTINUOUS
62
7
370
0
100
AcDbMText
10
20
20
-10.3004904459
30
0
40
2.5
41
10.8333333333
71
5
72
1
1
end_x
7
standard
210
0
220
0
230
1
50
360
73
2
44
1
0
LINE
5
10F
100
AcDbEntity
8
dimensioning
6
CONTINUOUS
62
7
370
0
100
AcDbLine
10
40
20
79.375
11
40
21
-13.4254904459
0
LINE
5
110
100
AcDbEntity
8
dimensioning
6
CONTINUOUS
62
7
370
0
100
AcDbLine
10
-1.1481063742e-16
20
-0.625
11
-2.2962127484e-16
21
-13.4254904459
0
ENDBLK
5
78
330
76
100
AcDbEntity
8
0
100
AcDbBlockEnd
0
BLOCK
5
7A
330
79
100
AcDbEntity
8
0
100
AcDbBlockBegin
2
*D32
70
1
10
0
20
0
3
*D32
1

0
LINE
5
111
100
AcDbEntity
8
dimensioning
6
CONTINUOUS
62
7
370
0
100
AcDbLine
10
579.493910828
20
-120
11
579.493910828
21
-200
0
SOLID
5
112
100
AcDbEntity
8
dimensioning
6
CONTINUOUS
62
7
370
0
100
AcDbTrace
10
579.493910828
20
-120
30
0
11
579.910195486
21
-122.5
31
0
12
579.07762617
22
-122.5
32
0
13
579.07762617
23
-122.5
33
0
0
SOLID
5
113
100
AcDbEntity
8
dimensioning
6
CONTINUOUS
62
7
370
0
100
AcDbTrace
10
579.493910828
20
-200
30
0
11
579.07762617
21
-197.5
31
0
12
579.910195486
22
-197.5
32
0
13
579.910195486
23
-197.5
33
0
0
MTEXT
5
114
100
AcDbEntity
8
dimensioning
6
CONTINUOUS
62
7
370
0
100
AcDbMText
10
577.618910828
20
-160
30
0
40
2.5
41
13.889841319
71
5
72
1
1
start_y
7
standard
210
0
220
0
230
1
50
90
73
2
44
1
0
LINE
5
115
100
AcDbEntity
8
dimensioning
6
CONTINUOUS
62
7
370
0
100
AcDbLine
10
639.375
20
-120
11
578.243910828
21
-120
0
LINE
5
116
100
AcDbEntity
8
dimensioning
6
CONTINUOUS
62
7
370
0
100
AcDbLine
10
599.375
20
-200
11
578.243910828
21
-200
0
ENDBLK
5
7B
330
79
100
AcDbEntity
8
0
100
AcDbBlockEnd
0
BLOCK
5
7D
330
7C
100
AcDbEntity
8
0
100
AcDbBlockBegin
2
*D41
70
1
10
0
20
0
3
*D41
1

0
ENDBLK
5
7E
330
7C
100
AcDbEntity
8
0
100
AcDbBlockEnd
0
BLOCK
5
80
330
7F
100
AcDbEntity
8
0
100
AcDbBlockBegin
2
*D31
70
1
10
0
20
0
3
*D31
1

0
LINE
5
117
100
AcDbEntity
8
dimensioning
6
CONTINUOUS
62
7
370
0
100
AcDbLine
10
584.620433121
20
-180
11
584.620433121
21
-200
0
SOLID
5
118
100
AcDbEntity
8
dimensioning
6
CONTINUOUS
62
7
370
0
100
AcDbTrace
10
584.620433121
20
-180
30
0
11
585.036717779
21
-182.5
31
0
12
584.204148463
22
-182.5
32
0
13
584.204148463
23
-182.5
33
0
0
SOLID
5
119
100
AcDbEntity
8
dimensioning
6
CONTINUOUS
62
7
370
0
100
AcDbTrace
10
584.620433121
20
-200
30
0
11
584.204148463
21
-197.5
31
0
12
585.036717779
22
-197.5
32
0
13
585.036717779
23
-197.5
33
0
0
MTEXT
5
11A
100
AcDbEntity
8
dimensioning
6
CONTINUOUS
62
7
370
0
100
AcDbMText
10
582.745433121
20
-190
30
0
40
2.5
41
10.8333333333
71
5
72
1
1
end_y
7
standard
210
0
220
0
230
1
50
90
73
2
44
1
0
LINE
5
11B
100
AcDbEntity
8
dimensioning
6
CONTINUOUS
62
7
370
0
100
AcDbLine
10
669.375
20
-180
11
583.370433121
21
-180
0
LINE
5
11C
100
AcDbEntity
8
dimensioning
6
CONTINUOUS
62
7
370
0
100
AcDbLine
10
599.375
20
-200
11
583.370433121
21
-200
0
ENDBLK
5
81
330
7F
100
AcDbEntity
8
0
100
AcDbBlockEnd
0
BLOCK
5
83
330
82
100
AcDbEntity
8
0
100
AcDbBlockBegin
2
*D33
70
1
10
0
20
0
3
*D33
1

0
LINE
5
11D
100
AcDbEntity
8
dimensioning
6
CONTINUOUS
62
7
370
0
100
AcDbLine
10
33.6304343235
20
53.7430791643
11
35.9688683829
21
52.9814034525
0
SOLID
5
11E
100
AcDbEntity
8
dimensioning
6
CONTINUOUS
62
7
370
0
100
AcDbTrace
10
33.6304343235
20
53.7430791643
30
0
11
36.1364412768
21
53.3646322506
31
0
12
35.8785899305
22
52.5729982769
32
0
13
35.8785899305
23
52.5729982769
33
0
0
ENDBLK
5
84
330
82
100
AcDbEntity
8
0
100
AcDbBlockEnd
0
BLOCK
5
86
330
85
100
AcDbEntity
8
0
100
AcDbBlockBegin
2
*D28
70
1
10
0
20
0
3
*D28
1

0
LINE
5
11F
100
AcDbEntity
8
dimensioning
6
CONTINUOUS
62
7
370
0
100
AcDbLine
10
379.493910828
20
-120
11
379.493910828
21
-200
0
SOLID
5
120
100
AcDbEntity
8
dimensioning
6
CONTINUOUS
62
7
370
0
100
AcDbTrace
10
379.493910828
20
-120
30
0
11
379.910195486
21
-122.5
31
0
12
379.07762617
22
-122.5
32
0
13
379.07762617
23
-122.5
33
0
0
SOLID
5
121
100
AcDbEntity
8
dimensioning
6
CONTINUOUS
62
7
370
0
100
AcDbTrace
10
379.493910828
20
-200
30
0
11
379.07762617
21
-197.5
31
0
12
379.910195486
22
-197.5
32
0
13
379.910195486
23
-197.5
33
0
0
MTEXT
5
122
100
AcDbEntity
8
dimensioning
6
CONTINUOUS
62
7
370
0
100
AcDbMText
10
377.618910828
20
-160
30
0
40
2.5
41
13.889841319
71
5
72
1
1
start_y
7
standard
210
0
220
0
230
1
50
90
73
2
44
1
0
LINE
5
123
100
AcDbEntity
8
dimensioning
6
CONTINUOUS
62
7
370
0
100
AcDbLine
10
439.375
20
-120
11
378.243910828
21
-120
0
LINE
5
124
100
AcDbEntity
8
dimensioning
6
CONTINUOUS
62
7
370
0
100
AcDbLine
10
399.375
20
-200
11
378.243910828
21
-200
0
ENDBLK
5
87
330
85
100
AcDbEntity
8
0
100
AcDbBlockEnd
0
BLOCK
5
89
330
88
100
AcDbEntity
8
0
100
AcDbBlockBegin
2
*D9
70
1
10
0
20
0
3
*D9
1

0
LINE
5
125
100
AcDbEntity
8
dimensioning
6
CONTINUOUS
62
7
370
0
100
AcDbLine
10
400
20
-18.2632356688
11
470
21
-18.2632356688
0
SOLID
5
126
100
AcDbEntity
8
dimensioning
6
CONTINUOUS
62
7
370
0
100
AcDbTrace
10
400
20
-18.2632356688
30
0
11
402.5
21
-17.846951011
31
0
12
402.5
22
-18.6795203266
32
0
13
402.5
23
-18.6795203266
33
0
0
SOLID
5
127
100
AcDbEntity
8
dimensioning
6
CONTINUOUS
62
7
370
0
100
AcDbTrace
10
470
20
-18.2632356688
30
0
11
467.5
21
-18.6795203266
31
0
12
467.5
22
-17.846951011
32
0
13
467.5
23
-17.846951011
33
0
0
MTEXT
5
128
100
AcDbEntity
8
dimensioning
6
CONTINUOUS
62
7
370
0
100
AcDbMText
10
435
20
-16.3882356688
30
0
40
2.5
41
13.889841319
71
5
72
1
1
start_x
7
standard
210
0
220
0
230
1
50
0
73
2
44
1
0
LINE
5
129
100
AcDbEntity
8
dimensioning
6
CONTINUOUS
62
7
370
0
100
AcDbLine
10
400
20
-0.625
11
400
21
-19.5132356688
0
LINE
5
12A
100
AcDbEntity
8
dimensioning
6
CONTINUOUS
62
7
370
0
100
AcDbLine
10
470
20
19.375
11
470
21
-19.5132356688
0
ENDBLK
5
8A
330
88
100
AcDbEntity
8
0
100
AcDbBlockEnd
0
BLOCK
5
8C
330
8B
100
AcDbEntity
8
0
100
AcDbBlockBegin
2
*D20
70
1
10
0
20
0
3
*D20
1

0
LINE
5
12B
100
AcDbEntity
8
dimensioning
6
CONTINUOUS
62
7
370
0
100
AcDbLine
10
-20.506089172
20
-120
11
-20.506089172
21
-200
0
SOLID
5
12C
100
AcDbEntity
8
dimensioning
6
CONTINUOUS
62
7
370
0
100
AcDbTrace
10
-20.506089172
20
-120
30
0
11
-20.0898045142
21
-122.5
31
0
12
-20.9223738298
22
-122.5
32
0
13
-20.9223738298
23
-122.5
33
0
0
SOLID
5
12D
100
AcDbEntity
8
dimensioning
6
CONTINUOUS
62
7
370
0
100
AcDbTrace
10
-20.506089172
20
-200
30
0
11
-20.9223738298
21
-197.5
31
0
12
-20.0898045142
22
-197.5
32
0
13
-20.0898045142
23
-197.5
33
0
0
MTEXT
5
12E
100
AcDbEntity
8
dimensioning
6
CONTINUOUS
62
7
370
0
100
AcDbMText
10
-22.381089172
20
-160
30
0
40
2.5
41
13.889841319
71
5
72
1
1
start_y
7
standard
210
0
220
0
230
1
50
90
73
2
44
1
0
LINE
5
12F
100
AcDbEntity
8
dimensioning
6
CONTINUOUS
62
7
370
0
100
AcDbLine
10
39.375
20
-120
11
-21.756089172
21
-120
0
LINE
5
130
100
AcDbEntity
8
dimensioning
6
CONTINUOUS
62
7
370
0
100
AcDbLine
10
-0.625
20
-200
11
-21.756089172
21
-200
0
ENDBLK
5
8D
330
8B
100
AcDbEntity
8
0
100
AcDbBlockEnd
0
BLOCK
5
8F
330
8E
100
AcDbEntity
8
0
100
AcDbBlockBegin
2
*D35
70
1
10
0
20
0
3
*D35
1

0
LINE
5
131
100
AcDbEntity
8
dimensioning
6
CONTINUOUS
62
7
370
0
100
AcDbLine
10
464.827276074
20
69.3415000398
11
465.927214216
21
71.4800324858
0
SOLID
5
132
100
AcDbEntity
8
dimensioning
6
CONTINUOUS
62
7
370
0
100
AcDbTrace
10
464.827276074
20
69.3415000398
30
0
11
465.60055764
21
71.7550717782
31
0
12
466.340934274
22
71.3742646032
32
0
13
466.340934274
23
71.3742646032
33
0
0
ENDBLK
5
90
330
8E
100
AcDbEntity
8
0
100
AcDbBlockEnd
0
BLOCK
5
92
330
91
100
AcDbEntity
8
0
100
AcDbBlockBegin
2
*D11
70
1
10
0
20
0
3
*D11
1

0
LINE
5
133
100
AcDbEntity
8
dimensioning
6
CONTINUOUS
62
7
370
0
100
AcDbLine
10
384.620433121
20
20
11
384.620433121
21
0
0
SOLID
5
134
100
AcDbEntity
8
dimensioning
6
CONTINUOUS
62
7
370
0
100
AcDbTrace
10
384.620433121
20
20
30
0
11
385.036717779
21
17.5
31
0
12
384.204148463
22
17.5
32
0
13
384.204148463
23
17.5
33
0
0
SOLID
5
135
100
AcDbEntity
8
dimensioning
6
CONTINUOUS
62
7
370
0
100
AcDbTrace
10
384.620433121
20
0
30
0
11
384.204148463
21
2.5
31
0
12
385.036717779
22
2.5
32
0
13
385.036717779
23
2.5
33
0
0
MTEXT
5
136
100
AcDbEntity
8
dimensioning
6
CONTINUOUS
62
7
370
0
100
AcDbMText
10
382.745433121
20
10
30
0
40
2.5
41
13.889841319
71
5
72
1
1
start_y
7
standard
210
0
220
0
230
1
50
90
73
2
44
1
0
LINE
5
137
100
AcDbEntity
8
dimensioning
6
CONTINUOUS
62
7
370
0
100
AcDbLine
10
469.375
20
20
11
383.370433121
21
20
0
LINE
5
138
100
AcDbEntity
8
dimensioning
6
CONTINUOUS
62
7
370
0
100
AcDbLine
10
399.375
20
7.65404249467e-17
11
383.370433121
21
1.53080849893e-16
0
ENDBLK
5
93
330
91
100
AcDbEntity
8
0
100
AcDbBlockEnd
0
BLOCK
5
95
330
94
100
AcDbEntity
8
0
100
AcDbBlockBegin
2
*D13
70
1
10
0
20
0
3
*D13
1

0
LINE
5
139
100
AcDbEntity
8
dimensioning
6
CONTINUOUS
62
7
370
0
100
AcDbLine
10
600
20
-18.2632356688
11
670
21
-18.2632356688
0
SOLID
5
13A
100
AcDbEntity
8
dimensioning
6
CONTINUOUS
62
7
370
0
100
AcDbTrace
10
600
20
-18.2632356688
30
0
11
602.5
21
-17.846951011
31
0
12
602.5
22
-18.6795203266
32
0
13
602.5
23
-18.6795203266
33
0
0
SOLID
5
13B
100
AcDbEntity
8
dimensioning
6
CONTINUOUS
62
7
370
0
100
AcDbTrace
10
670
20
-18.2632356688
30
0
11
667.5
21
-18.6795203266
31
0
12
667.5
22
-17.846951011
32
0
13
667.5
23
-17.846951011
33
0
0
MTEXT
5
13C
100
AcDbEntity
8
dimensioning
6
CONTINUOUS
62
7
370
0
100
AcDbMText
10
635
20
-16.3882356688
30
0
40
2.5
41
13.889841319
71
5
72
1
1
start_x
7
standard
210
0
220
0
230
1
50
0
73
2
44
1
0
LINE
5
13D
100
AcDbEntity
8
dimensioning
6
CONTINUOUS
62
7
370
0
100
AcDbLine
10
600
20
-0.625
11
600
21
-19.5132356688
0
LINE
5
13E
100
AcDbEntity
8
dimensioning
6
CONTINUOUS
62
7
370
0
100
AcDbLine
10
670
20
19.375
11
670
21
-19.5132356688
0
ENDBLK
5
96
330
94
100
AcDbEntity
8
0
100
AcDbBlockEnd
0
BLOCK
5
98
330
97
100
AcDbEntity
8
0
100
AcDbBlockBegin
2
*D37
70
1
10
0
20
0
3
*D37
1

0
LINE
5
13F
100
AcDbEntity
8
dimensioning
6
CONTINUOUS
62
7
370
0
100
AcDbLine
10
476.368947456
20
-153.742988275
11
474.030513397
21
-152.981312563
0
SOLID
5
140
100
AcDbEntity
8
dimensioning
6
CONTINUOUS
62
7
370
0
100
AcDbTrace
10
476.368947456
20
-153.742988275
30
0
11
473.862940503
21
-153.364541361
31
0
12
474.120791849
22
-152.572907387
32
0
13
474.120791849
23
-152.572907387
33
0
0
ENDBLK
5
99
330
97
100
AcDbEntity
8
0
100
AcDbBlockEnd
0
BLOCK
5
9B
330
9A
100
AcDbEntity
8
0
100
AcDbBlockBegin
2
*D29
70
1
10
0
20
0
3
*D29
1

0
LINE
5
141
100
AcDbEntity
8
dimensioning
6
CONTINUOUS
62
7
370
0
100
AcDbLine
10
600
20
-218.263235669
11
670
21
-218.263235669
0
SOLID
5
142
100
AcDbEntity
8
dimensioning
6
CONTINUOUS
62
7
370
0
100
AcDbTrace
10
600
20
-218.263235669
30
0
11
602.5
21
-217.846951011
31
0
12
602.5
22
-218.679520327
32
0
13
602.5
23
-218.679520327
33
0
0
SOLID
5
143
100
AcDbEntity
8
dimensioning
6
CONTINUOUS
62
7
370
0
100
AcDbTrace
10
670
20
-218.263235669
30
0
11
667.5
21
-218.679520327
31
0
12
667.5
22
-217.846951011
32
0
13
667.5
23
-217.846951011
33
0
0
MTEXT
5
144
100
AcDbEntity
8
dimensioning
6
CONTINUOUS
62
7
370
0
100
AcDbMText
10
635
20
-216.388235669
30
0
40
2.5
41
10.8333333333
71
5
72
1
1
end_x
7
standard
210
0
220
0
230
1
50
0
73
2
44
1
0
LINE
5
145
100
AcDbEntity
8
dimensioning
6
CONTINUOUS
62
7
370
0
100
AcDbLine
10
600
20
-200.625
11
600
21
-219.513235669
0
LINE
5
146
100
AcDbEntity
8
dimensioning
6
CONTINUOUS
62
7
370
0
100
AcDbLine
10
670
20
-180.625
11
670
21
-219.513235669
0
ENDBLK
5
9C
330
9A
100
AcDbEntity
8
0
100
AcDbBlockEnd
0
BLOCK
5
9E
330
9D
100
AcDbEntity
8
0
100
AcDbBlockBegin
2
*D4
70
1
10
0
20
0
3
*D4
1

0
LINE
5
147
100
AcDbEntity
8
dimensioning
6
CONTINUOUS
62
7
370
0
100
AcDbLine
10
-20.506089172
20
80
11
-20.506089172
21
1.45704527e-15
0
SOLID
5
148
100
AcDbEntity
8
dimensioning
6
CONTINUOUS
62
7
370
0
100
AcDbTrace
10
-20.506089172
20
80
30
0
11
-20.0898045142
21
77.5
31
0
12
-20.9223738298
22
77.5
32
0
13
-20.9223738298
23
77.5
33
0
0
SOLID
5
149
100
AcDbEntity
8
dimensioning
6
CONTINUOUS
62
7
370
0
100
AcDbTrace
10
-20.506089172
20
1.45704527e-15
30
0
11
-20.9223738298
21
2.5
31
0
12
-20.0898045142
22
2.5
32
0
13
-20.0898045142
23
2.5
33
0
0
MTEXT
5
14A
100
AcDbEntity
8
dimensioning
6
CONTINUOUS
62
7
370
0
100
AcDbMText
10
-22.381089172
20
40
30
0
40
2.5
41
10.8333333333
71
5
72
1
1
end_y
7
standard
210
0
220
0
230
1
50
90
73
2
44
1
0
LINE
5
14B
100
AcDbEntity
8
dimensioning
6
CONTINUOUS
62
7
370
0
100
AcDbLine
10
39.375
20
80
11
-21.756089172
21
80
0
LINE
5
14C
100
AcDbEntity
8
dimensioning
6
CONTINUOUS
62
7
370
0
100
AcDbLine
10
-0.625
20
7.65404249467e-17
11
-21.756089172
21
1.61012611989e-15
0
ENDBLK
5
9F
330
9D
100
AcDbEntity
8
0
100
AcDbBlockEnd
0
BLOCK
5
A1
330
A0
100
AcDbEntity
8
0
100
AcDbBlockBegin
2
*D8
70
1
10
0
20
0
3
*D8
1

0
LINE
5
14D
100
AcDbEntity
8
dimensioning
6
CONTINUOUS
62
7
370
0
100
AcDbLine
10
179.493910828
20
80
11
179.493910828
21
0
0
SOLID
5
14E
100
AcDbEntity
8
dimensioning
6
CONTINUOUS
62
7
370
0
100
AcDbTrace
10
179.493910828
20
80
30
0
11
179.910195486
21
77.5
31
0
12
179.07762617
22
77.5
32
0
13
179.07762617
23
77.5
33
0
0
SOLID
5
14F
100
AcDbEntity
8
dimensioning
6
CONTINUOUS
62
7
370
0
100
AcDbTrace
10
179.493910828
20
0
30
0
11
179.07762617
21
2.5
31
0
12
179.910195486
22
2.5
32
0
13
179.910195486
23
2.5
33
0
0
MTEXT
5
150
100
AcDbEntity
8
dimensioning
6
CONTINUOUS
62
7
370
0
100
AcDbMText
10
177.618910828
20
40
30
0
40
2.5
41
10.8333333333
71
5
72
1
1
end_y
7
standard
210
0
220
0
230
1
50
90
73
2
44
1
0
LINE
5
151
100
AcDbEntity
8
dimensioning
6
CONTINUOUS
62
7
370
0
100
AcDbLine
10
239.375
20
80
11
178.243910828
21
80
0
LINE
5
152
100
AcDbEntity
8
dimensioning
6
CONTINUOUS
62
7
370
0
100
AcDbLine
10
199.375
20
7.65404249467e-17
11
178.243910828
21
1.53080849893e-16
0
ENDBLK
5
A2
330
A0
100
AcDbEntity
8
0
100
AcDbBlockEnd
0
BLOCK
5
A4
330
A3
100
AcDbEntity
8
0
100
AcDbBlockBegin
2
*D7
70
1
10
0
20
0
3
*D7
1

0
LINE
5
153
100
AcDbEntity
8
dimensioning
6
CONTINUOUS
62
7
370
0
100
AcDbLine
10
184.620433121
20
20
11
184.620433121
21
0
0
SOLID
5
154
100
AcDbEntity
8
dimensioning
6
CONTINUOUS
62
7
370
0
100
AcDbTrace
10
184.620433121
20
20
30
0
11
185.036717779
21
17.5
31
0
12
184.204148463
22
17.5
32
0
13
184.204148463
23
17.5
33
0
0
SOLID
5
155
100
AcDbEntity
8
dimensioning
6
CONTINUOUS
62
7
370
0
100
AcDbTrace
10
184.620433121
20
0
30
0
11
184.204148463
21
2.5
31
0
12
185.036717779
22
2.5
32
0
13
185.036717779
23
2.5
33
0
0
MTEXT
5
156
100
AcDbEntity
8
dimensioning
6
CONTINUOUS
62
7
370
0
100
AcDbMText
10
182.745433121
20
10
30
0
40
2.5
41
13.889841319
71
5
72
1
1
start_y
7
standard
210
0
220
0
230
1
50
90
73
2
44
1
0
LINE
5
157
100
AcDbEntity
8
dimensioning
6
CONTINUOUS
62
7
370
0
100
AcDbLine
10
269.375
20
20
11
183.370433121
21
20
0
LINE
5
158
100
AcDbEntity
8
dimensioning
6
CONTINUOUS
62
7
370
0
100
AcDbLine
10
199.375
20
7.65404249467e-17
11
183.370433121
21
1.53080849893e-16
0
ENDBLK
5
A5
330
A3
100
AcDbEntity
8
0
100
AcDbBlockEnd
0
BLOCK
5
A7
330
A6
100
AcDbEntity
8
0
100
AcDbBlockBegin
2
*D1
70
1
10
0
20
0
3
*D1
1

0
LINE
5
159
100
AcDbEntity
8
dimensioning
6
CONTINUOUS
62
7
370
0
100
AcDbLine
10
0
20
-18.2632356688
11
70
21
-18.2632356688
0
SOLID
5
15A
100
AcDbEntity
8
dimensioning
6
CONTINUOUS
62
7
370
0
100
AcDbTrace
10
0
20
-18.2632356688
30
0
11
2.5
21
-17.846951011
31
0
12
2.5
22
-18.6795203266
32
0
13
2.5
23
-18.6795203266
33
0
0
SOLID
5
15B
100
AcDbEntity
8
dimensioning
6
CONTINUOUS
62
7
370
0
100
AcDbTrace
10
70
20
-18.2632356688
30
0
11
67.5
21
-18.6795203266
31
0
12
67.5
22
-17.846951011
32
0
13
67.5
23
-17.846951011
33
0
0
MTEXT
5
15C
100
AcDbEntity
8
dimensioning
6
CONTINUOUS
62
7
370
0
100
AcDbMText
10
35
20
-16.3882356688
30
0
40
2.5
41
13.889841319
71
5
72
1
1
start_x
7
standard
210
0
220
0
230
1
50
0
73
2
44
1
0
LINE
5
15D
100
AcDbEntity
8
dimensioning
6
CONTINUOUS
62
7
370
0
100
AcDbLine
10
-1.1481063742e-16
20
-0.625
11
-2.2962127484e-16
21
-19.5132356688
0
LINE
5
15E
100
AcDbEntity
8
dimensioning
6
CONTINUOUS
62
7
370
0
100
AcDbLine
10
70
20
19.375
11
70
21
-19.5132356688
0
ENDBLK
5
A8
330
A6
100
AcDbEntity
8
0
100
AcDbBlockEnd
0
BLOCK
5
AA
330
A9
100
AcDbEntity
8
0
100
AcDbBlockBegin
2
*D3
70
1
10
0
20
0
3
*D3
1

0
LINE
5
15F
100
AcDbEntity
8
dimensioning
6
CONTINUOUS
62
7
370
0
100
AcDbLine
10
-15.379566879
20
20
11
-15.379566879
21
8.19587964376e-16
0
SOLID
5
160
100
AcDbEntity
8
dimensioning
6
CONTINUOUS
62
7
370
0
100
AcDbTrace
10
-15.379566879
20
20
30
0
11
-14.9632822212
21
17.5
31
0
12
-15.7958515368
22
17.5
32
0
13
-15.7958515368
23
17.5
33
0
0
SOLID
5
161
100
AcDbEntity
8
dimensioning
6
CONTINUOUS
62
7
370
0
100
AcDbTrace
10
-15.379566879
20
8.19587964376e-16
30
0
11
-15.7958515368
21
2.5
31
0
12
-14.9632822212
22
2.5
32
0
13
-14.9632822212
23
2.5
33
0
0
MTEXT
5
162
100
AcDbEntity
8
dimensioning
6
CONTINUOUS
62
7
370
0
100
AcDbMText
10
-17.254566879
20
10
30
0
40
2.5
41
13.889841319
71
5
72
1
1
start_y
7
standard
210
0
220
0
230
1
50
90
73
2
44
1
0
LINE
5
163
100
AcDbEntity
8
dimensioning
6
CONTINUOUS
62
7
370
0
100
AcDbLine
10
69.375
20
20
11
-16.629566879
21
20
0
LINE
5
164
100
AcDbEntity
8
dimensioning
6
CONTINUOUS
62
7
370
0
100
AcDbLine
10
-0.625
20
7.65404249467e-17
11
-16.629566879
21
9.72668814269e-16
0
ENDBLK
5
AB
330
A9
100
AcDbEntity
8
0
100
AcDbBlockEnd
0
BLOCK
5
AD
330
AC
100
AcDbEntity
8
0
100
AcDbBlockBegin
2
*D21
70
1
10
0
20
0
3
*D21
1

0
LINE
5
165
100
AcDbEntity
8
dimensioning
6
CONTINUOUS
62
7
370
0
100
AcDbLine
10
200
20
-218.263235669
11
270
21
-218.263235669
0
SOLID
5
166
100
AcDbEntity
8
dimensioning
6
CONTINUOUS
62
7
370
0
100
AcDbTrace
10
200
20
-218.263235669
30
0
11
202.5
21
-217.846951011
31
0
12
202.5
22
-218.679520327
32
0
13
202.5
23
-218.679520327
33
0
0
SOLID
5
167
100
AcDbEntity
8
dimensioning
6
CONTINUOUS
62
7
370
0
100
AcDbTrace
10
270
20
-218.263235669
30
0
11
267.5
21
-218.679520327
31
0
12
267.5
22
-217.846951011
32
0
13
267.5
23
-217.846951011
33
0
0
MTEXT
5
168
100
AcDbEntity
8
dimensioning
6
CONTINUOUS
62
7
370
0
100
AcDbMText
10
235
20
-216.388235669
30
0
40
2.5
41
10.8333333333
71
5
72
1
1
end_x
7
standard
210
0
220
0
230
1
50
0
73
2
44
1
0
LINE
5
169
100
AcDbEntity
8
dimensioning
6
CONTINUOUS
62
7
370
0
100
AcDbLine
10
200
20
-200.625
11
200
21
-219.513235669
0
LINE
5
16A
100
AcDbEntity
8
dimensioning
6
CONTINUOUS
62
7
370
0
100
AcDbLine
10
270
20
-180.625
11
270
21
-219.513235669
0
ENDBLK
5
AE
330
AC
100
AcDbEntity
8
0
100
AcDbBlockEnd
0
BLOCK
5
B0
330
AF
100
AcDbEntity
8
0
100
AcDbBlockBegin
2
*D15
70
1
10
0
20
0
3
*D15
1

0
LINE
5
16B
100
AcDbEntity
8
dimensioning
6
CONTINUOUS
62
7
370
0
100
AcDbLine
10
584.620433121
20
20
11
584.620433121
21
0
0
SOLID
5
16C
100
AcDbEntity
8
dimensioning
6
CONTINUOUS
62
7
370
0
100
AcDbTrace
10
584.620433121
20
20
30
0
11
585.036717779
21
17.5
31
0
12
584.204148463
22
17.5
32
0
13
584.204148463
23
17.5
33
0
0
SOLID
5
16D
100
AcDbEntity
8
dimensioning
6
CONTINUOUS
62
7
370
0
100
AcDbTrace
10
584.620433121
20
0
30
0
11
584.204148463
21
2.5
31
0
12
585.036717779
22
2.5
32
0
13
585.036717779
23
2.5
33
0
0
MTEXT
5
16E
100
AcDbEntity
8
dimensioning
6
CONTINUOUS
62
7
370
0
100
AcDbMText
10
582.745433121
20
10
30
0
40
2.5
41
13.889841319
71
5
72
1
1
start_y
7
standard
210
0
220
0
230
1
50
90
73
2
44
1
0
LINE
5
16F
100
AcDbEntity
8
dimensioning
6
CONTINUOUS
62
7
370
0
100
AcDbLine
10
669.375
20
20
11
583.370433121
21
20
0
LINE
5
170
100
AcDbEntity
8
dimensioning
6
CONTINUOUS
62
7
370
0
100
AcDbLine
10
599.375
20
7.65404249467e-17
11
583.370433121
21
1.53080849893e-16
0
ENDBLK
5
B1
330
AF
100
AcDbEntity
8
0
100
AcDbBlockEnd
0
BLOCK
5
B3
330
B2
100
AcDbEntity
8
0
100
AcDbBlockBegin
2
*D24
70
1
10
0
20
0
3
*D24
1

0
LINE
5
171
100
AcDbEntity
8
dimensioning
6
CONTINUOUS
62
7
370
0
100
AcDbLine
10
179.493910828
20
-120
11
179.493910828
21
-200
0
SOLID
5
172
100
AcDbEntity
8
dimensioning
6
CONTINUOUS
62
7
370
0
100
AcDbTrace
10
179.493910828
20
-120
30
0
11
179.910195486
21
-122.5
31
0
12
179.07762617
22
-122.5
32
0
13
179.07762617
23
-122.5
33
0
0
SOLID
5
173
100
AcDbEntity
8
dimensioning
6
CONTINUOUS
62
7
370
0
100
AcDbTrace
10
179.493910828
20
-200
30
0
11
179.07762617
21
-197.5
31
0
12
179.910195486
22
-197.5
32
0
13
179.910195486
23
-197.5
33
0
0
MTEXT
5
174
100
AcDbEntity
8
dimensioning
6
CONTINUOUS
62
7
370
0
100
AcDbMText
10
177.618910828
20
-160
30
0
40
2.5
41
13.889841319
71
5
72
1
1
start_y
7
standard
210
0
220
0
230
1
50
90
73
2
44
1
0
LINE
5
175
100
AcDbEntity
8
dimensioning
6
CONTINUOUS
62
7
370
0
100
AcDbLine
10
239.375
20
-120
11
178.243910828
21
-120
0
LINE
5
176
100
AcDbEntity
8
dimensioning
6
CONTINUOUS
62
7
370
0
100
AcDbLine
10
199.375
20
-200
11
178.243910828
21
-200
0
ENDBLK
5
B4
330
B2
100
AcDbEntity
8
0
100
AcDbBlockEnd
0
BLOCK
5
B6
330
B5
100
AcDbEntity
8
0
100
AcDbBlockBegin
2
*D23
70
1
10
0
20
0
3
*D23
1

0
LINE
5
177
100
AcDbEntity
8
dimensioning
6
CONTINUOUS
62
7
370
0
100
AcDbLine
10
184.620433121
20
-180
11
184.620433121
21
-200
0
SOLID
5
178
100
AcDbEntity
8
dimensioning
6
CONTINUOUS
62
7
370
0
100
AcDbTrace
10
184.620433121
20
-180
30
0
11
185.036717779
21
-182.5
31
0
12
184.204148463
22
-182.5
32
0
13
184.204148463
23
-182.5
33
0
0
SOLID
5
179
100
AcDbEntity
8
dimensioning
6
CONTINUOUS
62
7
370
0
100
AcDbTrace
10
184.620433121
20
-200
30
0
11
184.204148463
21
-197.5
31
0
12
185.036717779
22
-197.5
32
0
13
185.036717779
23
-197.5
33
0
0
MTEXT
5
17A
100
AcDbEntity
8
dimensioning
6
CONTINUOUS
62
7
370
0
100
AcDbMText
10
182.745433121
20
-190
30
0
40
2.5
41
10.8333333333
71
5
72
1
1
end_y
7
standard
210
0
220
0
230
1
50
90
73
2
44
1
0
LINE
5
17B
100
AcDbEntity
8
dimensioning
6
CONTINUOUS
62
7
370
0
100
AcDbLine
10
269.375
20
-180
11
183.370433121
21
-180
0
LINE
5
17C
100
AcDbEntity
8
dimensioning
6
CONTINUOUS
62
7
370
0
100
AcDbLine
10
199.375
20
-200
11
183.370433121
21
-200
0
ENDBLK
5
B7
330
B5
100
AcDbEntity
8
0
100
AcDbBlockEnd
0
BLOCK
5
B9
330
B8
100
AcDbEntity
8
0
100
AcDbBlockBegin
2
*D34
70
1
10
0
20
0
3
*D34
1

0
LINE
5
17D
100
AcDbEntity
8
dimensioning
6
CONTINUOUS
62
7
370
0
100
AcDbLine
10
233.630434324
20
53.7430791643
11
235.968868383
21
52.9814034525
0
SOLID
5
17E
100
AcDbEntity
8
dimensioning
6
CONTINUOUS
62
7
370
0
100
AcDbTrace
10
233.630434324
20
53.7430791643
30
0
11
236.136441277
21
53.3646322505
31
0
12
235.878589931
22
52.5729982767
32
0
13
235.878589931
23
52.5729982767
33
0
0
ENDBLK
5
BA
330
B8
100
AcDbEntity
8
0
100
AcDbBlockEnd
0
BLOCK
5
BC
330
BB
100
AcDbEntity
8
0
100
AcDbBlockBegin
2
*D6
70
1
10
0
20
0
3
*D6
1

0
LINE
5
17F
100
AcDbEntity
8
dimensioning
6
CONTINUOUS
62
7
370
0
100
AcDbLine
10
240
20
-12.1754904459
11
200
21
-12.1754904459
0
SOLID
5
180
100
AcDbEntity
8
dimensioning
6
CONTINUOUS
62
7
370
0
100
AcDbTrace
10
240
20
-12.1754904459
30
0
11
237.5
21
-12.5917751037
31
0
12
237.5
22
-11.7592057881
32
0
13
237.5
23
-11.7592057881
33
0
0
SOLID
5
181
100
AcDbEntity
8
dimensioning
6
CONTINUOUS
62
7
370
0
100
AcDbTrace
10
200
20
-12.1754904459
30
0
11
202.5
21
-11.7592057881
31
0
12
202.5
22
-12.5917751037
32
0
13
202.5
23
-12.5917751037
33
0
0
MTEXT
5
182
100
AcDbEntity
8
dimensioning
6
CONTINUOUS
62
7
370
0
100
AcDbMText
10
220
20
-10.3004904459
30
0
40
2.5
41
10.8333333333
71
5
72
1
1
end_x
7
standard
210
0
220
0
230
1
50
360
73
2
44
1
0
LINE
5
183
100
AcDbEntity
8
dimensioning
6
CONTINUOUS
62
7
370
0
100
AcDbLine
10
240
20
79.375
11
240
21
-13.4254904459
0
LINE
5
184
100
AcDbEntity
8
dimensioning
6
CONTINUOUS
62
7
370
0
100
AcDbLine
10
200
20
-0.625
11
200
21
-13.4254904459
0
ENDBLK
5
BD
330
BB
100
AcDbEntity
8
0
100
AcDbBlockEnd
0
BLOCK
5
BF
330
BE
100
AcDbEntity
8
0
100
AcDbBlockBegin
2
*D27
70
1
10
0
20
0
3
*D27
1

0
LINE
5
185
100
AcDbEntity
8
dimensioning
6
CONTINUOUS
62
7
370
0
100
AcDbLine
10
384.620433121
20
-180
11
384.620433121
21
-200
0
SOLID
5
186
100
AcDbEntity
8
dimensioning
6
CONTINUOUS
62
7
370
0
100
AcDbTrace
10
384.620433121
20
-180
30
0
11
385.036717779
21
-182.5
31
0
12
384.204148463
22
-182.5
32
0
13
384.204148463
23
-182.5
33
0
0
SOLID
5
187
100
AcDbEntity
8
dimensioning
6
CONTINUOUS
62
7
370
0
100
AcDbTrace
10
384.620433121
20
-200
30
0
11
384.204148463
21
-197.5
31
0
12
385.036717779
22
-197.5
32
0
13
385.036717779
23
-197.5
33
0
0
MTEXT
5
188
100
AcDbEntity
8
dimensioning
6
CONTINUOUS
62
7
370
0
100
AcDbMText
10
382.745433121
20
-190
30
0
40
2.5
41
10.8333333333
71
5
72
1
1
end_y
7
standard
210
0
220
0
230
1
50
90
73
2
44
1
0
LINE
5
189
100
AcDbEntity
8
dimensioning
6
CONTINUOUS
62
7
370
0
100
AcDbLine
10
469.375
20
-180
11
383.370433121
21
-180
0
LINE
5
18A
100
AcDbEntity
8
dimensioning
6
CONTINUOUS
62
7
370
0
100
AcDbLine
10
399.375
20
-200
11
383.370433121
21
-200
0
ENDBLK
5
C0
330
BE
100
AcDbEntity
8
0
100
AcDbBlockEnd
0
BLOCK
5
C2
330
C1
100
AcDbEntity
8
0
100
AcDbBlockBegin
2
*D5
70
1
10
0
20
0
3
*D5
1

0
LINE
5
18B
100
AcDbEntity
8
dimensioning
6
CONTINUOUS
62
7
370
0
100
AcDbLine
10
200
20
-18.2632356688
11
270
21
-18.2632356688
0
SOLID
5
18C
100
AcDbEntity
8
dimensioning
6
CONTINUOUS
62
7
370
0
100
AcDbTrace
10
200
20
-18.2632356688
30
0
11
202.5
21
-17.846951011
31
0
12
202.5
22
-18.6795203266
32
0
13
202.5
23
-18.6795203266
33
0
0
SOLID
5
18D
100
AcDbEntity
8
dimensioning
6
CONTINUOUS
62
7
370
0
100
AcDbTrace
10
270
20
-18.2632356688
30
0
11
267.5
21
-18.6795203266
31
0
12
267.5
22
-17.846951011
32
0
13
267.5
23
-17.846951011
33
0
0
MTEXT
5
18E
100
AcDbEntity
8
dimensioning
6
CONTINUOUS
62
7
370
0
100
AcDbMText
10
235
20
-16.3882356688
30
0
40
2.5
41
13.889841319
71
5
72
1
1
start_x
7
standard
210
0
220
0
230
1
50
0
73
2
44
1
0
LINE
5
18F
100
AcDbEntity
8
dimensioning
6
CONTINUOUS
62
7
370
0
100
AcDbLine
10
200
20
-0.625
11
200
21
-19.5132356688
0
LINE
5
190
100
AcDbEntity
8
dimensioning
6
CONTINUOUS
62
7
370
0
100
AcDbLine
10
270
20
19.375
11
270
21
-19.5132356688
0
ENDBLK
5
C3
330
C1
100
AcDbEntity
8
0
100
AcDbBlockEnd
0
BLOCK
5
C5
330
C4
100
AcDbEntity
8
0
100
AcDbBlockBegin
2
*D19
70
1
10
0
20
0
3
*D19
1

0
LINE
5
191
100
AcDbEntity
8
dimensioning
6
CONTINUOUS
62
7
370
0
100
AcDbLine
10
-15.379566879
20
-180
11
-15.379566879
21
-200
0
SOLID
5
192
100
AcDbEntity
8
dimensioning
6
CONTINUOUS
62
7
370
0
100
AcDbTrace
10
-15.379566879
20
-180
30
0
11
-14.9632822212
21
-182.5
31
0
12
-15.7958515368
22
-182.5
32
0
13
-15.7958515368
23
-182.5
33
0
0
SOLID
5
193
100
AcDbEntity
8
dimensioning
6
CONTINUOUS
62
7
370
0
100
AcDbTrace
10
-15.379566879
20
-200
30
0
11
-15.7958515368
21
-197.5
31
0
12
-14.9632822212
22
-197.5
32
0
13
-14.9632822212
23
-197.5
33
0
0
MTEXT
5
194
100
AcDbEntity
8
dimensioning
6
CONTINUOUS
62
7
370
0
100
AcDbMText
10
-17.254566879
20
-190
30
0
40
2.5
41
10.8333333333
71
5
72
1
1
end_y
7
standard
210
0
220
0
230
1
50
90
73
2
44
1
0
LINE
5
195
100
AcDbEntity
8
dimensioning
6
CONTINUOUS
62
7
370
0
100
AcDbLine
10
69.375
20
-180
11
-16.629566879
21
-180
0
LINE
5
196
100
AcDbEntity
8
dimensioning
6
CONTINUOUS
62
7
370
0
100
AcDbLine
10
-0.625
20
-200
11
-16.629566879
21
-200
0
ENDBLK
5
C6
330
C4
100
AcDbEntity
8
0
100
AcDbBlockEnd
0
ENDSEC
0
SECTION
2
ENTITIES
0
LINE
5
197
100
AcDbEntity
8
axis
6
ByLayer
62
256
370
-1
100
AcDbLine
10
0
20
100
11
0
21
0
0
LINE
5
198
100
AcDbEntity
8
axis
6
ByLayer
62
256
370
-1
100
AcDbLine
10
0
20
0
11
100
21
0
0
LINE
5
199
100
AcDbEntity
8
axis
6
ByLayer
62
256
370
-1
100
AcDbLine
10
100
20
0
11
95.6699
21
2.5
0
LINE
5
19A
100
AcDbEntity
8
axis
6
ByLayer
62
256
370
-1
100
AcDbLine
10
100
20
0
11
95.6699
21
-2.5
0
MTEXT
5
19B
100
AcDbEntity
8
axis
6
ByLayer
62
256
370
-1
100
AcDbMText
10
102.760114059
20
0
30
0
40
5
41
3.33333333333
71
4
72
1
1
X
7
standard
210
0
220
0
230
1
50
0
73
2
44
1
0
MTEXT
5
19C
100
AcDbEntity
8
axis
6
ByLayer
62
256
370
-1
100
AcDbMText
10
0.041996471
20
102.177413029
30
0
40
5
41
3.33333333333
71
8
72
1
1
Y
7
standard
210
0
220
0
230
1
50
0
73
2
44
1
0
LINE
5
19D
100
AcDbEntity
8
axis
6
ByLayer
62
256
370
-1
100
AcDbLine
10
0
20
100
11
2.5
21
95.6699
0
LINE
5
19E
100
AcDbEntity
8
axis
6
ByLayer
62
256
370
-1
100
AcDbLine
10
0
20
100
11
-2.5
21
95.6699
0
POINT
5
19F
100
AcDbEntity
8
symbol_outline
6
ByLayer
62
256
370
-1
100
AcDbPoint
10
40
20
80
0
POINT
5
1A0
100
AcDbEntity
8
symbol_outline
6
ByLayer
62
256
370
-1
100
AcDbPoint
10
70
20
20
0
LINE
5
1A1
100
AcDbEntity
8
0
6
ByLayer
62
256
370
-1
100
AcDbLine
10
29.6473091096
20
37.3236545548
11
40
21
80
0
LINE
5
1A2
100
AcDbEntity
8
0
6
ByLayer
62
256
370
-1
100
AcDbLine
10
29.6473091096
20
37.3236545548
11
70
21
20
0
ARC
5
1A3
100
AcDbEntity
8
symbol_outline
6
ByLayer
62
256
370
-1
100
AcDbCircle
10
29.6473091096
20
37.3236545548
40
43.9141055838
100
AcDbArc
50
336.76585929
51
76.3642430642
0
ARC
5
1A4
100
AcDbEntity
8
0
6
ByLayer
62
256
370
-1
100
AcDbCircle
10
29.6473091096
20
37.3236545548
40
43.9141055838
100
AcDbArc
50
76.3642430642
51
336.76585929
0
MTEXT
5
1A5
100
AcDbEntity
8
text
6
ByLayer
62
256
370
-1
100
AcDbMText
10
37.3768588556
20
84.3604103665
30
0
40
3
41
6.66666666667
71
4
72
1
1
END
7
standard
210
0
220
0
230
1
50
0
73
2
44
1
0
MTEXT
5
1A6
100
AcDbEntity
8
text
6
ByLayer
62
256
370
-1
100
AcDbMText
10
72.9196530957
20
19.7678699618
30
0
40
3
41
12.6666660307
71
4
72
1
1
START
7
standard
210
0
220
0
230
1
50
0
73
2
44
1
0
DIMENSION
5
1A7
100
AcDbEntity
8
dimensioning
6
ByLayer
62
256
370
-1
100
AcDbDimension
2
*D1
10
70
20
-18.2632356688
30
0
11
35
21
-16.3882356688
31
0
70
32
1
start_x
71
5
72
0
3
Standard
53
0
210
0
220
0
230
1
100
AcDbAlignedDimension
13
0
23
0
33
0
14
70
24
20
34
0
100
AcDbRotatedDimension
0
DIMENSION
5
1A8
100
AcDbEntity
8
dimensioning
6
ByLayer
62
256
370
-1
100
AcDbDimension
2
*D2
10
-7.4553377013e-16
20
-12.1754904459
30
0
11
20
21
-10.3004904459
31
0
70
32
1
end_x
71
5
72
0
3
Standard
53
0
210
0
220
0
230
1
100
AcDbAlignedDimension
13
40
23
80
33
0
14
0
24
0
34
0
100
AcDbRotatedDimension
0
DIMENSION
5
1A9
100
AcDbEntity
8
dimensioning
6
ByLayer
62
256
370
-1
100
AcDbDimension
2
*D3
10
-15.379566879
20
1.88345373507e-15
30
0
11
-17.254566879
21
10
31
0
70
32
1
start_y
71
5
72
0
3
Standard
53
0
210
0
220
0
230
1
100
AcDbAlignedDimension
13
70
23
20
33
0
14
0
24
0
34
0
50
90
100
AcDbRotatedDimension
0
DIMENSION
5
1AA
100
AcDbEntity
8
dimensioning
6
ByLayer
62
256
370
-1
100
AcDbDimension
2
*D4
10
-20.506089172
20
2.51127164675e-15
30
0
11
-22.381089172
21
40
31
0
70
32
1
end_y
71
5
72
0
3
Standard
53
0
210
0
220
0
230
1
100
AcDbAlignedDimension
13
40
23
80
33
0
14
0
24
0
34
0
50
90
100
AcDbRotatedDimension
0
LINE
5
1AB
100
AcDbEntity
8
axis
6
ByLayer
62
256
370
-1
100
AcDbLine
10
200
20
100
11
200
21
0
0
LINE
5
1AC
100
AcDbEntity
8
axis
6
ByLayer
62
256
370
-1
100
AcDbLine
10
200
20
0
11
300
21
0
0
LINE
5
1AD
100
AcDbEntity
8
axis
6
ByLayer
62
256
370
-1
100
AcDbLine
10
300
20
0
11
295.6699
21
2.5
0
LINE
5
1AE
100
AcDbEntity
8
axis
6
ByLayer
62
256
370
-1
100
AcDbLine
10
300
20
0
11
295.6699
21
-2.5
0
MTEXT
5
1AF
100
AcDbEntity
8
axis
6
ByLayer
62
256
370
-1
100
AcDbMText
10
302.760114059
20
0
30
0
40
5
41
3.33333333333
71
4
72
1
1
X
7
standard
210
0
220
0
230
1
50
0
73
2
44
1
0
MTEXT
5
1B0
100
AcDbEntity
8
axis
6
ByLayer
62
256
370
-1
100
AcDbMText
10
200.041996471
20
102.177413029
30
0
40
5
41
3.33333333333
71
8
72
1
1
Y
7
standard
210
0
220
0
230
1
50
0
73
2
44
1
0
LINE
5
1B1
100
AcDbEntity
8
axis
6
ByLayer
62
256
370
-1
100
AcDbLine
10
200
20
100
11
202.5
21
95.6699
0
LINE
5
1B2
100
AcDbEntity
8
axis
6
ByLayer
62
256
370
-1
100
AcDbLine
10
200
20
100
11
197.5
21
95.6699
0
POINT
5
1B3
100
AcDbEntity
8
symbol_outline
6
ByLayer
62
256
370
-1
100
AcDbPoint
10
240
20
80
0
POINT
5
1B4
100
AcDbEntity
8
symbol_outline
6
ByLayer
62
256
370
-1
100
AcDbPoint
10
270
20
20
0
LINE
5
1B5
100
AcDbEntity
8
0
6
ByLayer
62
256
370
-1
100
AcDbLine
10
229.64730911
20
37.3236545548
11
240
21
80
0
LINE
5
1B6
100
AcDbEntity
8
0
6
ByLayer
62
256
370
-1
100
AcDbLine
10
229.64730911
20
37.3236545548
11
270
21
20
0
MTEXT
5
1B7
100
AcDbEntity
8
text
6
ByLayer
62
256
370
-1
100
AcDbMText
10
237.376858856
20
84.3604103665
30
0
40
3
41
6.66666666667
71
4
72
1
1
END
7
standard
210
0
220
0
230
1
50
0
73
2
44
1
0
MTEXT
5
1B8
100
AcDbEntity
8
text
6
ByLayer
62
256
370
-1
100
AcDbMText
10
272.919653096
20
19.7678699618
30
0
40
3
41
12.6666660307
71
4
72
1
1
START
7
standard
210
0
220
0
230
1
50
0
73
2
44
1
0
DIMENSION
5
1B9
100
AcDbEntity
8
dimensioning
6
ByLayer
62
256
370
-1
100
AcDbDimension
2
*D5
10
270
20
-18.2632356688
30
0
11
235
21
-16.3882356688
31
0
70
32
1
start_x
71
5
72
0
3
Standard
53
0
210
0
220
0
230
1
100
AcDbAlignedDimension
13
200
23
0
33
0
14
270
24
20
34
0
100
AcDbRotatedDimension
0
DIMENSION
5
1BA
100
AcDbEntity
8
dimensioning
6
ByLayer
62
256
370
-1
100
AcDbDimension
2
*D6
10
200
20
-12.1754904459
30
0
11
220
21
-10.3004904459
31
0
70
32
1
end_x
71
5
72
0
3
Standard
53
0
210
0
220
0
230
1
100
AcDbAlignedDimension
13
240
23
80
33
0
14
200
24
0
34
0
100
AcDbRotatedDimension
0
DIMENSION
5
1BB
100
AcDbEntity
8
dimensioning
6
ByLayer
62
256
370
-1
100
AcDbDimension
2
*D7
10
184.620433121
20
1.88345373507e-15
30
0
11
182.745433121
21
10
31
0
70
32
1
start_y
71
5
72
0
3
Standard
53
0
210
0
220
0
230
1
100
AcDbAlignedDimension
13
270
23
20
33
0
14
200
24
0
34
0
50
90
100
AcDbRotatedDimension
0
DIMENSION
5
1BC
100
AcDbEntity
8
dimensioning
6
ByLayer
62
256
370
-1
100
AcDbDimension
2
*D8
10
179.493910828
20
2.51127164675e-15
30
0
11
177.618910828
21
40
31
0
70
32
1
end_y
71
5
72
0
3
Standard
53
0
210
0
220
0
230
1
100
AcDbAlignedDimension
13
240
23
80
33
0
14
200
24
0
34
0
50
90
100
AcDbRotatedDimension
0
LINE
5
1BD
100
AcDbEntity
8
axis
6
ByLayer
62
256
370
-1
100
AcDbLine
10
400
20
100
11
400
21
0
0
LINE
5
1BE
100
AcDbEntity
8
axis
6
ByLayer
62
256
370
-1
100
AcDbLine
10
400
20
0
11
500
21
0
0
LINE
5
1BF
100
AcDbEntity
8
axis
6
ByLayer
62
256
370
-1
100
AcDbLine
10
500
20
0
11
495.6699
21
2.5
0
LINE
5
1C0
100
AcDbEntity
8
axis
6
ByLayer
62
256
370
-1
100
AcDbLine
10
500
20
0
11
495.6699
21
-2.5
0
MTEXT
5
1C1
100
AcDbEntity
8
axis
6
ByLayer
62
256
370
-1
100
AcDbMText
10
502.760114059
20
0
30
0
40
5
41
3.33333333333
71
4
72
1
1
X
7
standard
210
0
220
0
230
1
50
0
73
2
44
1
0
MTEXT
5
1C2
100
AcDbEntity
8
axis
6
ByLayer
62
256
370
-1
100
AcDbMText
10
400.041996471
20
102.177413029
30
0
40
5
41
3.33333333333
71
8
72
1
1
Y
7
standard
210
0
220
0
230
1
50
0
73
2
44
1
0
LINE
5
1C3
100
AcDbEntity
8
axis
6
ByLayer
62
256
370
-1
100
AcDbLine
10
400
20
100
11
402.5
21
95.6699
0
LINE
5
1C4
100
AcDbEntity
8
axis
6
ByLayer
62
256
370
-1
100
AcDbLine
10
400
20
100
11
397.5
21
95.6699
0
POINT
5
1C5
100
AcDbEntity
8
symbol_outline
6
ByLayer
62
256
370
-1
100
AcDbPoint
10
440
20
80
0
POINT
5
1C6
100
AcDbEntity
8
symbol_outline
6
ByLayer
62
256
370
-1
100
AcDbPoint
10
470
20
20
0
DIMENSION
5
1C7
100
AcDbEntity
8
dimensioning
6
ByLayer
62
256
370
-1
100
AcDbDimension
2
*D9
10
470
20
-18.2632356688
30
0
11
435
21
-16.3882356688
31
0
70
32
1
start_x
71
5
72
0
3
Standard
53
0
210
0
220
0
230
1
100
AcDbAlignedDimension
13
400
23
0
33
0
14
470
24
20
34
0
100
AcDbRotatedDimension
0
DIMENSION
5
1C8
100
AcDbEntity
8
dimensioning
6
ByLayer
62
256
370
-1
100
AcDbDimension
2
*D10
10
400
20
-12.1754904459
30
0
11
420
21
-10.3004904459
31
0
70
32
1
end_x
71
5
72
0
3
Standard
53
0
210
0
220
0
230
1
100
AcDbAlignedDimension
13
440
23
80
33
0
14
400
24
0
34
0
100
AcDbRotatedDimension
0
DIMENSION
5
1C9
100
AcDbEntity
8
dimensioning
6
ByLayer
62
256
370
-1
100
AcDbDimension
2
*D11
10
384.620433121
20
1.88345373507e-15
30
0
11
382.745433121
21
10
31
0
70
32
1
start_y
71
5
72
0
3
Standard
53
0
210
0
220
0
230
1
100
AcDbAlignedDimension
13
470
23
20
33
0
14
400
24
0
34
0
50
90
100
AcDbRotatedDimension
0
DIMENSION
5
1CA
100
AcDbEntity
8
dimensioning
6
ByLayer
62
256
370
-1
100
AcDbDimension
2
*D12
10
379.493910828
20
2.51127164675e-15
30
0
11
377.618910828
21
40
31
0
70
32
1
end_y
71
5
72
0
3
Standard
53
0
210
0
220
0
230
1
100
AcDbAlignedDimension
13
440
23
80
33
0
14
400
24
0
34
0
50
90
100
AcDbRotatedDimension
0
ARC
5
1CB
100
AcDbEntity
8
0
6
ByLayer
62
256
370
-1
100
AcDbCircle
10
229.64730911
20
37.3236545548
40
43.9141055838
100
AcDbArc
50
336.76585929
51
76.3642430642
0
ARC
5
1CC
100
AcDbEntity
8
symbol_outline
6
ByLayer
62
256
370
-1
100
AcDbCircle
10
229.64730911
20
37.3236545548
40
43.9141055838
100
AcDbArc
50
76.3642430642
51
336.76585929
0
LINE
5
1CD
100
AcDbEntity
8
0
6
ByLayer
62
256
370
-1
100
AcDbLine
10
480.35269089
20
62.6763454451
11
470
21
20
0
ARC
5
1CE
100
AcDbEntity
8
0
6
ByLayer
62
256
370
-1
100
AcDbCircle
10
0
20
0
40
0
100
AcDbArc
50
0
51
0
0
ARC
5
1CF
100
AcDbEntity
8
0
6
ByLayer
62
256
370
-1
100
AcDbCircle
10
480.35269089
20
62.6763454451
40
43.9141055838
100
AcDbArc
50
256.364243064
51
156.76585929
0
ARC
5
1D0
100
AcDbEntity
8
symbol_outline
6
ByLayer
62
256
370
-1
100
AcDbCircle
10
480.35269089
20
62.6763454451
40
43.9141055838
100
AcDbArc
50
156.76585929
51
256.364243064
0
MTEXT
5
1D1
100
AcDbEntity
8
text
6
ByLayer
62
256
370
-1
100
AcDbMText
10
471.896377071
20
14.3542624204
30
0
40
3
41
12.6666660307
71
4
72
1
1
START
7
standard
210
0
220
0
230
1
50
0
73
2
44
1
0
LINE
5
1D2
100
AcDbEntity
8
axis
6
ByLayer
62
256
370
-1
100
AcDbLine
10
600
20
100
11
600
21
0
0
LINE
5
1D3
100
AcDbEntity
8
axis
6
ByLayer
62
256
370
-1
100
AcDbLine
10
600
20
0
11
700
21
0
0
LINE
5
1D4
100
AcDbEntity
8
axis
6
ByLayer
62
256
370
-1
100
AcDbLine
10
700
20
0
11
695.6699
21
2.5
0
LINE
5
1D5
100
AcDbEntity
8
axis
6
ByLayer
62
256
370
-1
100
AcDbLine
10
700
20
0
11
695.6699
21
-2.5
0
MTEXT
5
1D6
100
AcDbEntity
8
axis
6
ByLayer
62
256
370
-1
100
AcDbMText
10
702.760114059
20
0
30
0
40
5
41
3.33333333333
71
4
72
1
1
X
7
standard
210
0
220
0
230
1
50
0
73
2
44
1
0
MTEXT
5
1D7
100
AcDbEntity
8
axis
6
ByLayer
62
256
370
-1
100
AcDbMText
10
600.041996471
20
102.177413029
30
0
40
5
41
3.33333333333
71
8
72
1
1
Y
7
standard
210
0
220
0
230
1
50
0
73
2
44
1
0
LINE
5
1D8
100
AcDbEntity
8
axis
6
ByLayer
62
256
370
-1
100
AcDbLine
10
600
20
100
11
602.5
21
95.6699
0
LINE
5
1D9
100
AcDbEntity
8
axis
6
ByLayer
62
256
370
-1
100
AcDbLine
10
600
20
100
11
597.5
21
95.6699
0
POINT
5
1DA
100
AcDbEntity
8
symbol_outline
6
ByLayer
62
256
370
-1
100
AcDbPoint
10
640
20
80
0
POINT
5
1DB
100
AcDbEntity
8
symbol_outline
6
ByLayer
62
256
370
-1
100
AcDbPoint
10
670
20
20
0
DIMENSION
5
1DC
100
AcDbEntity
8
dimensioning
6
ByLayer
62
256
370
-1
100
AcDbDimension
2
*D13
10
670
20
-18.2632356688
30
0
11
635
21
-16.3882356688
31
0
70
32
1
start_x
71
5
72
0
3
Standard
53
0
210
0
220
0
230
1
100
AcDbAlignedDimension
13
600
23
0
33
0
14
670
24
20
34
0
100
AcDbRotatedDimension
0
DIMENSION
5
1DD
100
AcDbEntity
8
dimensioning
6
ByLayer
62
256
370
-1
100
AcDbDimension
2
*D14
10
600
20
-12.1754904459
30
0
11
620
21
-10.3004904459
31
0
70
32
1
end_x
71
5
72
0
3
Standard
53
0
210
0
220
0
230
1
100
AcDbAlignedDimension
13
640
23
80
33
0
14
600
24
0
34
0
100
AcDbRotatedDimension
0
DIMENSION
5
1DE
100
AcDbEntity
8
dimensioning
6
ByLayer
62
256
370
-1
100
AcDbDimension
2
*D15
10
584.620433121
20
1.88345373507e-15
30
0
11
582.745433121
21
10
31
0
70
32
1
start_y
71
5
72
0
3
Standard
53
0
210
0
220
0
230
1
100
AcDbAlignedDimension
13
670
23
20
33
0
14
600
24
0
34
0
50
90
100
AcDbRotatedDimension
0
DIMENSION
5
1DF
100
AcDbEntity
8
dimensioning
6
ByLayer
62
256
370
-1
100
AcDbDimension
2
*D16
10
579.493910828
20
2.51127164675e-15
30
0
11
577.618910828
21
40
31
0
70
32
1
end_y
71
5
72
0
3
Standard
53
0
210
0
220
0
230
1
100
AcDbAlignedDimension
13
640
23
80
33
0
14
600
24
0
34
0
50
90
100
AcDbRotatedDimension
0
LINE
5
1E0
100
AcDbEntity
8
0
6
ByLayer
62
256
370
-1
100
AcDbLine
10
680.35269089
20
62.6763454451
11
640
21
80
0
LINE
5
1E1
100
AcDbEntity
8
0
6
ByLayer
62
256
370
-1
100
AcDbLine
10
680.35269089
20
62.6763454451
11
670
21
20
0
MTEXT
5
1E2
100
AcDbEntity
8
text
6
ByLayer
62
256
370
-1
100
AcDbMText
10
671.896377071
20
14.3542624204
30
0
40
3
41
12.6666660307
71
4
72
1
1
START
7
standard
210
0
220
0
230
1
50
0
73
2
44
1
0
ARC
5
1E3
100
AcDbEntity
8
symbol_outline
6
ByLayer
62
256
370
-1
100
AcDbCircle
10
680.35269089
20
62.6763454451
40
43.9141055838
100
AcDbArc
50
256.364243064
51
156.76585929
0
ARC
5
1E4
100
AcDbEntity
8
0
6
ByLayer
62
256
370
-1
100
AcDbCircle
10
680.35269089
20
62.6763454451
40
43.9141055838
100
AcDbArc
50
156.76585929
51
256.364243064
0
LINE
5
1E5
100
AcDbEntity
8
axis
6
ByLayer
62
256
370
-1
100
AcDbLine
10
0
20
-100
11
0
21
-200
0
LINE
5
1E6
100
AcDbEntity
8
axis
6
ByLayer
62
256
370
-1
100
AcDbLine
10
0
20
-200
11
100
21
-200
0
LINE
5
1E7
100
AcDbEntity
8
axis
6
ByLayer
62
256
370
-1
100
AcDbLine
10
100
20
-200
11
95.6699
21
-197.5
0
LINE
5
1E8
100
AcDbEntity
8
axis
6
ByLayer
62
256
370
-1
100
AcDbLine
10
100
20
-200
11
95.6699
21
-202.5
0
MTEXT
5
1E9
100
AcDbEntity
8
axis
6
ByLayer
62
256
370
-1
100
AcDbMText
10
102.760114059
20
-200
30
0
40
5
41
3.33333333333
71
4
72
1
1
X
7
standard
210
0
220
0
230
1
50
0
73
2
44
1
0
MTEXT
5
1EA
100
AcDbEntity
8
axis
6
ByLayer
62
256
370
-1
100
AcDbMText
10
0.041996471
20
-97.822586971
30
0
40
5
41
3.33333333333
71
8
72
1
1
Y
7
standard
210
0
220
0
230
1
50
0
73
2
44
1
0
LINE
5
1EB
100
AcDbEntity
8
axis
6
ByLayer
62
256
370
-1
100
AcDbLine
10
0
20
-100
11
2.5
21
-104.3301
0
LINE
5
1EC
100
AcDbEntity
8
axis
6
ByLayer
62
256
370
-1
100
AcDbLine
10
0
20
-100
11
-2.5
21
-104.3301
0
POINT
5
1ED
100
AcDbEntity
8
symbol_outline
6
ByLayer
62
256
370
-1
100
AcDbPoint
10
40
20
-120
0
POINT
5
1EE
100
AcDbEntity
8
symbol_outline
6
ByLayer
62
256
370
-1
100
AcDbPoint
10
70
20
-180
0
LINE
5
1EF
100
AcDbEntity
8
0
6
ByLayer
62
256
370
-1
100
AcDbLine
10
29.6473091096
20
-162.676345445
11
40
21
-120
0
LINE
5
1F0
100
AcDbEntity
8
0
6
ByLayer
62
256
370
-1
100
AcDbLine
10
29.6473091096
20
-162.676345445
11
70
21
-180
0
ARC
5
1F1
100
AcDbEntity
8
symbol_outline
6
ByLayer
62
256
370
-1
100
AcDbCircle
10
29.6473091096
20
-162.676345445
40
43.9141055838
100
AcDbArc
50
336.76585929
51
76.3642430642
0
ARC
5
1F2
100
AcDbEntity
8
0
6
ByLayer
62
256
370
-1
100
AcDbCircle
10
29.6473091096
20
-162.676345445
40
43.9141055838
100
AcDbArc
50
76.3642430642
51
336.76585929
0
LINE
5
1F3
100
AcDbEntity
8
axis
6
ByLayer
62
256
370
-1
100
AcDbLine
10
200
20
-100
11
200
21
-200
0
LINE
5
1F4
100
AcDbEntity
8
axis
6
ByLayer
62
256
370
-1
100
AcDbLine
10
200
20
-200
11
300
21
-200
0
LINE
5
1F5
100
AcDbEntity
8
axis
6
ByLayer
62
256
370
-1
100
AcDbLine
10
300
20
-200
11
295.6699
21
-197.5
0
LINE
5
1F6
100
AcDbEntity
8
axis
6
ByLayer
62
256
370
-1
100
AcDbLine
10
300
20
-200
11
295.6699
21
-202.5
0
MTEXT
5
1F7
100
AcDbEntity
8
axis
6
ByLayer
62
256
370
-1
100
AcDbMText
10
302.760114059
20
-200
30
0
40
5
41
3.33333333333
71
4
72
1
1
X
7
standard
210
0
220
0
230
1
50
0
73
2
44
1
0
MTEXT
5
1F8
100
AcDbEntity
8
axis
6
ByLayer
62
256
370
-1
100
AcDbMText
10
200.041996471
20
-97.822586971
30
0
40
5
41
3.33333333333
71
8
72
1
1
Y
7
standard
210
0
220
0
230
1
50
0
73
2
44
1
0
LINE
5
1F9
100
AcDbEntity
8
axis
6
ByLayer
62
256
370
-1
100
AcDbLine
10
200
20
-100
11
202.5
21
-104.3301
0
LINE
5
1FA
100
AcDbEntity
8
axis
6
ByLayer
62
256
370
-1
100
AcDbLine
10
200
20
-100
11
197.5
21
-104.3301
0
POINT
5
1FB
100
AcDbEntity
8
symbol_outline
6
ByLayer
62
256
370
-1
100
AcDbPoint
10
240
20
-120
0
POINT
5
1FC
100
AcDbEntity
8
symbol_outline
6
ByLayer
62
256
370
-1
100
AcDbPoint
10
270
20
-180
0
LINE
5
1FD
100
AcDbEntity
8
0
6
ByLayer
62
256
370
-1
100
AcDbLine
10
229.64730911
20
-162.676345445
11
240
21
-120
0
LINE
5
1FE
100
AcDbEntity
8
0
6
ByLayer
62
256
370
-1
100
AcDbLine
10
229.64730911
20
-162.676345445
11
270
21
-180
0
LINE
5
1FF
100
AcDbEntity
8
axis
6
ByLayer
62
256
370
-1
100
AcDbLine
10
400
20
-100
11
400
21
-200
0
LINE
5
200
100
AcDbEntity
8
axis
6
ByLayer
62
256
370
-1
100
AcDbLine
10
400
20
-200
11
500
21
-200
0
LINE
5
201
100
AcDbEntity
8
axis
6
ByLayer
62
256
370
-1
100
AcDbLine
10
500
20
-200
11
495.6699
21
-197.5
0
LINE
5
202
100
AcDbEntity
8
axis
6
ByLayer
62
256
370
-1
100
AcDbLine
10
500
20
-200
11
495.6699
21
-202.5
0
MTEXT
5
203
100
AcDbEntity
8
axis
6
ByLayer
62
256
370
-1
100
AcDbMText
10
502.760114059
20
-200
30
0
40
5
41
3.33333333333
71
4
72
1
1
X
7
standard
210
0
220
0
230
1
50
0
73
2
44
1
0
MTEXT
5
204
100
AcDbEntity
8
axis
6
ByLayer
62
256
370
-1
100
AcDbMText
10
400.041996471
20
-97.822586971
30
0
40
5
41
3.33333333333
71
8
72
1
1
Y
7
standard
210
0
220
0
230
1
50
0
73
2
44
1
0
LINE
5
205
100
AcDbEntity
8
axis
6
ByLayer
62
256
370
-1
100
AcDbLine
10
400
20
-100
11
402.5
21
-104.3301
0
LINE
5
206
100
AcDbEntity
8
axis
6
ByLayer
62
256
370
-1
100
AcDbLine
10
400
20
-100
11
397.5
21
-104.3301
0
POINT
5
207
100
AcDbEntity
8
symbol_outline
6
ByLayer
62
256
370
-1
100
AcDbPoint
10
440
20
-120
0
POINT
5
208
100
AcDbEntity
8
symbol_outline
6
ByLayer
62
256
370
-1
100
AcDbPoint
10
470
20
-180
0
ARC
5
209
100
AcDbEntity
8
0
6
ByLayer
62
256
370
-1
100
AcDbCircle
10
229.64730911
20
-162.676345445
40
43.9141055838
100
AcDbArc
50
336.76585929
51
76.3642430642
0
ARC
5
20A
100
AcDbEntity
8
symbol_outline
6
ByLayer
62
256
370
-1
100
AcDbCircle
10
229.64730911
20
-162.676345445
40
43.9141055838
100
AcDbArc
50
76.3642430642
51
336.76585929
0
LINE
5
20B
100
AcDbEntity
8
0
6
ByLayer
62
256
370
-1
100
AcDbLine
10
480.35269089
20
-137.323654555
11
440
21
-120
0
LINE
5
20C
100
AcDbEntity
8
0
6
ByLayer
62
256
370
-1
100
AcDbLine
10
480.35269089
20
-137.323654555
11
470
21
-180
0
ARC
5
20D
100
AcDbEntity
8
0
6
ByLayer
62
256
370
-1
100
AcDbCircle
10
0
20
-200
40
0
100
AcDbArc
50
0
51
0
0
ARC
5
20E
100
AcDbEntity
8
0
6
ByLayer
62
256
370
-1
100
AcDbCircle
10
480.35269089
20
-137.323654555
40
43.9141055838
100
AcDbArc
50
256.364243064
51
156.76585929
0
ARC
5
20F
100
AcDbEntity
8
symbol_outline
6
ByLayer
62
256
370
-1
100
AcDbCircle
10
480.35269089
20
-137.323654555
40
43.9141055838
100
AcDbArc
50
156.76585929
51
256.364243064
0
LINE
5
210
100
AcDbEntity
8
axis
6
ByLayer
62
256
370
-1
100
AcDbLine
10
600
20
-100
11
600
21
-200
0
LINE
5
211
100
AcDbEntity
8
axis
6
ByLayer
62
256
370
-1
100
AcDbLine
10
600
20
-200
11
700
21
-200
0
LINE
5
212
100
AcDbEntity
8
axis
6
ByLayer
62
256
370
-1
100
AcDbLine
10
700
20
-200
11
695.6699
21
-197.5
0
LINE
5
213
100
AcDbEntity
8
axis
6
ByLayer
62
256
370
-1
100
AcDbLine
10
700
20
-200
11
695.6699
21
-202.5
0
MTEXT
5
214
100
AcDbEntity
8
axis
6
ByLayer
62
256
370
-1
100
AcDbMText
10
702.760114059
20
-200
30
0
40
5
41
3.33333333333
71
4
72
1
1
X
7
standard
210
0
220
0
230
1
50
0
73
2
44
1
0
MTEXT
5
215
100
AcDbEntity
8
axis
6
ByLayer
62
256
370
-1
100
AcDbMText
10
600.041996471
20
-97.822586971
30
0
40
5
41
3.33333333333
71
8
72
1
1
Y
7
standard
210
0
220
0
230
1
50
0
73
2
44
1
0
LINE
5
216
100
AcDbEntity
8
axis
6
ByLayer
62
256
370
-1
100
AcDbLine
10
600
20
-100
11
602.5
21
-104.3301
0
LINE
5
217
100
AcDbEntity
8
axis
6
ByLayer
62
256
370
-1
100
AcDbLine
10
600
20
-100
11
597.5
21
-104.3301
0
POINT
5
218
100
AcDbEntity
8
symbol_outline
6
ByLayer
62
256
370
-1
100
AcDbPoint
10
640
20
-120
0
POINT
5
219
100
AcDbEntity
8
symbol_outline
6
ByLayer
62
256
370
-1
100
AcDbPoint
10
670
20
-180
0
LINE
5
21A
100
AcDbEntity
8
0
6
ByLayer
62
256
370
-1
100
AcDbLine
10
680.35269089
20
-137.323654555
11
640
21
-120
0
LINE
5
21B
100
AcDbEntity
8
0
6
ByLayer
62
256
370
-1
100
AcDbLine
10
680.35269089
20
-137.323654555
11
670
21
-180
0
ARC
5
21C
100
AcDbEntity
8
symbol_outline
6
ByLayer
62
256
370
-1
100
AcDbCircle
10
680.35269089
20
-137.323654555
40
43.9141055838
100
AcDbArc
50
256.364243064
51
156.76585929
0
ARC
5
21D
100
AcDbEntity
8
0
6
ByLayer
62
256
370
-1
100
AcDbCircle
10
680.35269089
20
-137.323654555
40
43.9141055838
100
AcDbArc
50
156.76585929
51
256.364243064
0
MTEXT
5
21E
100
AcDbEntity
8
text
6
ByLayer
62
256
370
-1
100
AcDbMText
10
73.021363298
20
-181.63473545
30
0
40
3
41
6.66666666667
71
4
72
1
1
END
7
standard
210
0
220
0
230
1
50
0
73
2
44
1
0
MTEXT
5
21F
100
AcDbEntity
8
text
6
ByLayer
62
256
370
-1
100
AcDbMText
10
34.7783272357
20
-115.736367287
30
0
40
3
41
12.6666660307
71
4
72
1
1
START
7
standard
210
0
220
0
230
1
50
0
73
2
44
1
0
MTEXT
5
220
100
AcDbEntity
8
text
6
ByLayer
62
256
370
-1
100
AcDbMText
10
273.223132128
20
-180.289536
30
0
40
3
41
6.66666666667
71
4
72
1
1
END
7
standard
210
0
220
0
230
1
50
0
73
2
44
1
0
MTEXT
5
221
100
AcDbEntity
8
text
6
ByLayer
62
256
370
-1
100
AcDbMText
10
235.327879338
20
-115.900416
30
0
40
3
41
12.6666660307
71
4
72
1
1
START
7
standard
210
0
220
0
230
1
50
0
73
2
44
1
0
MTEXT
5
222
100
AcDbEntity
8
text
6
ByLayer
62
256
370
-1
100
AcDbMText
10
427.379708088
20
-116.737064438
30
0
40
3
41
12.6666660307
71
4
72
1
1
START
7
standard
210
0
220
0
230
1
50
0
73
2
44
1
0
MTEXT
5
223
100
AcDbEntity
8
text
6
ByLayer
62
256
370
-1
100
AcDbMText
10
471.06588046
20
-183.898607695
30
0
40
3
41
6.66666666667
71
4
72
1
1
END
7
standard
210
0
220
0
230
1
50
0
73
2
44
1
0
MTEXT
5
224
100
AcDbEntity
8
text
6
ByLayer
62
256
370
-1
100
AcDbMText
10
626.797324068
20
-117.327639807
30
0
40
3
41
12.6666660307
71
4
72
1
1
START
7
standard
210
0
220
0
230
1
50
0
73
2
44
1
0
MTEXT
5
225
100
AcDbEntity
8
text
6
ByLayer
62
256
370
-1
100
AcDbMText
10
670.893618223
20
-184.128275893
30
0
40
3
41
6.66666666667
71
4
72
1
1
END
7
standard
210
0
220
0
230
1
50
0
73
2
44
1
0
DIMENSION
5
226
100
AcDbEntity
8
dimensioning
6
ByLayer
62
256
370
-1
100
AcDbDimension
2
*D17
10
-7.4553377013e-16
20
-212.175490446
30
0
11
20
21
-210.300490446
31
0
70
32
1
start_x
71
5
72
0
3
Standard
53
0
210
0
220
0
230
1
100
AcDbAlignedDimension
13
40
23
-120
33
0
14
0
24
-200
34
0
100
AcDbRotatedDimension
0
DIMENSION
5
227
100
AcDbEntity
8
dimensioning
6
ByLayer
62
256
370
-1
100
AcDbDimension
2
*D18
10
70
20
-218.263235669
30
0
11
35
21
-216.388235669
31
0
70
32
1
end_x
71
5
72
0
3
Standard
53
0
210
0
220
0
230
1
100
AcDbAlignedDimension
13
0
23
-200
33
0
14
70
24
-180
34
0
100
AcDbRotatedDimension
0
DIMENSION
5
228
100
AcDbEntity
8
dimensioning
6
ByLayer
62
256
370
-1
100
AcDbDimension
2
*D19
10
-15.379566879
20
-200
30
0
11
-17.254566879
21
-190
31
0
70
32
1
end_y
71
5
72
0
3
Standard
53
0
210
0
220
0
230
1
100
AcDbAlignedDimension
13
70
23
-180
33
0
14
0
24
-200
34
0
50
90
100
AcDbRotatedDimension
0
DIMENSION
5
229
100
AcDbEntity
8
dimensioning
6
ByLayer
62
256
370
-1
100
AcDbDimension
2
*D20
10
-20.506089172
20
-200
30
0
11
-22.381089172
21
-160
31
0
70
32
1
start_y
71
5
72
0
3
Standard
53
0
210
0
220
0
230
1
100
AcDbAlignedDimension
13
40
23
-120
33
0
14
0
24
-200
34
0
50
90
100
AcDbRotatedDimension
0
DIMENSION
5
22A
100
AcDbEntity
8
dimensioning
6
ByLayer
62
256
370
-1
100
AcDbDimension
2
*D21
10
270
20
-218.263235669
30
0
11
235
21
-216.388235669
31
0
70
32
1
end_x
71
5
72
0
3
Standard
53
0
210
0
220
0
230
1
100
AcDbAlignedDimension
13
200
23
-200
33
0
14
270
24
-180
34
0
100
AcDbRotatedDimension
0
DIMENSION
5
22B
100
AcDbEntity
8
dimensioning
6
ByLayer
62
256
370
-1
100
AcDbDimension
2
*D22
10
200
20
-212.175490446
30
0
11
220
21
-210.300490446
31
0
70
32
1
start_x
71
5
72
0
3
Standard
53
0
210
0
220
0
230
1
100
AcDbAlignedDimension
13
240
23
-120
33
0
14
200
24
-200
34
0
100
AcDbRotatedDimension
0
DIMENSION
5
22C
100
AcDbEntity
8
dimensioning
6
ByLayer
62
256
370
-1
100
AcDbDimension
2
*D23
10
184.620433121
20
-200
30
0
11
182.745433121
21
-190
31
0
70
32
1
end_y
71
5
72
0
3
Standard
53
0
210
0
220
0
230
1
100
AcDbAlignedDimension
13
270
23
-180
33
0
14
200
24
-200
34
0
50
90
100
AcDbRotatedDimension
0
DIMENSION
5
22D
100
AcDbEntity
8
dimensioning
6
ByLayer
62
256
370
-1
100
AcDbDimension
2
*D24
10
179.493910828
20
-200
30
0
11
177.618910828
21
-160
31
0
70
32
1
start_y
71
5
72
0
3
Standard
53
0
210
0
220
0
230
1
100
AcDbAlignedDimension
13
240
23
-120
33
0
14
200
24
-200
34
0
50
90
100
AcDbRotatedDimension
0
DIMENSION
5
22E
100
AcDbEntity
8
dimensioning
6
ByLayer
62
256
370
-1
100
AcDbDimension
2
*D25
10
470
20
-218.263235669
30
0
11
435
21
-216.388235669
31
0
70
32
1
end_x
71
5
72
0
3
Standard
53
0
210
0
220
0
230
1
100
AcDbAlignedDimension
13
400
23
-200
33
0
14
470
24
-180
34
0
100
AcDbRotatedDimension
0
DIMENSION
5
22F
100
AcDbEntity
8
dimensioning
6
ByLayer
62
256
370
-1
100
AcDbDimension
2
*D26
10
400
20
-212.175490446
30
0
11
420
21
-210.300490446
31
0
70
32
1
start_x
71
5
72
0
3
Standard
53
0
210
0
220
0
230
1
100
AcDbAlignedDimension
13
440
23
-120
33
0
14
400
24
-200
34
0
100
AcDbRotatedDimension
0
DIMENSION
5
230
100
AcDbEntity
8
dimensioning
6
ByLayer
62
256
370
-1
100
AcDbDimension
2
*D27
10
384.620433121
20
-200
30
0
11
382.745433121
21
-190
31
0
70
32
1
end_y
71
5
72
0
3
Standard
53
0
210
0
220
0
230
1
100
AcDbAlignedDimension
13
470
23
-180
33
0
14
400
24
-200
34
0
50
90
100
AcDbRotatedDimension
0
DIMENSION
5
231
100
AcDbEntity
8
dimensioning
6
ByLayer
62
256
370
-1
100
AcDbDimension
2
*D28
10
379.493910828
20
-200
30
0
11
377.618910828
21
-160
31
0
70
32
1
start_y
71
5
72
0
3
Standard
53
0
210
0
220
0
230
1
100
AcDbAlignedDimension
13
440
23
-120
33
0
14
400
24
-200
34
0
50
90
100
AcDbRotatedDimension
0
DIMENSION
5
232
100
AcDbEntity
8
dimensioning
6
ByLayer
62
256
370
-1
100
AcDbDimension
2
*D29
10
670
20
-218.263235669
30
0
11
635
21
-216.388235669
31
0
70
32
1
end_x
71
5
72
0
3
Standard
53
0
210
0
220
0
230
1
100
AcDbAlignedDimension
13
600
23
-200
33
0
14
670
24
-180
34
0
100
AcDbRotatedDimension
0
DIMENSION
5
233
100
AcDbEntity
8
dimensioning
6
ByLayer
62
256
370
-1
100
AcDbDimension
2
*D30
10
600
20
-212.175490446
30
0
11
620
21
-210.300490446
31
0
70
32
1
start_x
71
5
72
0
3
Standard
53
0
210
0
220
0
230
1
100
AcDbAlignedDimension
13
640
23
-120
33
0
14
600
24
-200
34
0
100
AcDbRotatedDimension
0
DIMENSION
5
234
100
AcDbEntity
8
dimensioning
6
ByLayer
62
256
370
-1
100
AcDbDimension
2
*D31
10
584.620433121
20
-200
30
0
11
582.745433121
21
-190
31
0
70
32
1
end_y
71
5
72
0
3
Standard
53
0
210
0
220
0
230
1
100
AcDbAlignedDimension
13
670
23
-180
33
0
14
600
24
-200
34
0
50
90
100
AcDbRotatedDimension
0
DIMENSION
5
235
100
AcDbEntity
8
dimensioning
6
ByLayer
62
256
370
-1
100
AcDbDimension
2
*D32
10
579.493910828
20
-200
30
0
11
577.618910828
21
-160
31
0
70
32
1
start_y
71
5
72
0
3
Standard
53
0
210
0
220
0
230
1
100
AcDbAlignedDimension
13
640
23
-120
33
0
14
600
24
-200
34
0
50
90
100
AcDbRotatedDimension
0
ARC
5
236
100
AcDbEntity
8
dimensioning
6
ByLayer
62
256
370
-1
100
AcDbCircle
10
29.6473091096
20
37.3236545548
40
16.8956441421
100
AcDbArc
50
336.76585929
51
76.3642430642
0
LEADER
5
237
100
AcDbEntity
8
dimensioning
6
ByLayer
62
256
370
-1
100
AcDbLeader
3
Standard
71
1
72
0
73
3
74
0
75
0
40
1
41
10
76
2
76
2
10
33.6304343235
20
53.7430791643
30
0
10
35.9688683829
20
52.9814034525
30
0
0
MTEXT
5
238
100
AcDbEntity
8
dimensioning
6
ByLayer
62
256
370
-1
100
AcDbMText
10
44.7787368032
20
51.0257118085
30
0
40
3
41
9.66666666667
71
4
72
1
1
angle
7
standard
210
0
220
0
230
1
50
-60
73
2
44
1
0
LEADER
5
239
100
AcDbEntity
8
dimensioning
6
ByLayer
62
256
370
-1
100
AcDbLeader
3
Standard
71
1
72
0
73
3
74
0
75
0
40
1
41
10
76
2
76
2
10
233.630434324
20
53.7430791643
30
0
10
235.968868383
20
52.9814034525
30
0
0
MTEXT
5
23A
100
AcDbEntity
8
dimensioning
6
ByLayer
62
256
370
-1
100
AcDbMText
10
495.484118584
20
76.3784026988
30
0
40
3
41
9.66666666667
71
4
72
1
1
angle
7
standard
210
0
220
0
230
1
50
-60
73
2
44
1
0
MTEXT
5
23B
100
AcDbEntity
8
dimensioning
6
ByLayer
62
256
370
-1
100
AcDbMText
10
244.778736803
20
51.0257118085
30
0
40
3
41
9.66666666667
71
4
72
1
1
angle
7
standard
210
0
220
0
230
1
50
-60
73
2
44
1
0
ARC
5
23C
100
AcDbEntity
8
dimensioning
6
ByLayer
62
256
370
-1
100
AcDbCircle
10
229.647
20
37.3237
40
16.8956
100
AcDbArc
50
336.766
51
76.3642
0
LINE
5
23D
100
AcDbEntity
8
0
6
ByLayer
62
256
370
-1
100
AcDbLine
10
480.35269089
20
62.6763454451
11
440
21
80
0
ARC
5
23E
100
AcDbEntity
8
dimensioning
6
ByLayer
62
256
370
-1
100
AcDbCircle
10
480.35269089
20
62.6763454451
40
16.8956441421
100
AcDbArc
50
256.364243065
51
156.76585929
0
LEADER
5
23F
100
AcDbEntity
8
dimensioning
6
ByLayer
62
256
370
-1
100
AcDbLeader
3
Standard
71
1
72
0
73
3
74
0
75
0
40
1
41
10
76
2
76
2
10
464.827276074
20
69.3415000398
30
0
10
465.927214216
20
71.4800324858
30
0
0
MTEXT
5
240
100
AcDbEntity
8
dimensioning
6
ByLayer
62
256
370
-1
100
AcDbMText
10
695.484118584
20
76.3784026988
30
0
40
3
41
9.66666666667
71
4
72
1
1
angle
7
standard
210
0
220
0
230
1
50
-60
73
2
44
1
0
ARC
5
241
100
AcDbEntity
8
dimensioning
6
ByLayer
62
256
370
-1
100
AcDbCircle
10
680.35269089
20
62.6763454451
40
16.8956441421
100
AcDbArc
50
256.364243065
51
156.76585929
0
LEADER
5
242
100
AcDbEntity
8
dimensioning
6
ByLayer
62
256
370
-1
100
AcDbLeader
3
Standard
71
1
72
0
73
3
74
0
75
0
40
1
41
10
76
2
76
2
10
664.827276074
20
69.3415000398
30
0
10
665.927214216
20
71.4800324858
30
0
0
LEADER
5
243
100
AcDbEntity
8
dimensioning
6
ByLayer
62
256
370
-1
100
AcDbLeader
3
Standard
71
1
72
0
73
3
74
0
75
0
40
1
41
10
76
2
76
2
10
476.368947456
20
-153.742988275
30
0
10
474.030513397
20
-152.981312563
30
0
0
ARC
5
244
100
AcDbEntity
8
dimensioning
6
ByLayer
62
256
370
-1
100
AcDbCircle
10
480.35238178
20
-137.32360911
40
16.8956
100
AcDbArc
50
156.766
51
256.3642
0
MTEXT
5
245
100
AcDbEntity
8
dimensioning
6
ByLayer
62
256
370
-1
100
AcDbMText
10
466.357682388
20
-138.522733576
30
0
40
3
41
9.66666666667
71
4
72
1
1
angle
7
standard
210
0
220
0
230
1
50
296.837
73
2
44
1
0
LEADER
5
246
100
AcDbEntity
8
dimensioning
6
ByLayer
62
256
370
-1
100
AcDbLeader
3
Standard
71
1
72
0
73
3
74
0
75
0
40
1
41
10
76
2
76
2
10
676.369256566
20
-153.74303372
30
0
10
674.030822507
20
-152.981358008
30
0
0
ARC
5
247
100
AcDbEntity
8
dimensioning
6
ByLayer
62
256
370
-1
100
AcDbCircle
10
680.35269089
20
-137.323654555
40
16.8956
100
AcDbArc
50
156.766
51
256.3642
0
MTEXT
5
248
100
AcDbEntity
8
dimensioning
6
ByLayer
62
256
370
-1
100
AcDbMText
10
666.357991498
20
-138.522779021
30
0
40
3
41
9.66666666667
71
4
72
1
1
angle
7
standard
210
0
220
0
230
1
50
296.837
73
2
44
1
0
ARC
5
249
100
AcDbEntity
8
dimensioning
6
ByLayer
62
256
370
-1
100
AcDbCircle
10
229.64730911
20
-162.676345445
40
16.8956441421
100
AcDbArc
50
76.364243065
51
336.76585929
0
LEADER
5
24A
100
AcDbEntity
8
dimensioning
6
ByLayer
62
256
370
-1
100
AcDbLeader
3
Standard
71
1
72
0
73
3
74
0
75
0
40
1
41
10
76
2
76
2
10
245.172723926
20
-169.34150004
30
0
10
244.072785784
20
-171.480032486
30
0
0
MTEXT
5
24B
100
AcDbEntity
8
dimensioning
6
ByLayer
62
256
370
-1
100
AcDbMText
10
215.652300608
20
-163.875424466
30
0
40
3
41
9.66666666667
71
4
72
1
1
angle
7
standard
210
0
220
0
230
1
50
296.837
73
2
44
1
0
ARC
5
24C
100
AcDbEntity
8
dimensioning
6
ByLayer
62
256
370
-1
100
AcDbCircle
10
29.6473091096
20
-162.676345445
40
16.8956441421
100
AcDbArc
50
76.364243065
51
336.76585929
0
LEADER
5
24D
100
AcDbEntity
8
dimensioning
6
ByLayer
62
256
370
-1
100
AcDbLeader
3
Standard
71
1
72
0
73
3
74
0
75
0
40
1
41
10
76
2
76
2
10
45.1727239256
20
-169.34150004
30
0
10
44.0727857836
20
-171.480032486
30
0
0
MTEXT
5
24E
100
AcDbEntity
8
dimensioning
6
ByLayer
62
256
370
-1
100
AcDbMText
10
15.6523006079
20
-163.875424466
30
0
40
3
41
9.66666666667
71
4
72
1
1
angle
7
standard
210
0
220
0
230
1
50
296.837
73
2
44
1
0
LINE
5
24F
100
AcDbEntity
8
crosses
6
ByLayer
62
256
370
-1
100
AcDbLine
10
37.5
20
80
11
42.5
21
80
0
LINE
5
250
100
AcDbEntity
8
crosses
6
ByLayer
62
256
370
-1
100
AcDbLine
10
39.9999999998
20
77.5
11
39.9999999998
21
82.5
0
LINE
5
251
100
AcDbEntity
8
crosses
6
ByLayer
62
256
370
-1
100
AcDbLine
10
67.5000000002
20
20
11
72.5000000002
21
20
0
LINE
5
252
100
AcDbEntity
8
crosses
6
ByLayer
62
256
370
-1
100
AcDbLine
10
70
20
17.5
11
70
21
22.5
0
LINE
5
253
100
AcDbEntity
8
crosses
6
ByLayer
62
256
370
-1
100
AcDbLine
10
237.5
20
80
11
242.5
21
80
0
LINE
5
254
100
AcDbEntity
8
crosses
6
ByLayer
62
256
370
-1
100
AcDbLine
10
240
20
77.5
11
240
21
82.5
0
LINE
5
255
100
AcDbEntity
8
crosses
6
ByLayer
62
256
370
-1
100
AcDbLine
10
267.500000001
20
20
11
272.500000001
21
20
0
LINE
5
256
100
AcDbEntity
8
crosses
6
ByLayer
62
256
370
-1
100
AcDbLine
10
270
20
17.5
11
270
21
22.5
0
LINE
5
257
100
AcDbEntity
8
crosses
6
ByLayer
62
256
370
-1
100
AcDbLine
10
437.5
20
80
11
442.5
21
80
0
LINE
5
258
100
AcDbEntity
8
crosses
6
ByLayer
62
256
370
-1
100
AcDbLine
10
440
20
77.5
11
440
21
82.5
0
LINE
5
259
100
AcDbEntity
8
crosses
6
ByLayer
62
256
370
-1
100
AcDbLine
10
467.5
20
20
11
472.5
21
20
0
LINE
5
25A
100
AcDbEntity
8
crosses
6
ByLayer
62
256
370
-1
100
AcDbLine
10
470
20
17.5
11
470
21
22.5
0
LINE
5
25B
100
AcDbEntity
8
crosses
6
ByLayer
62
256
370
-1
100
AcDbLine
10
637.5
20
79.9999999999
11
642.5
21
79.9999999999
0
LINE
5
25C
100
AcDbEntity
8
crosses
6
ByLayer
62
256
370
-1
100
AcDbLine
10
640
20
77.4999999999
11
640
21
82.4999999999
0
LINE
5
25D
100
AcDbEntity
8
crosses
6
ByLayer
62
256
370
-1
100
AcDbLine
10
667.5
20
20
11
672.5
21
20
0
LINE
5
25E
100
AcDbEntity
8
crosses
6
ByLayer
62
256
370
-1
100
AcDbLine
10
669.999999999
20
17.5
11
669.999999999
21
22.5
0
LINE
5
25F
100
AcDbEntity
8
crosses
6
ByLayer
62
256
370
-1
100
AcDbLine
10
667.5
20
-180
11
672.5
21
-180
0
LINE
5
260
100
AcDbEntity
8
crosses
6
ByLayer
62
256
370
-1
100
AcDbLine
10
670
20
-182.5
11
670
21
-177.5
0
LINE
5
261
100
AcDbEntity
8
crosses
6
ByLayer
62
256
370
-1
100
AcDbLine
10
637.5
20
-120
11
642.5
21
-120
0
LINE
5
262
100
AcDbEntity
8
crosses
6
ByLayer
62
256
370
-1
100
AcDbLine
10
640
20
-122.5
11
640
21
-117.5
0
LINE
5
263
100
AcDbEntity
8
crosses
6
ByLayer
62
256
370
-1
100
AcDbLine
10
467.5
20
-180
11
472.5
21
-180
0
LINE
5
264
100
AcDbEntity
8
crosses
6
ByLayer
62
256
370
-1
100
AcDbLine
10
470
20
-182.5
11
470
21
-177.5
0
LINE
5
265
100
AcDbEntity
8
crosses
6
ByLayer
62
256
370
-1
100
AcDbLine
10
437.5
20
-120
11
442.5
21
-120
0
LINE
5
266
100
AcDbEntity
8
crosses
6
ByLayer
62
256
370
-1
100
AcDbLine
10
440
20
-122.5
11
440
21
-117.5
0
LINE
5
267
100
AcDbEntity
8
crosses
6
ByLayer
62
256
370
-1
100
AcDbLine
10
37.5000000002
20
-120
11
42.5000000002
21
-120
0
LINE
5
268
100
AcDbEntity
8
crosses
6
ByLayer
62
256
370
-1
100
AcDbLine
10
40
20
-122.5
11
40
21
-117.5
0
LINE
5
269
100
AcDbEntity
8
crosses
6
ByLayer
62
256
370
-1
100
AcDbLine
10
67.5000000002
20
-180
11
72.5000000002
21
-180
0
LINE
5
26A
100
AcDbEntity
8
crosses
6
ByLayer
62
256
370
-1
100
AcDbLine
10
70
20
-182.5
11
70
21
-177.5
0
LINE
5
26B
100
AcDbEntity
8
crosses
6
ByLayer
62
256
370
-1
100
AcDbLine
10
267.5
20
-180
11
272.5
21
-180
0
LINE
5
26C
100
AcDbEntity
8
crosses
6
ByLayer
62
256
370
-1
100
AcDbLine
10
270
20
-182.5
11
270
21
-177.5
0
LINE
5
26D
100
AcDbEntity
8
crosses
6
ByLayer
62
256
370
-1
100
AcDbLine
10
237.5
20
-120
11
242.5
21
-120
0
LINE
5
26E
100
AcDbEntity
8
crosses
6
ByLayer
62
256
370
-1
100
AcDbLine
10
240
20
-122.5
11
240
21
-117.5
0
LEADER
5
26F
100
AcDbEntity
8
text
6
ByLayer
62
256
370
-1
100
AcDbLeader
3
Standard
71
1
72
0
73
3
74
0
75
0
40
1
41
10
76
0
76
0
0
MTEXT
5
270
100
AcDbEntity
8
text
6
ByLayer
62
256
370
-1
100
AcDbMText
10
432.038691553
20
83.5992243375
30
0
40
3
41
6.66666666667
71
4
72
1
1
END
7
standard
210
0
220
0
230
1
50
0
73
2
44
1
0
MTEXT
5
271
100
AcDbEntity
8
text
6
ByLayer
62
256
370
-1
100
AcDbMText
10
632.112502389
20
83.5992243375
30
0
40
3
41
6.66666666667
71
4
72
1
1
END
7
standard
210
0
220
0
230
1
50
0
73
2
44
1
0
MTEXT
5
272
100
AcDbEntity
8
text
6
ByLayer
62
256
370
-1
100
AcDbMText
10
0
20
210.839532746
30
0
40
15
41
131.250007714
71
4
72
1
1
Polygon Arcs
7
standard
210
0
220
0
230
1
50
0
73
2
44
1
0
MTEXT
5
273
100
AcDbEntity
8
text
6
ByLayer
62
256
370
-1
100
AcDbMText
10
22.1534291654
20
-45.5291164916
30
0
40
4
41
37.5570794437
71
4
72
1
1
start_x = 70\Pstart_y = 20\Pend_x = 40\Pend_y = 80\Pangle = 100
7
standard
210
0
220
0
230
1
50
0
73
2
44
1
0
MTEXT
5
274
100
AcDbEntity
8
text
6
ByLayer
62
256
370
-1
100
AcDbMText
10
222.153429165
20
-45.5291164916
30
0
40
4
41
37.5570794437
71
4
72
1
1
start_x = 70\Pstart_y = 20\Pend_x = 40\Pend_y = 80\Pangle = -260
7
standard
210
0
220
0
230
1
50
0
73
2
44
1
0
MTEXT
5
275
100
AcDbEntity
8
text
6
ByLayer
62
256
370
-1
100
AcDbMText
10
421.831847763
20
-43.6957292503
30
0
40
4
41
37.5570794437
71
4
72
1
1
start_x = 70\Pstart_y = 20\Pend_x = 40\Pend_y = 80\Pangle = -100
7
standard
210
0
220
0
230
1
50
0
73
2
44
1
0
MTEXT
5
276
100
AcDbEntity
8
text
6
ByLayer
62
256
370
-1
100
AcDbMText
10
621.831847763
20
-43.6957292503
30
0
40
4
41
37.5570794437
71
4
72
1
1
start_x = 70\Pstart_y = 20\Pend_x = 40\Pend_y = 80\Pangle = 260
7
standard
210
0
220
0
230
1
50
0
73
2
44
1
0
MTEXT
5
277
100
AcDbEntity
8
text
6
ByLayer
62
256
370
-1
100
AcDbMText
10
22.1534291654
20
-242.923809469
30
0
40
4
41
38.0015238881
71
4
72
1
1
start_x = 40\Pstart_y = 80\Pend_x = 70\Pend_y = 20\Pangle = -100
7
standard
210
0
220
0
230
1
50
0
73
2
44
1
0
MTEXT
5
278
100
AcDbEntity
8
text
6
ByLayer
62
256
370
-1
100
AcDbMText
10
222.153429165
20
-242.923809469
30
0
40
4
41
38.0015238881
71
4
72
1
1
start_x = 40\Pstart_y = 80\Pend_x = 70\Pend_y = 20\Pangle = 260
7
standard
210
0
220
0
230
1
50
0
73
2
44
1
0
MTEXT
5
279
100
AcDbEntity
8
text
6
ByLayer
62
256
370
-1
100
AcDbMText
10
422.442976843
20
-241.701551308
30
0
40
4
41
38.0015238881
71
4
72
1
1
start_x = 40\Pstart_y = 80\Pend_x = 70\Pend_y = 20\Pangle = 100
7
standard
210
0
220
0
230
1
50
0
73
2
44
1
0
MTEXT
5
27A
100
AcDbEntity
8
text
6
ByLayer
62
256
370
-1
100
AcDbMText
10
622.442976843
20
-241.701551308
30
0
40
4
41
38.0015238881
71
4
72
1
1
start_x = 40\Pstart_y = 80\Pend_x = 70\Pend_y = 20\Pangle = -260
7
standard
210
0
220
0
230
1
50
0
73
2
44
1
0
MTEXT
5
27B
100
AcDbEntity
8
text
6
ByLayer
62
256
370
-1
100
AcDbMText
10
0
20
173.319434269
30
0
40
5
41
122.361113127
71
4
72
1
1
Arc Directions:\P  angle < 0: CW (from start to end)\P  angle > 0: CCW (from start to end)
7
standard
210
0
220
0
230
1
50
0
73
2
44
1
0
MTEXT
5
27C
100
AcDbEntity
8
text
6
ByLayer
62
256
370
-1
100
AcDbMText
10
0.73703360933
20
130.618013154
30
0
40
10
41
61.111116254
71
4
72
1
1
Examples:
7
standard
210
0
220
0
230
1
50
0
73
2
44
1
0
ENDSEC
0
SECTION
2
OBJECTS
0
DICTIONARY
5
C
330
0
100
AcDbDictionary
281
1
3
ACAD_GROUP
350
D
0
DICTIONARY
5
D
330
C
100
AcDbDictionary
281
1
0
ENDSEC
0
EOF
