999
dxfrw 0.5.10
0
SECTION
2
HEADER
9
$ACADVER
1
AC1021
9
$HANDSEED
5
20000
9
$DWGCODEPAGE
3
ANSI_1252
9
$INSBASE
10
0
20
0
30
0
9
$EXTMIN
10
-11.0483545649
20
-41.4941613593
30
0
9
$EXTMAX
10
117.916671201
20
171.959235672
30
0
9
$LIMMIN
10
0
20
0
9
$LIMMAX
10
420
20
297
9
$ORTHOMODE
70
0
9
$LTSCALE
40
1
9
$TEXTSTYLE
7
STANDARD
9
$CLAYER
8
text
9
$DIMASZ
40
2.5
9
$DIMLFAC
40
1
9
$DIMSCALE
40
1
9
$DIMEXO
40
0.625
9
$DIMEXE
40
1.25
9
$DIMTXT
40
2.5
9
$DIMTSZ
40
0
9
$DIMAUNIT
70
0
9
$DIMADEC
70
2
9
$DIMLUNIT
70
2
9
$DIMSTYLE
2
STANDARD
9
$DIMGAP
40
0.625
9
$DIMTIH
70
0
9
$LUNITS
70
2
9
$LUPREC
70
4
9
$AUNITS
70
0
9
$AUPREC
70
2
9
$SPLINESEGS
70
8
9
$GRIDMODE
70
1
9
$SNAPSTYLE
70
0
9
$GRIDUNIT
10
0
20
0
9
$PINSBASE
10
59.0017406465
20
157.845517582
30
0
9
$PLIMMIN
10
0
20
0
9
$PLIMMAX
10
297
20
210
9
$INSUNITS
70
4
9
$PSVPSCALE
40
0.24123737358
0
ENDSEC
0
SECTION
2
CLASSES
0
ENDSEC
0
SECTION
2
TABLES
0
TABLE
2
VPORT
5
8
330
0
100
AcDbSymbolTable
70
1
0
VPORT
5
31
330
2
100
AcDbSymbolTableRecord
100
AcDbViewportTableRecord
2
*ACTIVE
70
0
10
0
20
0
11
1
21
1
12
136.673885353
22
78.2245222945
13
0
23
0
14
10
24
10
15
10
25
10
16
0
26
0
36
1
17
0
27
0
37
0
40
221.531847138
41
1.77401129944
42
50
43
0
44
0
50
0
51
0
71
0
72
100
73
1
74
3
75
0
76
1
77
0
78
0
281
0
65
1
110
0
120
0
130
0
111
1
121
0
131
0
112
0
122
1
132
0
79
0
146
0
348
10020
60
7
61
5
292
1
282
1
141
0
142
0
63
250
421
3358443
0
ENDTAB
0
TABLE
2
LTYPE
5
5
330
0
100
AcDbSymbolTable
70
4
0
LTYPE
5
14
330
5
100
AcDbSymbolTableRecord
100
AcDbLinetypeTableRecord
2
ByBlock
70
0
3

72
65
73
0
40
0
0
LTYPE
5
15
330
5
100
AcDbSymbolTableRecord
100
AcDbLinetypeTableRecord
2
ByLayer
70
0
3

72
65
73
0
40
0
0
LTYPE
5
16
330
5
100
AcDbSymbolTableRecord
100
AcDbLinetypeTableRecord
2
Continuous
70
0
3
Solid line
72
65
73
0
40
0
0
LTYPE
5
32
330
5
100
AcDbSymbolTableRecord
100
AcDbLinetypeTableRecord
2
DOT
70
0
3
Dot . . . . . . . . . . . . . . . . . . . . . .
72
65
73
2
40
6.35
49
0
74
0
49
-6.35
74
0
0
LTYPE
5
33
330
5
100
AcDbSymbolTableRecord
100
AcDbLinetypeTableRecord
2
DOT2
70
0
3
Dot (.5x) .....................................
72
65
73
2
40
3.175
49
0
74
0
49
-3.175
74
0
0
LTYPE
5
34
330
5
100
AcDbSymbolTableRecord
100
AcDbLinetypeTableRecord
2
DOTX2
70
0
3
Dot (2x) .  .  .  .  .  .  .  .  .  .  .  .  .
72
65
73
2
40
12.7
49
0
74
0
49
-12.7
74
0
0
LTYPE
5
35
330
5
100
AcDbSymbolTableRecord
100
AcDbLinetypeTableRecord
2
DASHED
70
0
3
Dot . . . . . . . . . . . . . . . . . . . . . .
72
65
73
2
40
19.05
49
12.7
74
0
49
-6.35
74
0
0
LTYPE
5
36
330
5
100
AcDbSymbolTableRecord
100
AcDbLinetypeTableRecord
2
DASHED2
70
0
3
Dashed (.5x) _ _ _ _ _ _ _ _ _ _ _ _ _ _ _ _ _
72
65
73
2
40
9.525
49
6.35
74
0
49
-3.175
74
0
0
LTYPE
5
37
330
5
100
AcDbSymbolTableRecord
100
AcDbLinetypeTableRecord
2
DASHEDX2
70
0
3
Dashed (2x) ____  ____  ____  ____  ____  ___
72
65
73
2
40
38.1
49
25.4
74
0
49
-12.7
74
0
0
LTYPE
5
38
330
5
100
AcDbSymbolTableRecord
100
AcDbLinetypeTableRecord
2
DASHDOT
70
0
3
Dash dot __ . __ . __ . __ . __ . __ . __ . __
72
65
73
4
40
25.4
49
12.7
74
0
49
-6.35
74
0
49
0
74
0
49
-6.35
74
0
0
LTYPE
5
39
330
5
100
AcDbSymbolTableRecord
100
AcDbLinetypeTableRecord
2
DASHDOT2
70
0
3
Dash dot (.5x) _._._._._._._._._._._._._._._.
72
65
73
4
40
12.7
49
6.35
74
0
49
-3.175
74
0
49
0
74
0
49
-3.175
74
0
0
LTYPE
5
3A
330
5
100
AcDbSymbolTableRecord
100
AcDbLinetypeTableRecord
2
DASHDOTX2
70
0
3
Dash dot (2x) ____  .  ____  .  ____  .  ___
72
65
73
4
40
50.8
49
25.4
74
0
49
-12.7
74
0
49
0
74
0
49
-12.7
74
0
0
LTYPE
5
3B
330
5
100
AcDbSymbolTableRecord
100
AcDbLinetypeTableRecord
2
DIVIDE
70
0
3
Divide ____ . . ____ . . ____ . . ____ . . ____
72
65
73
6
40
31.75
49
12.7
74
0
49
-6.35
74
0
49
0
74
0
49
-6.35
74
0
49
0
74
0
49
-6.35
74
0
0
LTYPE
5
3C
330
5
100
AcDbSymbolTableRecord
100
AcDbLinetypeTableRecord
2
DIVIDE2
70
0
3
Divide (.5x) __..__..__..__..__..__..__..__.._
72
65
73
6
40
15.875
49
6.35
74
0
49
-3.175
74
0
49
0
74
0
49
-3.175
74
0
49
0
74
0
49
-3.175
74
0
0
LTYPE
5
3D
330
5
100
AcDbSymbolTableRecord
100
AcDbLinetypeTableRecord
2
DIVIDEX2
70
0
3
Divide (2x) ________  .  .  ________  .  .  _
72
65
73
6
40
63.5
49
25.4
74
0
49
-12.7
74
0
49
0
74
0
49
-12.7
74
0
49
0
74
0
49
-12.7
74
0
0
LTYPE
5
3E
330
5
100
AcDbSymbolTableRecord
100
AcDbLinetypeTableRecord
2
BORDER
70
0
3
Border __ __ . __ __ . __ __ . __ __ . __ __ .
72
65
73
6
40
44.45
49
12.7
74
0
49
-6.35
74
0
49
12.7
74
0
49
-6.35
74
0
49
0
74
0
49
-6.35
74
0
0
LTYPE
5
3F
330
5
100
AcDbSymbolTableRecord
100
AcDbLinetypeTableRecord
2
BORDER2
70
0
3
Border (.5x) __.__.__.__.__.__.__.__.__.__.__.
72
65
73
6
40
22.225
49
6.35
74
0
49
-3.175
74
0
49
6.35
74
0
49
-3.175
74
0
49
0
74
0
49
-3.175
74
0
0
LTYPE
5
40
330
5
100
AcDbSymbolTableRecord
100
AcDbLinetypeTableRecord
2
BORDERX2
70
0
3
Border (2x) ____  ____  .  ____  ____  .  ___
72
65
73
6
40
88.9
49
25.4
74
0
49
-12.7
74
0
49
25.4
74
0
49
-12.7
74
0
49
0
74
0
49
-12.7
74
0
0
LTYPE
5
41
330
5
100
AcDbSymbolTableRecord
100
AcDbLinetypeTableRecord
2
CENTER
70
0
3
Center ____ _ ____ _ ____ _ ____ _ ____ _ ____
72
65
73
4
40
50.8
49
31.75
74
0
49
-6.35
74
0
49
6.35
74
0
49
-6.35
74
0
0
LTYPE
5
42
330
5
100
AcDbSymbolTableRecord
100
AcDbLinetypeTableRecord
2
CENTER2
70
0
3
Center (.5x) ___ _ ___ _ ___ _ ___ _ ___ _ ___
72
65
73
4
40
28.575
49
19.05
74
0
49
-3.175
74
0
49
3.175
74
0
49
-3.175
74
0
0
LTYPE
5
43
330
5
100
AcDbSymbolTableRecord
100
AcDbLinetypeTableRecord
2
CENTERX2
70
0
3
Center (2x) ________  __  ________  __  _____
72
65
73
4
40
101.6
49
63.5
74
0
49
-12.7
74
0
49
12.7
74
0
49
-12.7
74
0
0
ENDTAB
0
TABLE
2
LAYER
5
2
330
0
100
AcDbSymbolTable
70
1
0
LAYER
5
10
330
2
100
AcDbSymbolTableRecord
100
AcDbLayerTableRecord
2
0
70
0
62
7
6
CONTINUOUS
370
13
390
F
0
LAYER
5
44
330
2
100
AcDbSymbolTableRecord
100
AcDbLayerTableRecord
2
axis
70
0
62
6
6
CONTINUOUS
370
30
390
F
0
LAYER
5
45
330
2
100
AcDbSymbolTableRecord
100
AcDbLayerTableRecord
2
text
70
0
62
2
6
CONTINUOUS
370
15
390
F
0
LAYER
5
46
330
2
100
AcDbSymbolTableRecord
100
AcDbLayerTableRecord
2
symbol_outline
70
0
62
4
6
CONTINUOUS
370
50
390
F
0
LAYER
5
47
330
2
100
AcDbSymbolTableRecord
100
AcDbLayerTableRecord
2
pin_circle
70
0
62
3
6
CONTINUOUS
370
50
390
F
0
LAYER
5
48
330
2
100
AcDbSymbolTableRecord
100
AcDbLayerTableRecord
2
dimensioning
70
0
62
1
6
CONTINUOUS
370
13
390
F
0
LAYER
5
49
330
2
100
AcDbSymbolTableRecord
100
AcDbLayerTableRecord
2
crosses
70
0
62
5
6
CONTINUOUS
370
13
390
F
0
ENDTAB
0
TABLE
2
STYLE
5
3
330
0
100
AcDbSymbolTable
70
3
0
STYLE
5
4A
330
2
100
AcDbSymbolTableRecord
100
AcDbTextStyleTableRecord
2
standard
70
0
40
0
41
1
50
0
71
0
42
1
3
standard
4

0
ENDTAB
0
TABLE
2
VIEW
5
6
330
0
100
AcDbSymbolTable
70
0
0
ENDTAB
0
TABLE
2
UCS
5
7
330
0
100
AcDbSymbolTable
70
0
0
ENDTAB
0
TABLE
2
APPID
5
9
330
0
100
AcDbSymbolTable
70
1
0
APPID
5
12
330
9
100
AcDbSymbolTableRecord
100
AcDbRegAppTableRecord
2
ACAD
70
0
0
ENDTAB
0
TABLE
2
DIMSTYLE
5
A
330
0
100
AcDbSymbolTable
70
1
100
AcDbDimStyleTable
71
1
0
DIMSTYLE
105
4B
330
A
100
AcDbSymbolTableRecord
100
AcDbDimStyleTableRecord
2
Standard
70
0
40
1
41
2.5
42
0.625
43
0.38
44
1.25
45
0
46
0
47
0
48
0
140
2.5
141
0.09
142
0
143
25.4
144
1
145
0
146
1
147
0.625
148
0
71
0
72
0
73
0
74
1
75
0
76
0
77
0
78
0
79
0
170
0
171
2
172
0
173
0
174
0
175
0
176
0
177
0
178
0
179
0
271
4
272
4
273
2
274
2
275
0
276
0
277
2
278
46
279
0
280
0
281
0
282
0
283
1
284
0
285
0
286
0
288
0
289
3
340
Standard
341

371
-2
372
-2
0
ENDTAB
0
TABLE
2
BLOCK_RECORD
5
1
330
0
100
AcDbSymbolTable
70
2
0
BLOCK_RECORD
5
1F
330
1
100
AcDbSymbolTableRecord
100
AcDbBlockTableRecord
2
*Model_Space
70
0
280
1
281
0
0
BLOCK_RECORD
5
1E
330
1
100
AcDbSymbolTableRecord
100
AcDbBlockTableRecord
2
*Paper_Space
70
0
280
1
281
0
0
BLOCK_RECORD
5
4C
330
1
100
AcDbSymbolTableRecord
100
AcDbBlockTableRecord
2
*D3
70
0
280
1
281
0
0
BLOCK_RECORD
5
4F
330
1
100
AcDbSymbolTableRecord
100
AcDbBlockTableRecord
2
*D5
70
0
280
1
281
0
0
BLOCK_RECORD
5
52
330
1
100
AcDbSymbolTableRecord
100
AcDbBlockTableRecord
2
*D4
70
0
280
1
281
0
0
BLOCK_RECORD
5
55
330
1
100
AcDbSymbolTableRecord
100
AcDbBlockTableRecord
2
*D2
70
0
280
1
281
0
0
BLOCK_RECORD
5
58
330
1
100
AcDbSymbolTableRecord
100
AcDbBlockTableRecord
2
*D1
70
0
280
1
281
0
0
ENDTAB
0
ENDSEC
0
SECTION
2
BLOCKS
0
BLOCK
5
20
330
1F
100
AcDbEntity
8
0
100
AcDbBlockBegin
2
*Model_Space
70
0
10
0
20
0
30
0
3
*Model_Space
1

0
ENDBLK
5
21
330
1F
100
AcDbEntity
8
0
100
AcDbBlockEnd
0
BLOCK
5
1C
330
1B
100
AcDbEntity
8
0
100
AcDbBlockBegin
2
*Paper_Space
70
0
10
0
20
0
30
0
3
*Paper_Space
1

0
ENDBLK
5
1D
330
1F
100
AcDbEntity
8
0
100
AcDbBlockEnd
0
BLOCK
5
4D
330
4C
100
AcDbEntity
8
0
100
AcDbBlockBegin
2
*D3
70
1
10
0
20
0
3
*D3
1

0
LINE
5
5B
100
AcDbEntity
8
dimensioning
6
CONTINUOUS
62
7
370
0
100
AcDbLine
10
39.5580582618
20
50.4419417382
11
31.6313939758
21
58.368606024
0
LINE
5
5C
100
AcDbEntity
8
dimensioning
6
CONTINUOUS
62
7
370
0
100
AcDbLine
10
67.842329509
20
78.726212986
11
59.915665223
21
86.6528772718
0
LINE
5
5D
100
AcDbEntity
8
dimensioning
6
CONTINUOUS
62
7
370
0
100
AcDbLine
10
32.5152774523
20
57.4847225475
11
60.7995486995
21
85.7689937953
0
SOLID
5
5E
100
AcDbEntity
8
dimensioning
6
CONTINUOUS
62
7
370
0
100
AcDbTrace
10
32.5152774523
20
57.4847225475
30
0
11
33.9886867009
21
59.5468472049
31
0
12
34.5774021097
22
58.9581317961
32
0
13
34.5774021097
23
58.9581317961
33
0
0
SOLID
5
5F
100
AcDbEntity
8
dimensioning
6
CONTINUOUS
62
7
370
0
100
AcDbTrace
10
60.7995486995
20
85.7689937953
30
0
11
59.326139451
21
83.7068691379
31
0
12
58.7374240422
22
84.2955845467
32
0
13
58.7374240422
23
84.2955845467
33
0
0
MTEXT
5
60
100
AcDbEntity
8
dimensioning
6
CONTINUOUS
62
7
370
0
100
AcDbMText
10
45.3315878612
20
72.9526833861
30
0
40
2.5
41
9.72222222222
71
5
72
1
1
length
7
standard
210
0
220
0
230
1
50
45.0000000006
73
2
44
1
0
ENDBLK
5
4E
330
4C
100
AcDbEntity
8
0
100
AcDbBlockEnd
0
BLOCK
5
50
330
4F
100
AcDbEntity
8
0
100
AcDbBlockBegin
2
*D5
70
1
10
0
20
0
3
*D5
1

0
LINE
5
61
100
AcDbEntity
8
dimensioning
6
CONTINUOUS
62
7
370
0
100
AcDbLine
10
-8.75668789815
20
0
11
-8.75668789815
21
50
0
SOLID
5
62
100
AcDbEntity
8
dimensioning
6
CONTINUOUS
62
7
370
0
100
AcDbTrace
10
-8.75668789815
20
0
30
0
11
-9.17297255592
21
2.5
31
0
12
-8.34040324038
22
2.5
32
0
13
-8.34040324038
23
2.5
33
0
0
SOLID
5
63
100
AcDbEntity
8
dimensioning
6
CONTINUOUS
62
7
370
0
100
AcDbTrace
10
-8.75668789815
20
50
30
0
11
-8.34040324038
21
47.5
31
0
12
-9.17297255592
22
47.5
32
0
13
-9.17297255592
23
47.5
33
0
0
MTEXT
5
64
100
AcDbEntity
8
dimensioning
6
CONTINUOUS
62
7
370
0
100
AcDbMText
10
-10.6316878982
20
25
30
0
40
2.5
41
1.11111111111
71
5
72
1
1
y
7
standard
210
0
220
0
230
1
50
90
73
2
44
1
0
LINE
5
65
100
AcDbEntity
8
dimensioning
6
CONTINUOUS
62
7
370
0
100
AcDbLine
10
-0.625
20
7.65404249467e-17
11
-10.0066878982
21
1.53080849893e-16
0
LINE
5
66
100
AcDbEntity
8
dimensioning
6
CONTINUOUS
62
7
370
0
100
AcDbLine
10
39.375
20
50
11
-10.0066878982
21
50
0
ENDBLK
5
51
330
4F
100
AcDbEntity
8
0
100
AcDbBlockEnd
0
BLOCK
5
53
330
52
100
AcDbEntity
8
0
100
AcDbBlockBegin
2
*D4
70
1
10
0
20
0
3
*D4
1

0
LINE
5
67
100
AcDbEntity
8
dimensioning
6
CONTINUOUS
62
7
370
0
100
AcDbLine
10
0
20
-5.28672611474
11
40
21
-5.28672611474
0
SOLID
5
68
100
AcDbEntity
8
dimensioning
6
CONTINUOUS
62
7
370
0
100
AcDbTrace
10
0
20
-5.28672611474
30
0
11
2.5
21
-4.87044145697
31
0
12
2.5
22
-5.70301077251
32
0
13
2.5
23
-5.70301077251
33
0
0
SOLID
5
69
100
AcDbEntity
8
dimensioning
6
CONTINUOUS
62
7
370
0
100
AcDbTrace
10
40
20
-5.28672611474
30
0
11
37.5
21
-5.70301077251
31
0
12
37.5
22
-4.87044145697
32
0
13
37.5
23
-4.87044145697
33
0
0
MTEXT
5
6A
100
AcDbEntity
8
dimensioning
6
CONTINUOUS
62
7
370
0
100
AcDbMText
10
20
20
-3.41172611474
30
0
40
2.5
41
1.11111111111
71
5
72
1
1
x
7
standard
210
0
220
0
230
1
50
0
73
2
44
1
0
LINE
5
6B
100
AcDbEntity
8
dimensioning
6
CONTINUOUS
62
7
370
0
100
AcDbLine
10
-1.1481063742e-16
20
-0.625
11
-2.2962127484e-16
21
-6.53672611474
0
LINE
5
6C
100
AcDbEntity
8
dimensioning
6
CONTINUOUS
62
7
370
0
100
AcDbLine
10
40
20
49.375
11
40
21
-6.53672611474
0
ENDBLK
5
54
330
52
100
AcDbEntity
8
0
100
AcDbBlockEnd
0
BLOCK
5
56
330
55
100
AcDbEntity
8
0
100
AcDbBlockBegin
2
*D2
70
1
10
0
20
0
3
*D2
1

0
LINE
5
6D
100
AcDbEntity
8
text
6
CONTINUOUS
62
7
370
0
100
AcDbLine
10
41.0121783446
20
47.255484978
11
45.1462059217
21
32.491100774
0
LINE
5
6E
100
AcDbEntity
8
text
6
CONTINUOUS
62
7
370
0
100
AcDbLine
10
45.1462059217
20
32.491100774
11
48.4874451246
21
32.491100774
0
SOLID
5
6F
100
AcDbEntity
8
text
6
CONTINUOUS
62
7
370
0
100
AcDbTrace
10
41.0121783446
20
47.255484978
30
0
11
42.0871203058
21
44.96031773
31
0
12
41.285386011
22
44.7358321274
32
0
13
41.285386011
23
44.7358321274
33
0
0
ENDBLK
5
57
330
55
100
AcDbEntity
8
0
100
AcDbBlockEnd
0
BLOCK
5
59
330
58
100
AcDbEntity
8
0
100
AcDbBlockBegin
2
*D1
70
1
10
0
20
0
3
*D1
1

0
LINE
5
70
100
AcDbEntity
8
dimensioning
6
CONTINUOUS
62
7
370
0
100
AcDbLine
10
50.9293285998
20
60.9293286
11
52.4481490675
21
59.170219668
0
SOLID
5
71
100
AcDbEntity
8
dimensioning
6
CONTINUOUS
62
7
370
0
100
AcDbTrace
10
50.9293285998
20
60.9293286
30
0
11
52.8782157894
21
59.3091028014
31
0
12
52.2480355295
22
58.7650030815
32
0
13
52.2480355295
23
58.7650030815
33
0
0
ENDBLK
5
5A
330
58
100
AcDbEntity
8
0
100
AcDbBlockEnd
0
ENDSEC
0
SECTION
2
ENTITIES
0
LINE
5
72
100
AcDbEntity
8
axis
6
ByLayer
62
256
370
-1
100
AcDbLine
10
0
20
100
11
0
21
0
0
LINE
5
73
100
AcDbEntity
8
axis
6
ByLayer
62
256
370
-1
100
AcDbLine
10
0
20
0
11
100
21
0
0
LINE
5
74
100
AcDbEntity
8
axis
6
ByLayer
62
256
370
-1
100
AcDbLine
10
100
20
0
11
95.6699
21
2.5
0
LINE
5
75
100
AcDbEntity
8
axis
6
ByLayer
62
256
370
-1
100
AcDbLine
10
100
20
0
11
95.6699
21
-2.5
0
MTEXT
5
76
100
AcDbEntity
8
axis
6
ByLayer
62
256
370
-1
100
AcDbMText
10
102.760114059
20
0
30
0
40
5
41
3.33333333333
71
4
72
1
1
X
7
standard
210
0
220
0
230
1
50
0
73
2
44
1
0
MTEXT
5
77
100
AcDbEntity
8
axis
6
ByLayer
62
256
370
-1
100
AcDbMText
10
0.0419964706242
20
102.177413029
30
0
40
5
41
3.33333333333
71
8
72
1
1
Y
7
standard
210
0
220
0
230
1
50
0
73
2
44
1
0
LINE
5
78
100
AcDbEntity
8
axis
6
ByLayer
62
256
370
-1
100
AcDbLine
10
0
20
100
11
2.5
21
95.6699
0
LINE
5
79
100
AcDbEntity
8
axis
6
ByLayer
62
256
370
-1
100
AcDbLine
10
0
20
100
11
-2.5
21
95.6699
0
MTEXT
5
7A
100
AcDbEntity
8
text
6
ByLayer
62
256
370
-1
100
AcDbMText
10
0
20
164.459235672
30
0
40
15
41
117.916671201
71
4
72
1
1
Symbol Pins
7
standard
210
0
220
0
230
1
50
0
73
2
44
1
0
MTEXT
5
7B
100
AcDbEntity
8
text
6
ByLayer
62
256
370
-1
100
AcDbMText
10
-0.128163057327
20
122.395719747
30
0
40
10
41
53.3333333333
71
4
72
1
1
Example:
7
standard
210
0
220
0
230
1
50
0
73
2
44
1
0
LINE
5
7C
100
AcDbEntity
8
crosses
6
ByLayer
62
256
370
-1
100
AcDbLine
10
37.5000000002
20
50
11
42.5000000002
21
50
0
LINE
5
7D
100
AcDbEntity
8
crosses
6
ByLayer
62
256
370
-1
100
AcDbLine
10
40
20
47.5
11
40
21
52.5
0
ARC
5
7E
100
AcDbEntity
8
dimensioning
6
ByLayer
62
256
370
-1
100
AcDbCircle
10
40
20
50
40
15.4564047336
100
AcDbArc
50
0
51
45
0
LEADER
5
7F
100
AcDbEntity
8
dimensioning
6
ByLayer
62
256
370
-1
100
AcDbLeader
3
Standard
71
1
72
0
73
3
74
0
75
0
40
1
41
10
76
2
76
2
10
50.9293285998
20
60.9293286
30
0
10
52.4481490675
20
59.170219668
30
0
0
LINE
5
80
100
AcDbEntity
8
dimensioning
6
ByLayer
62
256
370
-1
100
AcDbLine
10
52.9564047336
20
50
11
57.9564047336
21
50
0
MTEXT
5
81
100
AcDbEntity
8
text
6
ByLayer
62
256
370
-1
100
AcDbMText
10
50.9863401179
20
32.556720259
30
0
40
3
41
32.9166666667
71
4
72
1
1
Connection Point
7
standard
210
0
220
0
230
1
50
0
73
2
44
1
0
LEADER
5
82
100
AcDbEntity
8
text
6
ByLayer
62
256
370
-1
100
AcDbLeader
3
Standard
71
1
72
0
73
3
74
0
75
0
40
1
41
10
76
3
76
3
10
41.0121783446
20
47.255484978
30
0
10
45.1462059217
20
32.491100774
30
0
10
48.4874451246
20
32.491100774
30
0
0
LINE
5
83
100
AcDbEntity
8
symbol_outline
6
ByLayer
62
256
370
-1
100
AcDbLine
10
40
20
50
11
68.2842712472
21
78.2842712478
0
DIMENSION
5
84
100
AcDbEntity
8
dimensioning
6
ByLayer
62
256
370
-1
100
AcDbDimension
2
*D3
10
60.7995486995
20
85.7689937953
30
0
11
45.3315878612
21
72.9526833861
31
0
70
33
1
length
71
5
72
0
3
Standard
53
0
210
0
220
0
230
1
100
AcDbAlignedDimension
13
40
23
50
33
0
14
68.2842712472
24
78.2842712478
34
0
0
CIRCLE
5
85
100
AcDbEntity
8
pin_circle
6
ByLayer
62
256
370
-1
100
AcDbCircle
10
40
20
50
40
5
0
DIMENSION
5
86
100
AcDbEntity
8
dimensioning
6
ByLayer
62
256
370
-1
100
AcDbDimension
2
*D4
10
39.7305477714
20
-5.28672611474
30
0
11
20
21
-3.41172611474
31
0
70
32
1
x
71
5
72
0
3
Standard
53
0
210
0
220
0
230
1
100
AcDbAlignedDimension
13
0
23
0
33
0
14
40
24
50
34
0
100
AcDbRotatedDimension
0
DIMENSION
5
87
100
AcDbEntity
8
dimensioning
6
ByLayer
62
256
370
-1
100
AcDbDimension
2
*D5
10
-8.75668789815
20
50
30
0
11
-10.6316878982
21
25
31
0
70
32
1
y
71
5
72
0
3
Standard
53
0
210
0
220
0
230
1
100
AcDbAlignedDimension
13
0
23
0
33
0
14
40
24
50
34
0
50
90
100
AcDbRotatedDimension
0
MTEXT
5
88
100
AcDbEntity
8
text
6
ByLayer
62
256
370
-1
100
AcDbMText
10
32.4631767521
20
-28.160828026
30
0
40
4
41
36.2222222222
71
4
72
1
1
x = 40\Py = 50\Protation = 45\Plength = 40
7
standard
210
0
220
0
230
1
50
0
73
2
44
1
0
MTEXT
5
89
100
AcDbEntity
8
dimensioning
6
ByLayer
62
256
370
-1
100
AcDbMText
10
55.905701696
20
56.44325652
30
0
40
3
41
15.3333333333
71
4
72
1
1
rotation
7
standard
210
0
220
0
230
1
50
0
73
2
44
1
0
ENDSEC
0
SECTION
2
OBJECTS
0
DICTIONARY
5
C
330
0
100
AcDbDictionary
281
1
3
ACAD_GROUP
350
D
0
DICTIONARY
5
D
330
C
100
AcDbDictionary
281
1
0
ENDSEC
0
EOF
