<svg id="Layer_1" data-name="Layer 1" xmlns="http://www.w3.org/2000/svg" xmlns:xlink="http://www.w3.org/1999/xlink" viewBox="0 0 500 500"><defs><style>.cls-1{fill:#fff;}</style><symbol id="New_Symbol_1" data-name="New Symbol 1" viewBox="0 0 500 500"><rect class="cls-1" x="307.07" y="432.45" width="45.65" height="67.55"/><rect class="cls-1" x="227.17" y="432.45" width="45.65" height="67.55"/><rect class="cls-1" x="147.28" y="432.45" width="45.65" height="67.55"/><rect class="cls-1" x="307.07" width="45.65" height="67.55"/><rect class="cls-1" x="227.17" width="45.65" height="67.55"/><rect class="cls-1" x="147.28" width="45.65" height="67.55"/><rect class="cls-1" y="307.07" width="67.55" height="45.65"/><rect class="cls-1" y="227.17" width="67.55" height="45.65"/><rect class="cls-1" y="147.28" width="67.55" height="45.65"/><rect class="cls-1" x="432.45" y="307.07" width="67.55" height="45.65"/><rect class="cls-1" x="432.45" y="227.17" width="67.55" height="45.65"/><rect class="cls-1" x="432.45" y="147.28" width="67.55" height="45.65"/><path class="cls-1" d="M365.11,94.73H134.89a40.13,40.13,0,0,0-40.16,40.16V365.11a40.17,40.17,0,0,0,40.16,40.16H365.11a40.17,40.17,0,0,0,40.16-40.16V134.89A40.13,40.13,0,0,0,365.11,94.73ZM127.07,165a30.14,30.14,0,1,1,30.1,30.16A30.09,30.09,0,0,1,127.07,165Z"/></symbol></defs><title>LibrePCB monochrome</title><use width="500" height="500" xlink:href="#New_Symbol_1"/></svg>