<?xml version="1.0" encoding="utf-8"?>
<!-- Generator: Adobe Illustrator 22.1.0, SVG Export Plug-In . SVG Version: 6.00 Build 0)  -->
<svg version="1.1" id="Layer_1" xmlns="http://www.w3.org/2000/svg" xmlns:xlink="http://www.w3.org/1999/xlink" x="0px" y="0px"
   viewBox="0 0 512 512" style="enable-background:new 0 0 512 512;" xml:space="preserve">
<style type="text/css">
  .st0{fill:#29D682;}
  .st1{fill:#FFFFFF;}
  .st2{fill:#4D4D4D;}
  .st3{fill:none;}
</style>
<g id="New_Symbol-3">
  <g id="_Group_2_2_">
    <g>
      <g id="_Group_3_2_">
        <g id="_Group_4_2_">
          <path class="st0" d="M0.8,255.9L0.8,255.9c0,140.8,114.2,255,255,255h0c140.8,0,255-114.2,255-255v0c0-140.8-114.2-255-255-255
            h0C115,0.9,0.8,115.1,0.8,255.9z"/>
        </g>
      </g>
    </g>
  </g>
  <rect x="291.5" y="340" class="st1" width="28.5" height="72.1"/>
  <rect x="241.6" y="340" class="st1" width="28.5" height="72.1"/>
  <rect x="191.7" y="340" class="st1" width="28.5" height="72.1"/>
  <rect x="291.5" y="99.7" class="st1" width="28.5" height="72.1"/>
  <rect x="241.6" y="99.7" class="st1" width="28.5" height="72.1"/>
  <rect x="191.7" y="99.7" class="st1" width="28.5" height="72.1"/>
  <rect x="99.6" y="291.5" class="st1" width="72" height="28.5"/>
  <rect x="99.6" y="241.6" class="st1" width="72" height="28.5"/>
  <rect x="99.6" y="191.7" class="st1" width="72" height="28.5"/>
  <rect x="340" y="291.5" class="st1" width="72" height="28.5"/>
  <rect x="340" y="241.6" class="st1" width="72" height="28.5"/>
  <rect x="340" y="191.7" class="st1" width="72" height="28.5"/>
  <path class="st2" d="M327.8,158.9c13.9,0,25.1,11.3,25,25.1v143.8c0,13.9-11.2,25.1-25.1,25.1H183.9c-13.9,0-25.1-11.2-25.1-25.1
    V184c0,0,0,0,0-0.1c0-13.9,11.2-25.1,25.1-25.1L327.8,158.9C327.8,158.9,327.8,158.9,327.8,158.9z"/>
  <path class="st1" d="M197.8,221.6c10.4,0,18.8-8.4,18.8-18.8c0-10.4-8.4-18.8-18.8-18.8c-10.4,0-18.8,8.4-18.8,18.8
    C179,213.2,187.4,221.6,197.8,221.6C197.8,221.6,197.8,221.6,197.8,221.6z"/>
  <rect class="st3" width="512" height="512"/>
</g>
</svg>
