<svg width="5.6896mm" height="6.7593mm" version="1.2" viewBox="0 0 134.4 159.67" xmlns="http://www.w3.org/2000/svg">
 <g transform="translate(89.859 107.61)">
  <g transform="matrix(6.8571 0 0 2.6608 -22.658 -43.997)">
   <g>
    <path d="m0.13878-23.906a1.0215 2.6945 0 0 0-1.0218 2.6976v17.259h-7.8471a1.0711 1.0711 0 0 0-1.0699 1.069v5.7623a1.071 1.071 0 0 0 1.0699 1.069h17.46a1.0711 1.0711 0 0 0 1.0699-1.069v-5.7623a1.0711 1.0711 0 0 0-1.0699-1.069h-7.5694v-17.259a1.0215 2.6945 0 0 0-1.0218-2.6976z"/>
   </g>
  </g>
  <g transform="matrix(0 -8.444 8.25 0 -22.951 -76.712)">
   <path d="m-6.7182 0.43198c0.011529-0.31245 0.010783-0.63183-0.00289-0.95733-0.091165-2.17-0.7786-4.6103-2.5574-7.049a1.119 1.1453 0 0 0-1.5671-0.2323 1.119 1.1453 0 0 0-0.22697 1.6025c1.3995 1.9187 1.984 3.7273 2.1164 5.3548h-5.4443a0.84907 0.84907 0 0 0-0.85004 0.84932 0.84907 0.84907 0 0 0 0.85004 0.84932h5.427c-0.056099 0.56449-0.15794 1.0995-0.28624 1.601-0.58916 2.3027-1.7492 3.7598-1.7492 3.7598a1.119 1.1453 0 0 0 0.15758 1.6128 1.119 1.1453 0 0 0 1.5743-0.16276s1.4657-1.832 2.1815-4.6298c0.20133-0.7869 0.34273-1.6609 0.37732-2.5983z"/>
  </g>
  <g transform="translate(-155.37 -13.499)">
   <path d="m98.547-71.333h16.583v5.9167h-16.583v17.167h-6v-17.167h-16.583v-5.9167h16.583v-17.25h6z"/>
   <path d="m92.547-91.713-3.1309 3.1309v14.119h-13.453l-3.1289 3.1309v5.916l3.1289 3.1309h13.453v14.035l3.1309 3.1309h6l3.1289-3.1309v-14.035h13.455l3.1289-3.1309v-5.916l-3.1289-3.1309h-13.455v-14.119l-3.1289-3.1309zm3 20.51 2.8281 2.8281-2.8281 2.8301-2.8281-2.8301z"/>
  </g>
 </g>
</svg>
