<svg width="5.5335mm" height="8.3773mm" version="1.2" viewBox="0 0 130.71 197.89" xmlns="http://www.w3.org/2000/svg">
 <g transform="translate(131.02 125.51)">
  <g transform="matrix(6.6645 0 0 5.1604 -65.634 -53.364)">
   <g>
    <path d="m0.1415-13.981a1.0511 1.3893 0 0 0-1.0514 1.3909v8.6389h-7.8211a1.0711 1.0711 0 0 0-1.0697 1.0716v5.76a1.071 1.071 0 0 0 1.0697 1.0716h17.461a1.0711 1.0711 0 0 0 1.0715-1.0716v-5.76a1.0711 1.0711 0 0 0-1.0715-1.0716h-7.5354v-8.6389a1.0511 1.3893 0 0 0-1.0532-1.3909z"/>
   </g>
  </g>
  <g transform="matrix(0 -8.444 8.25 0 -65.892 -56.389)">
   <path d="m-4.3419-7.0291a0.65458 0.86524 0 0 0-0.65344-0.86559h-3.5216a0.65451 0.86515 0 0 0-0.65488 0.86559v6.179h-5.2289a0.84907 0.84907 0 0 0-0.8486 0.8508 0.84907 0.84907 0 0 0 0.8486 0.84932h5.2289v6.2263a0.65458 0.86524 0 0 0 0.65488 0.86411h3.5216a0.65458 0.86524 0 0 0 0.65344-0.86411z"/>
  </g>
  <g transform="matrix(6.6645 0 0 5.1604 132.65 32.067)"></g>
 </g>
</svg>
