<svg width="5.6896mm" height="6.7593mm" version="1.2" viewBox="0 0 134.4 159.67" xmlns="http://www.w3.org/2000/svg">
 <g transform="translate(90.685 120.83)">
  <g transform="matrix(6.8571 0 0 2.6608 -23.485 -57.22)">
   <g>
    <path d="m0.13878-23.906a1.0215 2.6945 0 0 0-1.0218 2.6976v17.259h-7.8471a1.0711 1.0711 0 0 0-1.0699 1.069v5.7623a1.071 1.071 0 0 0 1.0699 1.069h17.46a1.0711 1.0711 0 0 0 1.0699-1.069v-5.7623a1.0711 1.0711 0 0 0-1.0699-1.069h-7.5694v-17.259a1.0215 2.6945 0 0 0-1.0218-2.6976z"/>
   </g>
  </g>
  <g transform="matrix(0 -8.444 8.25 0 -23.778 -89.935)">
   <path d="m-6.7312-0.51055c-0.08267-2.1738-0.75902-4.6122-2.5472-7.0638a1.119 1.1453 0 0 0-1.5671-0.2323 1.119 1.1453 0 0 0-0.22697 1.6025c1.3943 1.9116 1.9865 3.7262 2.1251 5.3548h-5.453a0.84907 0.84907 0 0 0-0.85004 0.84932 0.84907 0.84907 0 0 0 0.85004 0.84932h5.4414c-0.12126 1.2374-0.47012 2.3235-0.84426 3.2079-0.58289 1.3779-1.2057 2.1529-1.2057 2.1529a1.119 1.1453 0 0 0 0.15758 1.6128 1.119 1.1453 0 0 0 1.5743-0.16276s0.82857-1.0429 1.5266-2.693c0.59003-1.3948 1.1019-3.3038 1.0192-5.4776z"/>
  </g>
 </g>
</svg>
