/* XPM */
static char * app_xpm[] = {
"48 48 668 2",
"  	c None",
". 	c #B0BBC4",
"+ 	c #737A81",
"@ 	c #A2ACB4",
"# 	c #B1BCC5",
"$ 	c #A8B2BB",
"% 	c #7A8188",
"& 	c #AFB9C3",
"* 	c #9199A1",
"= 	c #AAB5BE",
"- 	c #868F95",
"; 	c #ACB6BE",
"> 	c #AEB8C1",
", 	c #919CA6",
"' 	c #B1BAC1",
") 	c #A9B4BE",
"! 	c #818B94",
"~ 	c #B2BBC3",
"{ 	c #ACB6BF",
"] 	c #87929B",
"^ 	c #ACB5BD",
"/ 	c #ADB6C0",
"( 	c #939DA8",
"_ 	c #B2BCC4",
": 	c #B0B9C2",
"< 	c #909AA4",
"[ 	c #B0B9C1",
"} 	c #9FABB6",
"| 	c #888A88",
"1 	c #9A9C9C",
"2 	c #858A8B",
"3 	c #535652",
"4 	c #555855",
"5 	c #939492",
"6 	c #999D9E",
"7 	c #737777",
"8 	c #51534F",
"9 	c #929493",
"0 	c #999D9C",
"a 	c #7A7F7F",
"b 	c #525451",
"c 	c #878886",
"d 	c #9A9D9E",
"e 	c #868A8A",
"f 	c #494B47",
"g 	c #8B8D8D",
"h 	c #9C9FA0",
"i 	c #828688",
"j 	c #595B5A",
"k 	c #797A78",
"l 	c #9C9F9F",
"m 	c #929799",
"n 	c #515350",
"o 	c #575A56",
"p 	c #585B57",
"q 	c #71726F",
"r 	c #737573",
"s 	c #6E706D",
"t 	c #717270",
"u 	c #767775",
"v 	c #737572",
"w 	c #6E6F6C",
"x 	c #6C6D69",
"y 	c #70726E",
"z 	c #737471",
"A 	c #6D6E6B",
"B 	c #6B6D69",
"C 	c #727370",
"D 	c #757674",
"E 	c #6B6D6B",
"F 	c #676965",
"G 	c #6A6B68",
"H 	c #6F716E",
"I 	c #686A67",
"J 	c #656764",
"K 	c #676966",
"L 	c #636461",
"M 	c #646562",
"N 	c #6A6C69",
"O 	c #6B6D6A",
"P 	c #666765",
"Q 	c #70716E",
"R 	c #858783",
"S 	c #81837F",
"T 	c #81837E",
"U 	c #80827E",
"V 	c #7F827D",
"W 	c #7F827E",
"X 	c #676B6A",
"Y 	c #696D6B",
"Z 	c #80837E",
"` 	c #7F817C",
" .	c #80827D",
"..	c #7F817D",
"+.	c #7E807C",
"@.	c #7F807C",
"#.	c #434542",
"$.	c #5D605F",
"%.	c #9E9F9A",
"&.	c #A3A5A0",
"*.	c #A1A39E",
"=.	c #A2A39E",
"-.	c #A1A49E",
";.	c #A2A49E",
">.	c #A2A59F",
",.	c #A1A49D",
"'.	c #A0A39D",
").	c #999B96",
"!.	c #737774",
"~.	c #747876",
"{.	c #989B96",
"].	c #A3A59F",
"^.	c #A2A59E",
"/.	c #A2A49F",
"(.	c #343737",
"_.	c #575B5E",
":.	c #5C5F5F",
"<.	c #6C6D6B",
"[.	c #656765",
"}.	c #656865",
"|.	c #646664",
"1.	c #646764",
"2.	c #646663",
"3.	c #626462",
"4.	c #5D5F5D",
"5.	c #5B5E5C",
"6.	c #616462",
"7.	c #606361",
"8.	c #606261",
"9.	c #5F6260",
"0.	c #5E6260",
"a.	c #5D615F",
"b.	c #5C605F",
"c.	c #5B5E5D",
"d.	c #5D605E",
"e.	c #4F5353",
"f.	c #4F5455",
"g.	c #8C99A4",
"h.	c #B0BAC3",
"i.	c #BFC6CC",
"j.	c #777C7F",
"k.	c #555859",
"l.	c #505351",
"m.	c #4D504D",
"n.	c #4D4F4D",
"o.	c #4E504E",
"p.	c #4C4F4D",
"q.	c #4C4F4C",
"r.	c #4B4E4C",
"s.	c #4B4D4B",
"t.	c #4A4D4B",
"u.	c #494C4A",
"v.	c #494C4B",
"w.	c #484C4A",
"x.	c #484B4A",
"y.	c #474A49",
"z.	c #464A49",
"A.	c #464948",
"B.	c #464848",
"C.	c #454848",
"D.	c #454948",
"E.	c #434847",
"F.	c #434746",
"G.	c #424645",
"H.	c #414545",
"I.	c #404444",
"J.	c #707477",
"K.	c #B1BAC3",
"L.	c #8D99A5",
"M.	c #8D969E",
"N.	c #A7B1BA",
"O.	c #686F73",
"P.	c #555858",
"Q.	c #515452",
"R.	c #4F5250",
"S.	c #505250",
"T.	c #4E524F",
"U.	c #4E514E",
"V.	c #4D504E",
"W.	c #4C504E",
"X.	c #4C4E4D",
"Y.	c #4B4E4D",
"Z.	c #4A4C4C",
"`.	c #484C4B",
" +	c #484B4B",
".+	c #474A4A",
"++	c #464A48",
"@+	c #464949",
"#+	c #404445",
"$+	c #5E6468",
"%+	c #383C3E",
"&+	c #565959",
"*+	c #525552",
"=+	c #4E514F",
"-+	c #4F514F",
";+	c #4E504F",
">+	c #4D504F",
",+	c #4B4D4C",
"'+	c #4A4D4C",
")+	c #474B4A",
"!+	c #444948",
"~+	c #444847",
"{+	c #434747",
"]+	c #424646",
"^+	c #313537",
"/+	c #474B4C",
"(+	c #555758",
"_+	c #515351",
":+	c #4D4F4E",
"<+	c #4A4E4C",
"[+	c #474B49",
"}+	c #444848",
"|+	c #434647",
"1+	c #444749",
"2+	c #A5AEB7",
"3+	c #C1C9D0",
"4+	c #787D81",
"5+	c #525555",
"6+	c #4D514F",
"7+	c #494D4B",
"8+	c #444747",
"9+	c #3F4344",
"0+	c #73777A",
"a+	c #C1CAD0",
"b+	c #A5AFB7",
"c+	c #7B8790",
"d+	c #9DA7AF",
"e+	c #ACB7BF",
"f+	c #6B7277",
"g+	c #505454",
"h+	c #464B49",
"i+	c #464A4A",
"j+	c #63696D",
"k+	c #9CA7AF",
"l+	c #7B8791",
"m+	c #3B3F41",
"n+	c #515454",
"o+	c #4C4F4E",
"p+	c #4F5150",
"q+	c #6A6C6B",
"r+	c #7B7E7C",
"s+	c #696C6A",
"t+	c #595C5B",
"u+	c #636665",
"v+	c #474C4B",
"w+	c #646766",
"x+	c #555857",
"y+	c #343739",
"z+	c #B2B8BD",
"A+	c #5B5F61",
"B+	c #505353",
"C+	c #575B59",
"D+	c #8C8E8D",
"E+	c #8F9291",
"F+	c #919392",
"G+	c #B1B3B1",
"H+	c #6B6E6D",
"I+	c #8A8D8B",
"J+	c #757876",
"K+	c #969896",
"L+	c #5A5E5D",
"M+	c #444746",
"N+	c #595D5E",
"O+	c #B2B9BD",
"P+	c #8895A0",
"Q+	c #BEC7CE",
"R+	c #777C80",
"S+	c #4E5151",
"T+	c #939694",
"U+	c #767A78",
"V+	c #4B4E4E",
"W+	c #444846",
"X+	c #959896",
"Y+	c #ADAFAD",
"Z+	c #646866",
"`+	c #A6A8A6",
" @	c #606362",
".@	c #828583",
"+@	c #848785",
"@@	c #3F4243",
"#@	c #72777A",
"$@	c #929CA4",
"%@	c #A0AAB2",
"&@	c #62686C",
"*@	c #4C4F50",
"=@	c #747675",
"-@	c #494D4C",
";@	c #999C9A",
">@	c #A8ABA9",
",@	c #ACAEAD",
"'@	c #797B7A",
")@	c #989A98",
"!@	c #AFB0AF",
"~@	c #454847",
"{@	c #414645",
"]@	c #5A5F63",
"^@	c #A0ABB2",
"/@	c #34393A",
"(@	c #4C504F",
"_@	c #7F8281",
":@	c #A4A6A5",
"<@	c #616564",
"[@	c #6F7270",
"}@	c #909391",
"|@	c #8E918F",
"1@	c #979998",
"2@	c #5B5F5E",
"3@	c #7F8280",
"4@	c #454949",
"5@	c #434646",
"6@	c #424546",
"7@	c #303335",
"8@	c #2F3235",
"9@	c #4C4F4F",
"0@	c #4B4F4D",
"a@	c #4A4D4D",
"b@	c #585B5A",
"c@	c #989A99",
"d@	c #9B9E9D",
"e@	c #858886",
"f@	c #777A79",
"g@	c #838684",
"h@	c #7C7E7D",
"i@	c #8C8E8B",
"j@	c #494E4C",
"k@	c #737675",
"l@	c #494C4C",
"m@	c #434848",
"n@	c #424545",
"o@	c #2E3232",
"p@	c #B6BDC2",
"q@	c #656A6D",
"r@	c #4A4E4E",
"s@	c #515554",
"t@	c #606462",
"u@	c #565A58",
"v@	c #565A59",
"w@	c #4A4E4D",
"x@	c #5C5F5D",
"y@	c #595C5C",
"z@	c #5A5D5C",
"A@	c #4D5151",
"B@	c #505453",
"C@	c #555958",
"D@	c #414445",
"E@	c #626669",
"F@	c #B5BCC2",
"G@	c #B2BCC6",
"H@	c #BAC3CA",
"I@	c #72787C",
"J@	c #5C5F5E",
"K@	c #7C7F7D",
"L@	c #717372",
"M@	c #676B69",
"N@	c #767978",
"O@	c #808281",
"P@	c #757877",
"Q@	c #818382",
"R@	c #818483",
"S@	c #6C6F6E",
"T@	c #666968",
"U@	c #595D5B",
"V@	c #6F7271",
"W@	c #6D6F6E",
"X@	c #3E4243",
"Y@	c #6D7175",
"Z@	c #B9C3CA",
"`@	c #8B99A4",
" #	c #6E767C",
".#	c #97A0A8",
"+#	c #5A6064",
"@#	c #616463",
"##	c #828483",
"$#	c #4F5352",
"%#	c #959796",
"&#	c #676A69",
"*#	c #848786",
"=#	c #808381",
"-#	c #929492",
";#	c #7A7C7B",
">#	c #6E7170",
",#	c #909290",
"'#	c #707472",
")#	c #686B6A",
"!#	c #787B79",
"~#	c #484D4C",
"{#	c #727675",
"]#	c #727574",
"^#	c #3F4443",
"/#	c #3F4444",
"(#	c #52585B",
"_#	c #97A1A8",
":#	c #282C2D",
"<#	c #474B4B",
"[#	c #5D6160",
"}#	c #4E5251",
"|#	c #8B8E8B",
"1#	c #8D908E",
"2#	c #797D7B",
"3#	c #787B7A",
"4#	c #555959",
"5#	c #7B7E7D",
"6#	c #696C6B",
"7#	c #898C8A",
"8#	c #3E4343",
"9#	c #26292A",
"0#	c #AFB4B9",
"a#	c #5E6264",
"b#	c #454849",
"c#	c #4E5150",
"d#	c #565958",
"e#	c #4B4F4E",
"f#	c #656967",
"g#	c #626564",
"h#	c #575A5A",
"i#	c #656968",
"j#	c #4F5251",
"k#	c #535655",
"l#	c #494E4D",
"m#	c #676A6A",
"n#	c #636766",
"o#	c #595D5C",
"p#	c #424647",
"q#	c #414446",
"r#	c #5C5F61",
"s#	c #88959F",
"t#	c #BDC5CC",
"u#	c #757A7E",
"v#	c #414444",
"w#	c #717473",
"x#	c #727674",
"y#	c #7E817F",
"z#	c #747877",
"A#	c #818482",
"B#	c #6D706F",
"C#	c #6F7371",
"D#	c #3F4242",
"E#	c #3F4343",
"F#	c #3D4242",
"G#	c #3E4142",
"H#	c #6F7478",
"I#	c #BCC5CC",
"J#	c #838C94",
"K#	c #9EA8B1",
"L#	c #5E6469",
"M#	c #575B5A",
"N#	c #808382",
"O#	c #868A88",
"P#	c #919492",
"Q#	c #737574",
"R#	c #535756",
"S#	c #414646",
"T#	c #3E4242",
"U#	c #575D61",
"V#	c #292C2D",
"W#	c #686C6B",
"X#	c #8E918E",
"Y#	c #888B89",
"Z#	c #6E7271",
"`#	c #969997",
" $	c #444949",
".$	c #B0B6BD",
"+$	c #5B6062",
"@$	c #525554",
"#$	c #505554",
"$$	c #5F6362",
"%$	c #545857",
"&$	c #414546",
"*$	c #595D5F",
"=$	c #B3BDC6",
"-$	c #BEC6CD",
";$	c #747A7E",
">$	c #525655",
",$	c #757977",
"'$	c #525656",
")$	c #4D5150",
"!$	c #7D807F",
"~$	c #7D807E",
"{$	c #5F6262",
"]$	c #7A7E7C",
"^$	c #3D4142",
"/$	c #8C959D",
"($	c #9DA7B0",
"_$	c #5F666A",
":$	c #414544",
"<$	c #9FA19F",
"[$	c #909291",
"}$	c #818583",
"|$	c #7E8280",
"1$	c #7B7F7E",
"2$	c #929592",
"3$	c #535757",
"4$	c #3D4243",
"5$	c #3C4141",
"6$	c #595F62",
"7$	c #9EA8B0",
"8$	c #333739",
"9$	c #929594",
"0$	c #747676",
"a$	c #717573",
"b$	c #737775",
"c$	c #585C5C",
"d$	c #7E8180",
"e$	c #5F6261",
"f$	c #5B605F",
"g$	c #424747",
"h$	c #3C4142",
"i$	c #303435",
"j$	c #4B4F51",
"k$	c #424746",
"l$	c #545756",
"m$	c #616464",
"n$	c #484C4C",
"o$	c #474C4C",
"p$	c #5E6161",
"q$	c #3A3E3E",
"r$	c #585D5C",
"s$	c #6C706E",
"t$	c #4D5152",
"u$	c #5C6060",
"v$	c #404344",
"w$	c #4A4D4F",
"x$	c #8996A1",
"y$	c #A8B2BA",
"z$	c #BFC6CD",
"A$	c #757B7E",
"B$	c #404546",
"C$	c #6A6D6C",
"D$	c #6B6F6E",
"E$	c #707473",
"F$	c #626665",
"G$	c #646867",
"H$	c #6E7270",
"I$	c #6A6E6C",
"J$	c #6B6F6D",
"K$	c #3C4041",
"L$	c #3B4041",
"M$	c #3D4042",
"N$	c #727579",
"O$	c #8E989F",
"P$	c #ADB7C0",
"Q$	c #696F74",
"R$	c #5D6060",
"S$	c #898D8B",
"T$	c #A0A3A1",
"U$	c #6A6E6D",
"V$	c #636867",
"W$	c #737776",
"X$	c #3B4040",
"Y$	c #63676C",
"Z$	c #2D3032",
"`$	c #5A5E5E",
" %	c #7A7D7D",
".%	c #8D908F",
"+%	c #969A97",
"@%	c #797D7C",
"#%	c #878B89",
"$%	c #747777",
"%%	c #777B7A",
"&%	c #8A8E8C",
"*%	c #484D4D",
"=%	c #3A4040",
"-%	c #3E4244",
";%	c #292B2D",
">%	c #4E5355",
",%	c #404545",
"'%	c #454A49",
")%	c #4F5453",
"!%	c #6D7171",
"~%	c #656A69",
"{%	c #414547",
"]%	c #3B4141",
"^%	c #3A3F40",
"/%	c #3C4042",
"(%	c #3F4445",
"_%	c #4D5153",
":%	c #ADB8C1",
"<%	c #BFC7CD",
"[%	c #73797C",
"}%	c #3B3F40",
"|%	c #393D3E",
"1%	c #373B3C",
"2%	c #393E3E",
"3%	c #383D3E",
"4%	c #393E3F",
"5%	c #C0C6CE",
"6%	c #818D98",
"7%	c #A1ABB3",
"8%	c #A6B0B8",
"9%	c #656C71",
"0%	c #3F4345",
"a%	c #383E3F",
"b%	c #A7B0B9",
"c%	c #404547",
"d%	c #3E4344",
"e%	c #3B4142",
"f%	c #3A3E3F",
"g%	c #3A3E40",
"h%	c #393F3F",
"i%	c #2F3131",
"j%	c #3C4243",
"k%	c #3C4143",
"l%	c #3B4042",
"m%	c #3A4041",
"n%	c #383D3F",
"o%	c #393E40",
"p%	c #2D3030",
"q%	c #3E403E",
"r%	c #525352",
"s%	c #454747",
"t%	c #484A49",
"u%	c #4D5050",
"v%	c #474948",
"w%	c #4C4E4E",
"x%	c #484B4C",
"y%	c #424544",
"z%	c #434645",
"A%	c #494C4D",
"B%	c #434545",
"C%	c #4B4F4F",
"D%	c #505252",
"E%	c #3C3F3D",
"F%	c #4A4B48",
"G%	c #494B48",
"H%	c #6F7171",
"I%	c #95999A",
"J%	c #808688",
"K%	c #565957",
"L%	c #474A47",
"M%	c #7F817F",
"N%	c #939898",
"O%	c #787D80",
"P%	c #414340",
"Q%	c #7E8080",
"R%	c #949899",
"S%	c #787E80",
"T%	c #6D6F6D",
"U%	c #929698",
"V%	c #454746",
"W%	c #707371",
"X%	c #808689",
"Y%	c #585C5B",
"Z%	c #5C5E5C",
"`%	c #8C9194",
" &	c #4A4C49",
".&	c #494B49",
"+&	c #B2BAC2",
"@&	c #97A1AA",
"#&	c #A3A8AD",
"$&	c #AEB6BE",
"%&	c #8F98A1",
"&&	c #A2A8B0",
"*&	c #B0B8C0",
"=&	c #8F98A0",
"-&	c #ACB4BB",
";&	c #9CA5AF",
">&	c #99A2AB",
",&	c #AAB1B8",
"'&	c #A3ACB6",
")&	c #9098A0",
"!&	c #AAB4BC",
"~&	c #81888E",
"{&	c #B4BEC6",
"]&	c #949CA3",
"^&	c #AAB4BD",
"/&	c #8A9299",
"(&	c #A4ADB6",
"_&	c #98A0A8",
"                                                                                                ",
"                                                                                                ",
"                          . +       @       #       $ %     & *     = -                         ",
"                        ; > ,     ' ) !   ~ { ]   ^ / (   _ : <     [ }                         ",
"                        | 1 2 3 4 5 6 7 8 9 0 a b c d e f g h i j k l m n o p                   ",
"                      q r s t u v w x y z A B C D E F G H I J K B I L M N O P f                 ",
"                    Q R S S T U T T V U V U W X Y V Z `  .V ........+.+.+.@.w #.                ",
"                  $.%.&.*.=.-.;.>.,.*.;.'.>.).!.~.{.].;.^.;.-.>.>./.;./.*.-.r (.                ",
"                _.:.<.[.}.J }.|.[.1.2.2.3.3.|.4.5.6.3.7.8.9.0.0.0.a.a.b.c.d.e.f.                ",
"          g.h.i.j.k.l.m.m.n.o.p.q.r.s.t.u.u.v.w.x.y.z.A.B.C.D.D.E.F.G.H.I.H.H.J.i.K.L.          ",
"            M.N.O.P.Q.R.S.S.R.R.T.U.o.V.W.p.p.X.Y.Z.`.`.v.w.x. +.+++@+D.C.D.#+$+N.M.            ",
"                %+&+*+=+-+;+-+=+V.>+p.n.Y.Y.Y.,+'+'+v.`.x.)+)+y.@+z.!+~+{+~+]+^+                ",
"                /+(+_+=+=+;+=+=+:+W.W.p.r.Y.Y.<+'+t.x. +.+)+[+z.A.D.D.~+{+}+|+1+                ",
"            2+3+4+5+l.V.V.6+>+=+>+V.n.r.r.r.<+'+7+7+w.x.)+.+y.)+z.D.C.{+{+8+9+0+a+b+            ",
"          c+d+e+f+g+R.n.=+V.V.V.V.V.r.x.x.x.'+v.7+ +h+y.)+i+z.z.z.A.~+}+]+~+9+j+e+k+l+          ",
"                m+n+R.m.V.:+p.o+p.t.p+q+r+s+>+`.z.t+u+v+w+x+C.@+@+~+}+{+]+F.H.y+                ",
"              z+A+B+=+o+n.p.p.r.t.C+D+E+F+G+H+G.A.I+J+x+K+L+M+C.D.}+{+F.{+]+H.N+O+              ",
"          P+$ Q+R+S+=+p.p.p.p.'+=+T+U+V+W+X+Y+Z+D+`+ @.@+@F.A.8+8+~+{+{+{+{+@@#@Q+$ P+          ",
"            $@%@&@*@>+p.<+Y.Y.++=@F+-@F.j ;@>@,@'@)@`+!@L+F.D.D.~@{+{+G.{@|+@@]@^@$@            ",
"                /@(@V.r.r.r.'+M+_@:@<@[@}@|@`+1@D.2@T+3@8+4@C.}+8+8+5@]+{@]+6@7@                ",
"                8@9@0@r.Y.'+a@y.b@c@d@e@f@g@h@i@j@H+k@l@8+{+m@]+F.]+]+]+n@6@|+o@                ",
"              p@q@r@0@v.'+7+v.V+s@$.t@u@v@u@w@x@-@y@z@A@z@B@l@(@8+C@l@D@n@5@H.E@F@              ",
"          g.G@H@I@ +Y.v.l@'+z.J@K@L@X+M@N@O@P@Q@P@R@S@T@| U@V@k@s@K@W@]+#+H.X@Y@Z@G@`@          ",
"             #.#+#i+'+v.v.`.D.@###$#%#A.&#*#=#F+1@-#;#>#,#'#)#!#~#{#]#^#/#H.@@(#_# #            ",
"                :#<#<+x.x.`.z.[#r+}#|#B+1#w+Z+2###3#9@4#~.5#6#3@<@7#C@]+8#H.|+9#                ",
"              0#a#b# +.+.+.+.+c#d#z.x@e#f#g#h#i#j#k#H.l#u+s@[#m#2@n#o#p#8#I.q#r#0#              ",
"          s#N.t#u#{+z.z.y.y.z.D.v#w#.@x#r+y#i+z#A#B#5+C#D#I.9+E#E#F#X@/#/#I.G#H#I#N.s#          ",
"            J#K#L#{+)+4@@+C.A.e#M#N#O#P#Q#3@R#w+_@P@+@c.v#H.S#H.I.I.9+9+8#I.T#U#K#J#            ",
"                V#}+z.D.}+D.~+$#W#X#Y#1#.@7#Z#I+w+[@`# $I.H.H.I.I.I.9+X@8#9+H.9#                ",
"              .$+$}+z.}+D.!+D.!+{@@$J@#$M#C+&+$$.+A@%$<#n@S#&$H.I.9+8#F#F#8##+*$.$              ",
"          g.=$-$;$]+~+{+D.!+G.>$O@s@!#,$'$)$!$o#&+Y Y ~${$]$<@E#I.E#8#X@^$8#X@J.-$=$g.          ",
"            /$($_$p#D.8+E.~+:$U@<$B#P#[$.@}$|$1$H+}$,$l@>$2$3$E#E#X@X@^$^$4$5$6$7$/$            ",
"                8$}+~+E.8+{+H.o#g@9$0$1#k@a$b$3#+@c$d$e$f$O#g$^$X@9+F#h$^$^$#+i$                ",
"                j${+}+{+k${+]+V+l$[#g+m$(@n$v@o$p$q$r$s$t$u$&$4$4$4$^$^$h$4$v$w$                ",
"          x$y$z$A$B${+F.{@]+H.'+C$D$}+>#%$E$F$G$H$F$I$J$I.4$X@8#X@h$5$K$L$h$M$N$z$$ x$          ",
"            O$P$Q$H.g$]+]+]+T#R$]$S$u$T$U$e@N@V$W$x#u+O#g$X@F#^$h$F#K$L$X$L$K$Y$P$O$            ",
"                Z$p#]+H.6@H.8#`$ %.%U++%@%#%$%%%&%M#G$Y#*%h$X@5$h$^$5$L$=%h$-%;%                ",
"                >%|+]+I.{@,%/#'%G$i#S#b.)%J$[#)#!%p$X ~%{%h$h$]%5$L$^%X$^%/%(%_%                ",
"          L.:%<%[%,%{@I.#+,%/#/#K$}%F#X$X$q$}%|%1%2%2%3%F#h$5$h$5$}%^%^%4%^%K$J.5%> L.          ",
"          6%7%8%9%0%#+v$I.9+9+9+/#E#9+E#F#X@8#X@^$h$F#F#^$5$L$K$L$m+}%^%a%m+L$$+b%7%6%          ",
"                c%&$,%8#8#8#/#d%d%4$4$8#F#h$X@^$h$h$h$e%L$L$K$L$^%^%f%g%3%h%d%m+                ",
"                i%b#9+-%d%-%9+E#E#d%X@4$4$j%4$4$k%h$k%L$L$l%l%l%m%m+^%^%n%o%}+p%                ",
"                q%r%>+l@s%A.o+c#x.~@t%u%y.M+v%w%x%y%z%9@ +n@~@w@A%B%z%-@V+C%D%E%                ",
"                  F%G%H%I%J%K%L%M%N%O%P%Q%R%S%;+T%l U%V%W%R%X%Y%Z%c@`%b@G% &.&                  ",
"                        +&@&    #&$&%&  &&*&=&    -&;&    *&>&    ,&'&                          ",
"                        =$)&      !&~&    {&]&    ^&/&    > (&    ^&_&                          ",
"                                                                                                ",
"                                                                                                "};
