<svg width="6.0653mm" height="6.4125mm" version="1.2" viewBox="0 0 143.27 151.48" xmlns="http://www.w3.org/2000/svg">
 <g transform="translate(113.68 135.16)">
  <g transform="matrix(6.828 0 0 2.9824 -40.654 -63.255)">
   <g>
    <path d="m0.017731-24.111a1.0259 2.5955 0 0 0-1.0262 2.5991v17.334a1.0259 2.5955 0 0 0 0.00358 0.22512h-7.7251a1.0711 1.0711 0 0 0-1.0709 1.0724v5.763a1.071 1.071 0 0 0 1.0709 1.0683h17.46a1.0711 1.0711 0 0 0 1.0709-1.0683v-5.763a1.0711 1.0711 0 0 0-1.0709-1.0724h-7.6894a1.0259 2.5955 0 0 0 0.00358-0.22512v-17.334a1.0259 2.5955 0 0 0-1.0262-2.5991z"/>
   </g>
  </g>
  <g transform="translate(-173.37 -33.894)">
   <path d="m86.13-0.48885c-5.2 0-9.6412 1.0195-13.33 3.064-3.6445 2-6.4551 4.815-8.4107 8.4595-1.9556 3.6445-2.9297 7.9617-2.9297 12.939 0 5.0222 0.86677 9.3727 2.6001 13.062 1.7778 3.6445 4.3615 6.4717 7.7393 8.4717 3.3778 1.9556 7.5301 2.9297 12.463 2.9297 3.3333 0 6.3133-0.19814 8.9356-0.59815s5.2225-1.0232 7.8003-1.8677v-23.328h-16.467v5.3345h10.461v14.124c-1.2 0.31111-2.525 0.58344-3.9917 0.80567-1.4667 0.22222-3.2456 0.32959-5.3345 0.32959-4.2667 0-7.7172-0.79258-10.339-2.3926-2.6222-1.6444-4.5539-3.9226-5.7984-6.8115-1.2-2.9333-1.8066-6.2808-1.8066-10.059 0-5.9556 1.5808-10.653 4.7363-14.075 3.2-3.4222 7.6534-5.127 13.342-5.127 2.2667 0 4.4419 0.26012 6.5308 0.79346 2.1333 0.53334 4.0362 1.1854 5.7251 1.9409l2.2705-5.2002c-2.0445-0.88889-4.2651-1.5741-6.6651-2.063-2.3556-0.48889-4.8651-0.73242-7.5318-0.73242zm26.27 0.65918v47.608h5.5298v-26.611c0-2.4445-0.0742-4.8178-0.20752-7.1289-0.13333-2.3111-0.2407-4.2428-0.32959-5.7984h0.26856l25.464 39.539h7.0068v-47.608h-5.603v26.868c0 1.4222 0.0166 2.9742 0.061 4.6631 0.0889 1.6889 0.16306 3.2531 0.20752 4.6753 0.0889 1.4222 0.15085 2.4871 0.19532 3.1983h-0.26856l-25.391-39.404zm50.659 0v47.608h13.269c7.8222 0 13.906-2.0225 18.262-6.0669 4.4-4.0889 6.604-10.156 6.604-18.201 0-5.1111-0.95755-9.383-2.8687-12.805-1.9111-3.4667-4.6188-6.0836-8.1299-7.8614s-7.6634-2.6733-12.463-2.6733zm6.0059 5.1392h7.8003c5.7334 0 10.158 1.49 13.269 4.4678 3.1556 2.9333 4.7241 7.5727 4.7241 13.928 0 12.622-6.4471 18.933-19.336 18.933h-6.4575z"/>
   <path d="m86.13-2.2711c-5.4291 0-10.188 1.0829-14.185 3.2959-3.9252 2.1541-6.998 5.2502-9.1065 9.1797-2.1145 3.9406-3.1494 8.5598-3.1494 13.77 0 5.2261 0.90606 9.8494 2.771 13.818l0.01221 0.02441c1.9156 3.9271 4.7564 7.0454 8.4229 9.2163h0.01221c3.7015 2.1429 8.1871 3.1738 13.355 3.1738 3.4042 0 6.4713-0.20568 9.2041-0.62256 2.7204-0.41498 5.413-1.0547 8.0811-1.9287l1.2207-1.6846v-23.328l-1.77-1.7822h-16.467l-1.77 1.7822v5.3345l1.77 1.77h8.6914v10.913c-0.80266 0.17398-1.566 0.34825-2.4902 0.48828-1.3435 0.20356-3.0399 0.31738-5.0659 0.31738-4.0395 0-7.1427-0.76247-9.3994-2.1362-2.3231-1.4593-3.9902-3.4081-5.1026-5.9815-1.0957-2.6838-1.6602-5.7905-1.6602-9.375 0-5.637 1.4452-9.8091 4.2481-12.854v-0.01221c2.8421-3.0383 6.7159-4.5654 12.048-4.5654 2.1277 0 4.1513 0.24929 6.0913 0.74463h0.01221c2.0491 0.51227 3.8552 1.1256 5.4321 1.8311l2.3438-0.90332 2.2705-5.2002-0.91553-2.3316c-2.1662-0.94182-4.5121-1.674-7.0191-2.1851-2.4858-0.51592-5.1108-0.76905-7.8858-0.76905zm26.27 0.67139-1.7822 1.77v47.595l1.7822 1.7822h5.5298l1.77-1.7822v-26.599c0-2.3262-0.0759-4.5753-0.19531-6.7871l22.131 34.351 1.4893 0.81787h7.0068l1.77-1.7822v-47.595l-1.77-1.77h-5.603l-1.77 1.77v26.868c0 1.4407 0.0162 3.01 0.061 4.7119l0.0122 0.04883c0.0318 0.60334 0.035 1.0918 0.061 1.6602l-22.083-34.241-1.477-0.81787zm50.659 0-1.77 1.77v47.595l1.77 1.7822h13.269c8.1276 0 14.727-2.1387 19.47-6.543 4.8244-4.4833 7.1656-11.127 7.1656-19.495 0-5.3319-0.99422-9.9219-3.0884-13.672-2.0706-3.752-5.0679-6.6542-8.8745-8.5816-3.8014-1.9248-8.2503-2.8565-13.269-2.8565zm-76.929 2.8809c2.5584 0 4.9402 0.23395 7.1656 0.6958h0.01221c1.6726 0.34072 3.1398 0.8902 4.6143 1.4282l-0.84229 1.9043c-1.3744-0.52494-2.7206-1.0552-4.3091-1.4526-2.2377-0.57133-4.5646-0.85449-6.9702-0.85449-6.0442 0-11.079 1.8837-14.636 5.6885l-0.01221 0.012207c-3.5028 3.7988-5.2002 9.0026-5.2002 15.271 0 3.9654 0.64 7.55 1.9409 10.73l0.01221 0.03662c1.375 3.192 3.571 5.7795 6.482 7.605h0.02441c2.9869 1.8225 6.7668 2.6611 11.255 2.6611 2.1517 0 4.001-0.11312 5.5908-0.354 1.517-0.22985 2.9165-0.50068 4.187-0.83008l1.3184-1.7212v-14.124l-1.77-1.7822h-8.6914v-1.7822h12.927v20.166c-2.088 0.6238-4.1848 1.1912-6.2988 1.5137-2.5116 0.38312-5.4045 0.57373-8.667 0.57373-4.694 0-8.5199-0.92121-11.572-2.6856-3.0846-1.8276-5.3924-4.3581-7.0313-7.7149-1.5968-3.4056-2.4292-7.4816-2.4292-12.293 0-4.7458 0.92551-8.7489 2.7222-12.097 1.8026-3.3594 4.3267-5.9055 7.6905-7.7515h0.01221c3.3802-1.8734 7.5078-2.8442 12.476-2.8442zm28.04 0.65918h4.1992l24.866 38.587 1.4893 0.81787h0.26856l1.77-1.8799c-0.0437-0.6989-0.10871-1.7635-0.19531-3.1494-0.0449-1.4372-0.11809-3.0003-0.20752-4.6997-0.0432-1.6561-0.061-3.1881-0.061-4.5777v-25.098h2.063v44.055h-4.2725l-24.939-38.721-1.4893-0.80567h-0.26856l-1.77 1.8677c0.0889 1.556 0.20845 3.487 0.34179 5.7984 0.13128 2.2753 0.19532 4.619 0.19532 7.0313v24.829h-1.9898zm50.659 0h12.903c4.5813 0 8.4369 0.84723 11.658 2.478 3.2126 1.6267 5.6338 3.964 7.3853 7.1411l0.0122 0.01221c1.728 3.0944 2.6367 7.0482 2.6367 11.939 0 7.7215-2.0547 13.2-6.0303 16.895-3.968 3.6834-9.5498 5.5908-17.065 5.5908h-11.499v-27.832zm4.2358 1.5869-1.77 1.7822v37.329l1.77 1.77h6.4698c6.7336 0 12.091-1.6682 15.735-5.2368s5.3589-8.8537 5.3589-15.466c0-6.6444-1.6677-11.854-5.2857-15.222-3.5031-3.3458-8.4445-4.9561-14.478-4.9561zm1.77 3.5523h6.0303c5.4266 0 9.3178 1.3654 12.036 3.9673l0.0244 0.02441c2.6882 2.4989 4.1626 6.572 4.1626 12.634 0 6.0096-1.4965 10.185-4.2969 12.927s-7.1016 4.2359-13.257 4.2359h-4.6997z"/>
  </g>
 </g>
</svg>
