<svg width="8.6718mm" height="2.7339mm" version="1.2" viewBox="0 0 204.85 64.581" xmlns="http://www.w3.org/2000/svg">
 <g transform="translate(-20.485 -90.994)">
  <g transform="matrix(4.2541 0 0 8.25 96.084 35.855)">
   <path d="m16.99 6.6842c-1.664 0.025885-3.2734 0.80009-4.4821 2.1692-0.34472 0.39046-0.64949 0.82159-0.9125 1.2843-0.21753-0.37652-0.46447-0.73185-0.73746-1.0609-1.1804-1.4228-2.7861-2.2628-4.4707-2.3378-1.7807-0.079356-3.526 0.70268-4.815 2.1573-0.32703 0.36905-0.6187 0.77456-0.87232 1.2089-0.21455-0.36991-0.45512-0.71921-0.72311-1.0432-1.1799-1.4261-2.784-2.267-4.4678-2.3423-1.7799-0.07954-3.5237 0.70226-4.8121 2.1603-1.003 1.135-1.6756 2.6162-1.9312 4.2125a0.71582 0.71582 0 0 0-0.15208-0.01628h-5.6701a0.71582 0.71582 0 0 0-0.7145 0.71467 0.71582 0.71582 0 0 0 0.7145 0.71467h5.6701a0.71582 0.71582 0 0 0 0.19226-0.02663l2.7604 0.02959c0.00852-1.1439 0.44408-2.3381 1.1421-3.128 0.69798-0.78985 1.7245-1.2505 2.6887-1.2074 0.91491 0.04089 1.8554 0.53457 2.4965 1.3095 0.64109 0.77491 1.0393 1.8992 1.056 2.9844l0.57677-0.01184c-8.79e-5 0.0086 6.4e-5 0.01659 0 0.02515l2.9183 0.03107c0.00852-1.1412 0.44376-2.3326 1.1421-3.1206 0.6983-0.78802 1.7269-1.2474 2.6916-1.2044 0.91533 0.04079 1.8551 0.53193 2.4965 1.305 0.64137 0.77312 1.0392 1.8958 1.056 2.9785l0.63129-0.01332c-9e-6 0.0011 8e-6 0.0018 0 3e-3l2.9183 0.03107c0.0085-1.1457 0.44362-2.3413 1.1421-3.1324 0.69844-0.7911 1.7267-1.2535 2.6916-1.2104 0.91552 0.04095 1.8549 0.53482 2.4965 1.311 0.64151 0.77614 1.0392 1.9034 1.056 2.9904l2.6428-0.05771a0.76152 0.71582 0 0 0 0.18078 0.02071h6.0317a0.76152 0.71582 0 0 0 0.76042-0.71467 0.76152 0.71582 0 0 0-0.76042-0.71467h-6.0317a0.76152 0.71582 0 0 0-0.03443 0.0015c-0.25146-1.4809-0.86067-2.8589-1.7619-3.9492-1.1806-1.4284-2.7858-2.2714-4.4707-2.3467-0.11132-0.00498-0.22193-0.00616-0.33286-0.00444z"/>
  </g>
 </g>
</svg>
