<svg width="8.7607mm" height="2.804mm" version="1.2" viewBox="0 0 206.95 66.235" xmlns="http://www.w3.org/2000/svg">
 <g transform="translate(190.61 124.63)">
  <g transform="matrix(7.1102 0 0 8.3818 135.33 33)">
   <g>
    <path d="m-40.035-18.807a1.0711 1.0711 0 0 0-1.0713 1.0704v2.0783h-4.0449a0.68996 0.70457 0 0 0-0.69017 0.70343 0.68996 0.70457 0 0 0 0.69017 0.70343h4.0449v2.2763a1.071 1.071 0 0 0 1.0713 1.0704h17.46a1.0711 1.0711 0 0 0 1.0713-1.0704v-2.3608h4.0775a0.68996 0.70457 0 0 0 0.69017-0.70489 0.68996 0.70457 0 0 0-0.69017-0.70343h-4.0775v-1.9923a1.0711 1.0711 0 0 0-1.0713-1.0704z"/>
   </g>
  </g>
 </g>
</svg>
