<?xml version="1.0" encoding="UTF-8" standalone="no"?>
<!-- Created with Inkscape (http://www.inkscape.org/) -->

<svg
   version="1.1"
   id="svg2"
   xml:space="preserve"
   width="1799.51"
   height="502.77802"
   viewBox="0 0 539.85301 150.8334"
   sodipodi:docname="NGI0CommonsFund_tag_white_mono.svg"
   inkscape:version="1.3.2 (091e20ef0f, 2023-11-25)"
   xmlns:inkscape="http://www.inkscape.org/namespaces/inkscape"
   xmlns:sodipodi="http://sodipodi.sourceforge.net/DTD/sodipodi-0.dtd"
   xmlns:xlink="http://www.w3.org/1999/xlink"
   xmlns="http://www.w3.org/2000/svg"
   xmlns:svg="http://www.w3.org/2000/svg"
   xmlns:rdf="http://www.w3.org/1999/02/22-rdf-syntax-ns#"
   xmlns:cc="http://creativecommons.org/ns#"
   xmlns:dc="http://purl.org/dc/elements/1.1/"><sodipodi:namedview
     id="namedview1"
     pagecolor="#ffffff"
     bordercolor="#666666"
     borderopacity="1.0"
     inkscape:showpageshadow="2"
     inkscape:pageopacity="0.0"
     inkscape:pagecheckerboard="0"
     inkscape:deskcolor="#d1d1d1"
     inkscape:zoom="0.10805962"
     inkscape:cx="800.48404"
     inkscape:cy="888.39847"
     inkscape:window-width="856"
     inkscape:window-height="1390"
     inkscape:window-x="0"
     inkscape:window-y="0"
     inkscape:window-maximized="1"
     inkscape:current-layer="svg2" /><metadata
     id="metadata8"><rdf:RDF><cc:Work
         rdf:about=""><dc:format>image/svg+xml</dc:format><dc:type
           rdf:resource="http://purl.org/dc/dcmitype/StillImage" /></cc:Work></rdf:RDF></metadata><defs
     id="defs6"><linearGradient
   id="linearGradient1220"><stop
     id="stop1216"
     offset="0"
     style="stop-color:#98bf00;stop-opacity:1;" /><stop
     id="stop1218"
     offset="1"
     style="stop-color:#98bf00;stop-opacity:0.51" /></linearGradient><linearGradient
   x1="0"
   y1="0"
   x2="1"
   y2="0"
   gradientUnits="userSpaceOnUse"
   gradientTransform="matrix(-139.45511,-135.52185,-135.52185,139.45511,177.4727,131.75308)"
   spreadMethod="pad"
   id="linearGradient28"><stop
     style="stop-opacity:1;stop-color:#00afbc"
     offset="0"
     id="stop24" /><stop
     style="stop-opacity:1;stop-color:#205374"
     offset="1"
     id="stop26" /></linearGradient><clipPath
   clipPathUnits="userSpaceOnUse"
   id="clipPath38"><path
     d="M 0,127.984 H 415.474 V 0 H 0 Z"
     id="path36" /></clipPath><linearGradient
   xlink:href="#linearGradient1220"
   id="linearGradient947"
   gradientUnits="userSpaceOnUse"
   x1="14.915152"
   y1="14.167241"
   x2="214.11908"
   y2="111.76186"
   gradientTransform="matrix(1.3333322,0,0,-1.3333322,-9.9026514,160.73989)" /><clipPath
   clipPathUnits="userSpaceOnUse"
   id="clipPath38-9"><path
     d="M 0,127.984 H 415.474 V 0 H 0 Z"
     id="path36-1" /></clipPath>










<clipPath
   clipPathUnits="userSpaceOnUse"
   id="clipPath38-3"><path
     d="M 0,127.984 H 415.474 V 0 H 0 Z"
     id="path36-5" /></clipPath></defs><path
     d="M 313.7721,77.278343 V 73.59418 l 19.14071,-23.375377 0.6352,2.074988 h -19.47948 v -4.658137 h 24.43405 v 3.684163 l -19.14071,23.375378 -0.67755,-2.074989 h 20.36876 v 4.658137 z m 46.91585,-17.3198 h 14.73665 v 4.531097 h -14.73665 z m 0.42347,12.70401 h 16.72694 v 4.61579 H 355.60634 V 47.635654 h 21.63917 v 4.61579 h -16.13409 z m 34.38122,4.61579 V 47.635654 h 12.19585 q 3.93824,0 6.73312,1.270401 2.83723,1.270401 4.36171,3.641816 1.52448,2.371415 1.52448,5.632111 0,3.260696 -1.52448,5.632111 -1.52448,2.329068 -4.36171,3.599469 -2.79488,1.228055 -6.73312,1.228055 h -9.14689 l 2.45611,-2.498456 v 11.137182 z m 19.39478,0 -7.49536,-10.756061 h 5.88619 l 7.53771,10.756061 z M 400.99771,66.734015 398.5416,64.10852 h 8.89281 q 3.64181,0 5.46272,-1.566828 1.86325,-1.566828 1.86325,-4.36171 0,-2.837229 -1.86325,-4.36171 -1.82091,-1.524481 -5.46272,-1.524481 h -8.89281 l 2.45611,-2.710189 z m 50.85412,10.967795 q -3.47243,0 -6.39435,-1.143361 -2.92193,-1.143361 -5.08161,-3.176002 -2.15968,-2.074988 -3.34539,-4.827524 -1.1857,-2.794882 -1.1857,-6.097924 0,-3.303043 1.1857,-6.055578 1.18571,-2.794882 3.34539,-4.827524 2.15968,-2.074988 5.08161,-3.218349 2.92192,-1.143361 6.352,-1.143361 3.47243,0 6.35201,1.143361 2.92192,1.143361 5.0816,3.218349 2.15968,2.032642 3.34539,4.827524 1.18571,2.752535 1.18571,6.055578 0,3.303042 -1.18571,6.097924 -1.18571,2.794882 -3.34539,4.827524 -2.15968,2.032641 -5.0816,3.176002 -2.87958,1.143361 -6.30966,1.143361 z m -0.0423,-4.827523 q 2.24438,0 4.14998,-0.762241 1.9056,-0.762241 3.30304,-2.159682 1.39744,-1.439787 2.15968,-3.303042 0.80459,-1.905602 0.80459,-4.192323 0,-2.286722 -0.80459,-4.149977 -0.76224,-1.905601 -2.15968,-3.303042 -1.39744,-1.439788 -3.30304,-2.202029 -1.9056,-0.76224 -4.14998,-0.76224 -2.24437,0 -4.14997,0.76224 -1.86326,0.762241 -3.30305,2.202029 -1.39744,1.397441 -2.20203,3.303042 -0.76224,1.863255 -0.76224,4.149977 0,2.244375 0.76224,4.149976 0.80459,1.905602 2.20203,3.345389 1.39744,1.397441 3.30305,2.159682 1.9056,0.762241 4.14997,0.762241 z"
     id="text56-1"
     style="-inkscape-font-specification:'Montserrat Semi-Bold';fill:#ffffff;stroke-width:1.33334"
     aria-label="ZERO" /><g
     aria-label="COMMONS "
     id="text1709"
     style="font-weight:600;font-size:31.9887px;font-family:Montserrat;-inkscape-font-specification:'Montserrat Semi-Bold';text-align:end;letter-spacing:6.6718px;text-anchor:end;fill:#ffffff;stroke-width:1.0072"><path
       d="m 324.32233,114.94382 q -2.55909,0 -4.76631,-0.83171 -2.17523,-0.86369 -3.80666,-2.39915 -1.59943,-1.56745 -2.49512,-3.6787 -0.89568,-2.11125 -0.89568,-4.60637 0,-2.49512 0.89568,-4.606376 0.89569,-2.111255 2.52711,-3.646712 1.63143,-1.567447 3.80666,-2.399153 2.17523,-0.863695 4.76631,-0.863695 2.75103,0 5.02223,0.959661 2.2712,0.927673 3.83864,2.783017 l -2.68705,2.527108 q -1.21557,-1.311537 -2.71904,-1.951311 -1.50347,-0.671763 -3.26284,-0.671763 -1.75938,0 -3.23086,0.575797 -1.43949,0.575796 -2.52711,1.631424 -1.05563,1.055627 -1.66341,2.495123 -0.5758,1.43949 -0.5758,3.16688 0,1.72739 0.5758,3.16688 0.60778,1.43949 1.66341,2.49512 1.08762,1.05562 2.52711,1.63142 1.47148,0.5758 3.23086,0.5758 1.75937,0 3.26284,-0.63978 1.50347,-0.67176 2.71904,-2.01529 l 2.68705,2.5591 q -1.56744,1.82336 -3.83864,2.78302 -2.2712,0.95966 -5.05422,0.95966 z"
       id="path4222"
       style="fill:#ffffff" /><path
       d="m 353.89804,114.94382 q -2.62307,0 -4.83029,-0.8637 -2.20722,-0.86369 -3.83865,-2.39915 -1.63142,-1.56744 -2.5271,-3.64671 -0.89569,-2.11125 -0.89569,-4.60637 0,-2.49512 0.89569,-4.574388 0.89568,-2.111254 2.5271,-3.646712 1.63143,-1.567446 3.83865,-2.431141 2.20722,-0.863695 4.7983,-0.863695 2.62308,0 4.79831,0.863695 2.20722,0.863695 3.83864,2.431141 1.63143,1.535458 2.52711,3.646712 0.89568,2.079268 0.89568,4.574388 0,2.49512 -0.89568,4.60637 -0.89568,2.11125 -2.52711,3.64671 -1.63142,1.53546 -3.83864,2.39915 -2.17523,0.8637 -4.76632,0.8637 z m -0.032,-3.64671 q 1.6954,0 3.1349,-0.5758 1.43949,-0.5758 2.49511,-1.63142 1.05563,-1.08762 1.63143,-2.49512 0.60778,-1.43949 0.60778,-3.16688 0,-1.72739 -0.60778,-3.1349 -0.5758,-1.439488 -1.63143,-2.495115 -1.05562,-1.087616 -2.49511,-1.663412 -1.4395,-0.575797 -3.1349,-0.575797 -1.6954,0 -3.13489,0.575797 -1.4075,0.575796 -2.49512,1.663412 -1.05563,1.055627 -1.66341,2.495115 -0.5758,1.40751 -0.5758,3.1349 0,1.6954 0.5758,3.13489 0.60778,1.43949 1.66341,2.52711 1.05563,1.05562 2.49512,1.63142 1.43949,0.5758 3.13489,0.5758 z"
       id="path4224"
       style="fill:#ffffff" /><path
       d="M 377.01207,114.62393 V 92.231841 h 3.42279 l 9.78854,16.346229 h -1.79137 l 9.6286,-16.346229 h 3.42279 l 0.032,22.392089 h -3.93461 l -0.032,-16.218269 h 0.83171 l -8.18911,13.659179 h -1.85534 L 380.019,98.405661 h 0.95966 v 16.218269 z"
       id="path4226"
       style="fill:#ffffff" /><path
       d="M 414.23307,114.62393 V 92.231841 h 3.42279 l 9.78855,16.346229 h -1.79137 l 9.6286,-16.346229 h 3.42279 l 0.032,22.392089 h -3.93461 l -0.032,-16.218269 h 0.83171 l -8.18911,13.659179 h -1.85535 l -8.31706,-13.659179 h 0.95966 v 16.218269 z"
       id="path4228"
       style="fill:#ffffff" /><path
       d="m 461.94637,114.94382 q -2.62308,0 -4.8303,-0.8637 -2.20722,-0.86369 -3.83864,-2.39915 -1.63142,-1.56744 -2.52711,-3.64671 -0.89568,-2.11125 -0.89568,-4.60637 0,-2.49512 0.89568,-4.574388 0.89569,-2.111254 2.52711,-3.646712 1.63142,-1.567446 3.83864,-2.431141 2.20722,-0.863695 4.79831,-0.863695 2.62307,0 4.7983,0.863695 2.20722,0.863695 3.83865,2.431141 1.63142,1.535458 2.52711,3.646712 0.89568,2.079268 0.89568,4.574388 0,2.49512 -0.89568,4.60637 -0.89569,2.11125 -2.52711,3.64671 -1.63143,1.53546 -3.83865,2.39915 -2.17523,0.8637 -4.76631,0.8637 z m -0.032,-3.64671 q 1.6954,0 3.13489,-0.5758 1.43949,-0.5758 2.49512,-1.63142 1.05563,-1.08762 1.63142,-2.49512 0.60779,-1.43949 0.60779,-3.16688 0,-1.72739 -0.60779,-3.1349 -0.57579,-1.439488 -1.63142,-2.495115 -1.05563,-1.087616 -2.49512,-1.663412 -1.43949,-0.575797 -3.13489,-0.575797 -1.6954,0 -3.13489,0.575797 -1.40751,0.575796 -2.49512,1.663412 -1.05563,1.055627 -1.66341,2.495115 -0.5758,1.40751 -0.5758,3.1349 0,1.6954 0.5758,3.13489 0.60778,1.43949 1.66341,2.52711 1.05563,1.05562 2.49512,1.63142 1.43949,0.5758 3.13489,0.5758 z"
       id="path4230"
       style="fill:#ffffff" /><path
       d="M 485.0604,114.62393 V 92.231841 h 3.42279 l 14.04304,17.241909 h -1.6954 V 92.231841 h 4.12654 v 22.392089 h -3.42279 L 487.49154,97.382022 h 1.6954 v 17.241908 z"
       id="path4232"
       style="fill:#ffffff" /><path
       d="m 524.58457,114.94382 q -2.62307,0 -5.02222,-0.73574 -2.39916,-0.76773 -3.80666,-1.95131 l 1.43949,-3.23086 q 1.34353,1.05563 3.32683,1.75938 1.9833,0.70375 4.06256,0.70375 1.75938,0 2.847,-0.38387 1.08761,-0.38386 1.59943,-1.02363 0.51182,-0.67177 0.51182,-1.50347 0,-1.02364 -0.73574,-1.63143 -0.73574,-0.63977 -1.91932,-0.99165 -1.1516,-0.38386 -2.59109,-0.70375 -1.4075,-0.31988 -2.84699,-0.73574 -1.4075,-0.44784 -2.59109,-1.1196 -1.15159,-0.70375 -1.88733,-1.85535 -0.73574,-1.15159 -0.73574,-2.942957 0,-1.823356 0.95966,-3.326825 0.99165,-1.535458 2.97495,-2.431141 2.01529,-0.927673 5.0862,-0.927673 2.01529,0 3.99859,0.511819 1.9833,0.51182 3.45478,1.471481 l -1.31153,3.230859 q -1.50347,-0.895684 -3.10291,-1.311537 -1.59943,-0.447842 -3.07091,-0.447842 -1.72739,0 -2.81501,0.415853 -1.05563,0.415853 -1.56745,1.087616 -0.47983,0.671763 -0.47983,1.535458 0,1.023638 0.70375,1.663409 0.73574,0.60779 1.88734,0.95966 1.18358,0.35188 2.62307,0.70376 1.43949,0.31988 2.847,0.73574 1.43949,0.41585 2.59108,1.08761 1.18358,0.67176 1.88733,1.82336 0.73574,1.15159 0.73574,2.91097 0,1.79137 -0.99165,3.32682 -0.95966,1.50347 -2.97494,2.43115 -2.01529,0.89568 -5.08621,0.89568 z"
       id="path4234"
       style="fill:#ffffff" /></g><path
     id="path24779"
     style="fill:#ffffff;fill-opacity:1;stroke:none;stroke-width:1.33333"
     d="m 23.734559,9.0000043 c -8.105326,0 -14.7345587,6.6305657 -14.7345587,14.7345587 V 127.09855 c 0,8.10533 6.6292327,14.73455 14.7345587,14.73455 H 243.78087 c 8.104,0 14.73515,-6.63056 14.73515,-14.73455 V 102.7517 c 0,-2.69601 1.07032,-5.28263 2.97832,-7.190629 l 12.12831,-12.127724 c 3.38667,-3.385333 3.37709,-8.876108 -0.0176,-12.250774 L 261.51602,59.159732 c -1.92,-1.907998 -3,-4.505048 -3,-7.211712 V 23.734563 c 0,-8.103993 -6.63115,-14.7345587 -14.73515,-14.7345587 z M 167.57331,31.46366 c 7.44667,0 14.20687,1.25606 20.27753,3.764058 2.632,1.088 5.08274,2.388847 7.34941,3.903513 4.80533,3.209331 5.06012,10.281263 0.42011,13.935926 -2.97733,2.345332 -7.22162,2.377849 -10.34295,0.228516 -4.91334,-3.383998 -10.49186,-5.075972 -16.7332,-5.075972 -5.42399,0 -10.24004,1.134437 -14.44803,3.398436 -4.21066,2.26933 -7.48813,5.464217 -9.83613,9.593545 -2.348,4.127997 -3.52089,8.863544 -3.52089,14.204873 0,5.262662 1.17289,9.957343 3.52089,14.08534 2.348,4.127997 5.60586,7.346649 9.77519,9.653314 4.168,2.306671 8.92374,3.459961 14.26639,3.459961 3.10534,0 6.04131,-0.3652 8.80664,-1.09453 2.94133,-0.776 5.18536,-2.993345 6.06269,-5.777343 0.30933,-0.986666 -0.44658,-1.991599 -1.48125,-1.991599 -5.64932,0 -10.1857,-4.76145 -9.81503,-10.489444 0.33867,-5.226665 4.91211,-9.179877 10.15077,-9.179877 h 9.71073 c 0.0867,0 0.17072,0.01023 0.25606,0.0129 0.0867,-0.0027 0.17072,-0.0129 0.25605,-0.0129 h 0.67442 c 4.77733,0 8.64844,3.871849 8.64844,8.647845 v 12.062685 c 0,9.915993 -6.37351,18.792893 -15.8455,21.728883 -0.06,0.0187 -0.12164,0.0376 -0.18164,0.0563 -6.072,1.86133 -12.1839,2.79317 -18.33457,2.79317 -8.82398,0 -16.75575,-1.88135 -23.79841,-5.64667 -7.04266,-3.764 -12.56657,-8.98403 -16.57322,-15.662689 -4.00667,-6.678661 -6.01055,-14.225302 -6.01055,-22.645296 0,-8.417328 2.00388,-15.96621 6.01055,-22.643536 4.00665,-6.678664 9.57035,-11.900022 16.69568,-15.662685 7.12,-3.763995 15.1345,-5.646674 24.03982,-5.646674 z M 42.631615,32.9203 h 1.957031 c 2.911996,0 5.670644,1.305062 7.514641,3.558393 l 32.180249,39.299971 c 2.402665,2.935998 7.160151,1.236302 7.160151,-2.557028 V 42.633377 c 0,-5.365331 4.34775,-9.713077 9.713083,-9.713077 5.36532,0 9.71483,4.347746 9.71483,9.713077 v 65.568113 c 0,5.364 -4.34951,9.71308 -9.71483,9.71308 h -1.84102 c -2.907997,0 -5.662864,-1.30236 -7.508196,-3.54902 L 59.502502,75.025736 c -2.405332,-2.929333 -7.157809,-1.228362 -7.157809,2.562301 v 30.613453 c 0,5.364 -4.347749,9.71308 -9.713078,9.71308 -5.363996,0 -9.713077,-4.34908 -9.713077,-9.71308 V 42.633377 c 0,-5.365331 4.349081,-9.713077 9.713077,-9.713077 z m 182.129745,6e-4 c 5.43199,0 9.83495,4.40237 9.83495,9.834367 v 65.323773 c 0,5.432 -4.40296,9.83496 -9.83495,9.83496 -5.432,0 -9.83436,-4.40296 -9.83436,-9.83496 V 42.755252 c 0,-5.431997 4.40236,-9.834367 9.83436,-9.834367 z" /></svg>
