<svg width="8.7607mm" height="2.804mm" version="1.2" viewBox="0 0 206.95 66.235" xmlns="http://www.w3.org/2000/svg">
 <g transform="translate(-27.567 .66698)">
  <g transform="matrix(7.1102 0 0 8.3818 231.2 127.21)">
   <path d="m-22.833-15.257c-0.59094 4.22e-4 -1.0709 0.4795-1.0713 1.0704v2.0783h-4.0449a0.68996 0.70457 0 0 0-0.69017 0.70343 0.68996 0.70457 0 0 0 0.69017 0.70343h4.0449v2.2763c3.63e-4 0.59097 0.48034 1.0701 1.0713 1.0704h17.46c0.59094-4.218e-4 1.0709-0.4795 1.0713-1.0704v-2.3608h4.0775c0.38032-5.29e-4 0.68965-0.31652 0.69017-0.70489-5.18e-4 -0.38837-0.30985-0.7029-0.69017-0.70343h-4.0775v-1.9923c-4.218e-4 -0.59094-0.48036-1.07-1.0713-1.0704zm1.0696 2.1423h15.321v3.6177h-15.321z"/>
  </g>
 </g>
</svg>
