<svg width="8.7607mm" height="3.5575mm" version="1.2" viewBox="0 0 206.95 84.035" xmlns="http://www.w3.org/2000/svg">
 <g transform="translate(-41.066 -99.327)">
  <g transform="matrix(6.8534 0 0 8.25 135.57 32.174)">
   <path d="m-5.7455 8.1418a1.2065 1.0023 0 0 0-0.32061 0.054747 1.2065 1.0023 0 0 0-0.70356 0.53415l-2.0109 3.7109h-4.2926a0.71582 0.71582 0 0 0-0.71603 0.71467 0.71582 0.71582 0 0 0 0.71603 0.71467h4.3959a1.2064 1.0022 0 0 0 0.34199 0.19235 1.2064 1.0022 0 0 0 1.5959-0.50308l0.81578-1.5078 1.9076 5.5457a1.2065 1.0023 0 0 0 2.271 0.11689l2.8962-5.6552 2.2461 5.5487a1.2065 1.0023 0 0 0 2.2674 0.04587l2.7092-5.7558 0.76234 1.5063a1.2064 1.0022 0 0 0 1.5799 0.53415 1.2064 1.0022 0 0 0 0.30636-0.15536h4.6685a0.71582 0.71582 0 0 0 0.71603-0.71467 0.71582 0.71582 0 0 0-0.71603-0.71467h-4.4672l-1.7776-3.5082a1.2065 1.0023 0 0 0-2.2354 0.022195l-2.5845 5.488-2.198-5.4333a1.2065 1.0023 0 0 0-2.2532-0.072503l-2.8071 5.4762-1.8774-5.4599a1.2065 1.0023 0 0 0-1.2361-0.72503z"/>
  </g>
 </g>
</svg>
