<svg width="5.2364mm" height="6.7054mm" version="1.2" viewBox="0 0 123.7 158.39" xmlns="http://www.w3.org/2000/svg">
 <g transform="translate(121.43 130.39)">
  <g transform="matrix(0 -9.117 8.25 0 -60.429 -170.19)">
   <path d="m-4.365 0.04264c-1.173e-4 -0.0010407-0.00111-0.0035528-0.00134-0.0044389v-0.0014796l-0.00402-0.0044388h-0.00134l-0.00134-0.0014796h-0.00268c-0.00728 1.1233e-4 -0.018103 0.0056726-0.032134 0.014796 0.014032 0.0091239 0.026195 0.013204 0.033473 0.013317h0.00268l0.00134-0.0014796h0.00134l0.00134-0.0014796v-0.0014796h0.00134v-0.0029592c4.672e-4 -0.0017722 0.00134-0.0035253 0.00134-0.0059186 0-0.0011967 1.173e-4 -0.0019186 0-0.0029593zm-0.042846 0.0029593c-0.36792-0.23923-2.9675-3.461-3.0675-3.5881-0.00204-0.00247-0.00268-0.00302-0.00268-0.00296-0.10664-0.1228-2.7313-3.2211-3.0139-3.7687 0.0667 0.6172 0.06142 4.6391 0.0549 6.466h-3.9632a0.84844 0.84844 0 0 0-0.84754 0.84784 0.84844 0.84844 0 0 0 0.84754 0.84784h3.9632c0.0067 1.7808 0.01293 5.9302-0.0549 6.5578 0.28278-0.54789 2.913-3.6539 3.0166-3.7731 0.10002-0.1271 2.6996-3.3474 3.0675-3.5867zm-6.0841 7.3598c-0.01753 0.033963-0.02577 0.05951-0.0241 0.072503v0.00148h0.0013v0.00148l0.0013 0.00148v0.00148h0.0013v0.00148h0.0026l0.0026-0.00296v-0.00148c0.0051-0.00914 0.01027-0.034179 0.01473-0.075462zm0-14.72c-0.0045-0.041283-0.0096-0.067804-0.01473-0.076942l-0.0013-0.00148v-0.00148h-0.0039v0.00148h-0.0013v0.00148h-0.0013v0.00148l-0.0013 0.00148v0.00296c-0.0017 0.012992 0.0066 0.03706 0.0241 0.071023z"/>
  </g>
  <g transform="translate(-189.73 -22.207)">
   <path d="m110.19 0.17189-17 47.6h-6l-17-47.6h6.2667l10.733 30.533q1.0667 2.9333 1.8 5.5334 0.73334 2.5333 1.2 4.8667 0.46667-2.3333 1.2-4.9334t1.8-5.6l10.667-30.4zm26.2 4.6q-7.6667 0-12.067 5.1334-4.4 5.1334-4.4 14.067 0 8.8667 4.0667 14.067 4.1333 5.1334 12.333 5.1334 3.1334 0 5.9334-0.53334 2.8-0.53334 5.4667-1.3333v5.2q-2.6667 1-5.5334 1.4667-2.8 0.46667-6.7334 0.46667-7.2667 0-12.133-3-4.8667-3-7.3334-8.5334-2.4-5.5334-2.4-13 0-7.2 2.6-12.667 2.6667-5.5334 7.8-8.6 5.1334-3.1333 12.467-3.1333 7.5334 0 13.133 2.8l-2.4 5.0667q-2.2-1-4.9334-1.8-2.6667-0.8-5.8667-0.8zm40.8 0q-7.6667 0-12.067 5.1334-4.4 5.1334-4.4 14.067 0 8.8667 4.0667 14.067 4.1333 5.1334 12.333 5.1334 3.1334 0 5.9334-0.53334 2.8-0.53334 5.4667-1.3333v5.2q-2.6667 1-5.5334 1.4667-2.8 0.46667-6.7334 0.46667-7.2667 0-12.133-3-4.8667-3-7.3334-8.5334-2.4-5.5334-2.4-13 0-7.2 2.6-12.667 2.6667-5.5334 7.8-8.6 5.1334-3.1333 12.467-3.1333 7.5334 0 13.133 2.8l-2.4 5.0667q-2.2-1-4.9334-1.8-2.6667-0.8-5.8667-0.8z"/>
   <path d="m136.46-2.2656c-5.1395 0-9.643 1.1078-13.385 3.3906-1e-3 7.545e-4 -3e-3 0.0012-4e-3 0.00195-3.7019 2.2154-6.56 5.3729-8.4727 9.3418l-4e-3 0.0098c-1.8629 3.9169-2.7715 8.4145-2.7715 13.428 0 5.1676 0.82916 9.7473 2.5449 13.703l8e-3 0.01758c1.7724 3.9759 4.4767 7.1351 8.0215 9.3203 3.5798 2.2067 7.9742 3.2637 13.062 3.2637 2.6923 0 5.026-0.15896 7.0254-0.49219 2.021-0.32941 3.9768-0.84727 5.8633-1.5547l1.1504-1.6582v-5.2012l-2.2812-1.6953c-1.7181 0.51543-3.4808 0.94463-5.2891 1.2891-1.7474 0.33283-3.6132 0.50195-5.6016 0.50195-5.092 0-8.5489-1.4942-10.945-4.4648-2.4046-3.0809-3.6836-7.3292-3.6836-12.963 0-5.6647 1.3718-9.8774 3.9746-12.914 2.6024-3.0362 6.005-4.5156 10.721-4.5156 1.9857 1e-7 3.7665 0.24927 5.3574 0.72656l0.0117 0.00195c1.7542 0.51343 3.3222 1.087 4.6992 1.7129l2.334-0.85352 2.3984-5.0664-0.80859-2.3437c-4.0176-2.0088-8.684-2.9863-13.926-2.9863zm40.801 0c-5.1368 0-9.6403 1.1063-13.381 3.3867-3.706 2.2156-6.5682 5.3757-8.4824 9.3477l-4e-3 0.0098c-1.8629 3.9169-2.7715 8.4145-2.7715 13.428 0 5.1676 0.83111 9.7473 2.5469 13.703l8e-3 0.01758c1.7724 3.9759 4.4767 7.1351 8.0215 9.3203 3.5798 2.2067 7.9742 3.2637 13.062 3.2637 2.6923 0 5.026-0.15896 7.0254-0.49219 2.0204-0.32942 3.9774-0.84749 5.8633-1.5547l1.1504-1.6582v-5.2012l-2.2812-1.6953c-1.7181 0.51543-3.4808 0.94463-5.2891 1.2891-1.7474 0.33283-3.6132 0.50195-5.6016 0.50195-5.092 0-8.549-1.4942-10.945-4.4648-2.4047-3.0809-3.6837-7.3293-3.6837-12.963 0-5.6647 1.3698-9.8774 3.9727-12.914 2.6024-3.0362 6.0069-4.5156 10.723-4.5156 1.9857 1e-7 3.7665 0.24927 5.3574 0.72656l0.0117 0.00195c1.7542 0.51343 3.3202 1.087 4.6973 1.7129l2.334-0.85351 2.4004-5.0664-0.80859-2.3437c-4.0176-2.0088-8.684-2.9863-13.926-2.9863zm-107.07 0.66602-1.6699 2.3672 17.002 47.6 1.668 1.1758h6l1.668-1.1758 17-47.6-1.668-2.3672h-6.334l-1.6719 1.1855-10.666 30.4c-0.52781 1.4848-0.9339 2.8269-1.3438 4.1758-0.40574-1.3212-0.80051-2.6331-1.3203-4.0625l0.0078 0.01758-10.734-30.533-1.6719-1.1836zm66.266 2.877c4.1029 0 7.5842 0.78077 10.691 2.0449l-0.86914 1.8359c-1.1294-0.44632-2.2278-0.90705-3.5117-1.2832-5.9e-4 -1.772e-4 -1e-3 1.771e-4 -2e-3 0-1.9641-0.58902-4.0947-0.875-6.375-0.875-5.5065 0-10.148 1.9437-13.412 5.752-3.2638 3.8078-4.8262 8.9743-4.8262 15.221 0 6.182 1.4312 11.307 4.4434 15.158l0.0156 0.01953c3.1145 3.868 7.8765 5.793 13.713 5.793 2.1894 0 4.2796-0.18617 6.2656-0.56445 1.147-0.21848 2.2472-0.53634 3.3633-0.82031v1.5918c-1.3204 0.4297-2.6456 0.84414-4.0469 1.0723l-6e-3 2e-3c-1.734 0.289-3.8912 0.44336-6.4434 0.44336-4.6007 0-8.294-0.94497-11.203-2.7383-2.9414-1.8132-5.1223-4.3411-6.6387-7.7383-1.4818-3.4202-2.252-7.5012-2.252-12.285 0-4.585 0.8232-8.5312 2.4258-11.902 6e-4 -0.0013 1e-3 -0.0026 2e-3 -0.0039 1.6401-3.3996 3.9764-5.9682 7.1094-7.8398l0.0137-0.00977c3.102-1.8934 6.9064-2.873 11.543-2.873zm40.801 0c4.1031 0 7.5841 0.78064 10.691 2.0449l-0.86914 1.8359c-1.1296-0.4464-2.2296-0.90699-3.5137-1.2832-5.9e-4 -1.772e-4 -1e-3 1.772e-4 -2e-3 0-1.9641-0.58902-4.0927-0.875-6.373-0.875-5.5065 0-10.148 1.9437-13.412 5.752-3.2638 3.8078-4.8262 8.9743-4.8262 15.221 0 6.182 1.4312 11.307 4.4434 15.158l0.0156 0.01953c3.1145 3.868 7.8765 5.793 13.713 5.793 2.1894 0 4.2777-0.18617 6.2637-0.56445 1.1477-0.2186 2.2486-0.53615 3.3652-0.82031v1.5918c-1.3204 0.4297-2.6456 0.84414-4.0469 1.0723l-8e-3 2e-3c-1.734 0.289-3.8892 0.44336-6.4414 0.44336-4.6006 0-8.294-0.94497-11.203-2.7383-2.9433-1.8144-5.1261-4.3436-6.6426-7.7441-3.9e-4 -8.69e-4 -2e-3 -0.0011-2e-3 -2e-3 -1.4797-3.4187-2.248-7.4969-2.248-12.277 0-4.585 0.82515-8.5312 2.4277-11.902 6e-4 -0.0013 1e-3 -0.0026 2e-3 -0.0039 1.6401-3.3996 3.9745-5.9682 7.1074-7.8398l0.0156-0.00977c3.102-1.8934 6.9064-2.873 11.543-2.873zm-104.55 0.66602h2.498l10.316 29.35 0.0059 0.01758c0.69822 1.9201 1.2845 3.7233 1.7598 5.4082l0.0039 0.01172c0.4764 1.6458 0.86377 3.2212 1.1641 4.7227h3.4746c0.30093-1.5047 0.69001-3.1062 1.168-4.8008 0.4763-1.6887 1.0637-3.5178 1.7637-5.4863l0.0039-0.0078 10.25-29.215h2.5644l-15.734 44.057h-3.5039z"/>
  </g>
 </g>
</svg>
