<svg xmlns="http://www.w3.org/2000/svg" xml:space="preserve" style="fill-rule:evenodd;clip-rule:evenodd;stroke-linejoin:round;stroke-miterlimit:2" viewBox="0 0 16 16"><path d="M6.5 12C9.517 12 12 9.517 12 6.5S9.517 1 6.5 1 1 3.483 1 6.5 3.483 12 6.5 12M13 6.5c0 3.566-2.934 6.5-6.5 6.5S0 10.066 0 6.5 2.934 0 6.5 0 13 2.934 13 6.5"/><path d="M10.344 11.742q.044.06.098.115l3.85 3.85a1 1 0 1 0 1.415-1.414l-3.85-3.85a1 1 0 0 0-.115-.1 6.5 6.5 0 0 1-1.398 1.4z" style="fill-rule:nonzero"/><path d="M4.25 5.002a.5.5 0 0 1-1-.002l.002-1.251a.5.5 0 0 1 .5-.499H5a.5.5 0 0 1 0 1h-.748zm3.749-.752a.5.5 0 0 1 .002-1l1.23.002c.276.001.5.225.5.5v1.249a.5.5 0 0 1-1 0v-.749zm.743 3.749a.503.503 0 0 1 1.008.002l-.003 1.25a.5.5 0 0 1-.503.499h-1.24a.5.5 0 0 1-.504-.5c0-.276.226-.5.504-.5h.736zM5 8.75a.5.5 0 0 1 0 1H3.75a.5.5 0 0 1-.5-.5V8a.5.5 0 0 1 1 0v.75z"/></svg>